SplineFontDB: 3.0
FontName: Stardos
FullName: Stardos
FamilyName: Stardos
Weight: Book
Copyright: Copyright (c) 2011 by vernon adams. All rights reserved.
Version: 1.000
ItalicAngle: 0
UnderlinePosition: -103
UnderlineWidth: 102
Ascent: 1638
Descent: 410
sfntRevision: 0x00010000
LayerCount: 2
Layer: 0 1 "Back"  1
Layer: 1 1 "Fore"  0
XUID: [1021 940 522016701 4240726]
FSType: 0
OS2Version: 2
OS2_WeightWidthSlopeOnly: 0
OS2_UseTypoMetrics: 1
CreationTime: 1305836820
ModificationTime: 1309275889
PfmFamily: 17
TTFWeight: 400
TTFWidth: 5
LineGap: 0
VLineGap: 0
Panose: 2 0 5 6 7 0 0 2 0 3
OS2TypoAscent: 332
OS2TypoAOffset: 1
OS2TypoDescent: -41
OS2TypoDOffset: 1
OS2TypoLinegap: 0
OS2WinAscent: 0
OS2WinAOffset: 1
OS2WinDescent: 0
OS2WinDOffset: 1
HheadAscent: 0
HheadAOffset: 1
HheadDescent: 0
HheadDOffset: 1
OS2SubXSize: 1331
OS2SubYSize: 1229
OS2SubXOff: 0
OS2SubYOff: 154
OS2SupXSize: 1331
OS2SupYSize: 1229
OS2SupXOff: 0
OS2SupYOff: 717
OS2StrikeYSize: 102
OS2StrikeYPos: 578
OS2Vendor: 'newt'
OS2CodePages: 20000001.00000000
OS2UnicodeRanges: 800000af.4000204a.00000000.00000000
Lookup: 1 0 0 "'aalt' Access All Alternates in Latin lookup 0"  {"'aalt' Access All Alternates in Latin lookup 0 subtable"  } ['aalt' ('latn' <'dflt' > ) ]
Lookup: 6 0 0 "'frac' Diagonal Fractions in Latin lookup 1"  {"'frac' Diagonal Fractions in Latin lookup 1 contextual 0"  "'frac' Diagonal Fractions in Latin lookup 1 contextual 1"  "'frac' Diagonal Fractions in Latin lookup 1 contextual 2"  "'frac' Diagonal Fractions in Latin lookup 1 contextual 3"  "'frac' Diagonal Fractions in Latin lookup 1 contextual 4"  } ['frac' ('latn' <'dflt' > ) ]
Lookup: 4 0 1 "'liga' Standard Ligatures in Latin lookup 2"  {"'liga' Standard Ligatures in Latin lookup 2 subtable"  } ['liga' ('latn' <'dflt' > ) ]
Lookup: 4 0 1 "'liga' Standard Ligatures in Latin lookup 3"  {"'liga' Standard Ligatures in Latin lookup 3 subtable"  } ['liga' ('latn' <'TUR ' 'dflt' > ) ]

StartChar: exclam
Encoding: 33 33 1
Width: 593
Flags: W
LayerCount: 2
Fore
SplineSet
247 397 m 1,0,1
 243 461 243 461 236 536.5 c 128,-1,2
 229 612 229 612 220.5 692 c 128,-1,3
 212 772 212 772 202.5 854.5 c 128,-1,4
 193 937 193 937 185.5 1015.5 c 128,-1,5
 178 1094 178 1094 173 1165 c 128,-1,6
 168 1236 168 1236 168 1294 c 0,7,8
 168 1340 168 1340 177 1370.5 c 128,-1,9
 186 1401 186 1401 202.5 1419 c 128,-1,10
 219 1437 219 1437 243 1444.5 c 128,-1,11
 267 1452 267 1452 297 1452 c 256,12,13
 327 1452 327 1452 351 1444.5 c 128,-1,14
 375 1437 375 1437 391.5 1419 c 128,-1,15
 408 1401 408 1401 416.5 1370.5 c 128,-1,16
 425 1340 425 1340 425 1294 c 0,17,18
 425 1236 425 1236 420 1164.5 c 128,-1,19
 415 1093 415 1093 407 1014.5 c 128,-1,20
 399 936 399 936 389.5 854 c 128,-1,21
 380 772 380 772 371 691.5 c 128,-1,22
 362 611 362 611 354.5 536 c 128,-1,23
 347 461 347 461 344 397 c 1,24,-1
 247 397 l 1,0,1
297 240 m 0,25,26
 322 240 322 240 345.5 229.5 c 128,-1,27
 369 219 369 219 387 201 c 128,-1,28
 405 183 405 183 416 159.5 c 128,-1,29
 427 136 427 136 427 109 c 0,30,31
 427 81 427 81 417 57.5 c 128,-1,32
 407 34 407 34 389 16.5 c 128,-1,33
 371 -1 371 -1 347.5 -10.5 c 128,-1,34
 324 -20 324 -20 297 -20 c 0,35,36
 267 -20 267 -20 242.5 -10.5 c 128,-1,37
 218 -1 218 -1 200.5 16 c 128,-1,38
 183 33 183 33 173 56.5 c 128,-1,39
 163 80 163 80 163 109 c 0,40,41
 163 166 163 166 200 203 c 128,-1,42
 237 240 237 240 297 240 c 0,25,26
EndSplineSet
EndChar

StartChar: quotedbl
Encoding: 34 34 2
Width: 790
Flags: W
LayerCount: 2
Fore
SplineSet
66 1223 m 1,0,1
 61 1261 61 1261 58 1292 c 128,-1,2
 55 1323 55 1323 55 1348 c 0,3,4
 55 1399 55 1399 77 1425.5 c 128,-1,5
 99 1452 99 1452 144 1452 c 0,6,7
 190 1452 190 1452 211 1425.5 c 128,-1,8
 232 1399 232 1399 232 1348 c 0,9,10
 232 1323 232 1323 228.5 1292 c 128,-1,11
 225 1261 225 1261 221 1223 c 2,12,-1
 191 911 l 1,13,14
 187 880 187 880 175.5 867 c 128,-1,15
 164 854 164 854 144 854 c 256,16,17
 124 854 124 854 112.5 867 c 128,-1,18
 101 880 101 880 98 911 c 2,19,-1
 66 1223 l 1,0,1
339 1223 m 2,20,21
 335 1261 335 1261 332.5 1292 c 128,-1,22
 330 1323 330 1323 329 1348 c 1,23,24
 329 1399 329 1399 350 1425.5 c 128,-1,25
 371 1452 371 1452 417 1452 c 0,26,27
 462 1452 462 1452 483.5 1425.5 c 128,-1,28
 505 1399 505 1399 505 1348 c 0,29,30
 505 1323 505 1323 501.5 1292 c 128,-1,31
 498 1261 498 1261 494 1223 c 2,32,-1
 462 911 l 2,33,34
 459 880 459 880 448 867 c 128,-1,35
 437 854 437 854 417 854 c 0,36,37
 396 854 396 854 384.5 867 c 128,-1,38
 373 880 373 880 369 911 c 1,39,-1
 339 1223 l 2,20,21
EndSplineSet
EndChar

StartChar: numbersign
Encoding: 35 35 3
Width: 1053
Flags: W
LayerCount: 2
Fore
SplineSet
956 442 m 1,0,-1
 752 442 l 1,1,-1
 686 0 l 1,2,-1
 550 0 l 1,3,-1
 616 442 l 1,4,-1
 378 442 l 1,5,-1
 313 0 l 1,6,-1
 176 0 l 1,7,-1
 242 442 l 1,8,-1
 36 442 l 1,9,-1
 36 563 l 1,10,-1
 259 563 l 1,11,-1
 303 858 l 1,12,-1
 97 858 l 1,13,-1
 97 979 l 1,14,-1
 318 979 l 1,15,-1
 385 1421 l 1,16,-1
 520 1421 l 1,17,-1
 456 979 l 1,18,-1
 693 979 l 1,19,-1
 757 1421 l 1,20,-1
 895 1421 l 1,21,-1
 829 979 l 1,22,-1
 1019 979 l 1,23,-1
 1019 858 l 1,24,-1
 814 858 l 1,25,-1
 770 563 l 1,26,-1
 956 563 l 1,27,-1
 956 442 l 1,0,-1
439 858 m 1,28,-1
 394 563 l 1,29,-1
 632 563 l 1,30,-1
 677 858 l 1,31,-1
 439 858 l 1,28,-1
EndSplineSet
EndChar

StartChar: dollar
Encoding: 36 36 4
Width: 1054
Flags: W
LayerCount: 2
Fore
SplineSet
610 844 m 1,0,1
 701 805 701 805 773.5 765.5 c 128,-1,2
 846 726 846 726 896.5 677.5 c 128,-1,3
 947 629 947 629 973.5 567.5 c 128,-1,4
 1000 506 1000 506 1000 424 c 0,5,6
 1000 361 1000 361 977.5 298.5 c 128,-1,7
 955 236 955 236 914.5 182 c 128,-1,8
 874 128 874 128 818 87 c 128,-1,9
 762 46 762 46 694 26 c 1,10,-1
 694 117 l 1,11,12
 759 150 759 150 790.5 211 c 128,-1,13
 822 272 822 272 822 344 c 0,14,15
 822 390 822 390 805.5 428.5 c 128,-1,16
 789 467 789 467 760 498.5 c 128,-1,17
 731 530 731 530 692.5 555 c 128,-1,18
 654 580 654 580 610 600 c 1,19,-1
 610 -164 l 1,20,-1
 508 -164 l 1,21,-1
 508 645 l 1,22,23
 411 687 411 687 344.5 731 c 128,-1,24
 278 775 278 775 236.5 823.5 c 128,-1,25
 195 872 195 872 177 926 c 128,-1,26
 159 980 159 980 159 1042 c 0,27,28
 159 1103 159 1103 178 1158 c 128,-1,29
 197 1213 197 1213 232 1258.5 c 128,-1,30
 267 1304 267 1304 316 1339 c 128,-1,31
 365 1374 365 1374 424 1396 c 1,32,-1
 425 1309 l 1,33,34
 376 1278 376 1278 351 1227 c 128,-1,35
 326 1176 326 1176 326 1116 c 0,36,37
 326 1073 326 1073 340 1038.5 c 128,-1,38
 354 1004 354 1004 378.5 976.5 c 128,-1,39
 403 949 403 949 436.5 927 c 128,-1,40
 470 905 470 905 508 887 c 1,41,-1
 508 1571 l 1,42,-1
 610 1571 l 1,43,-1
 610 844 l 1,0,1
424 15 m 1,44,45
 357 26 357 26 299 54 c 128,-1,46
 241 82 241 82 197.5 123.5 c 128,-1,47
 154 165 154 165 129 219 c 128,-1,48
 104 273 104 273 104 336 c 0,49,50
 104 374 104 374 114.5 405 c 128,-1,51
 125 436 125 436 143.5 457.5 c 128,-1,52
 162 479 162 479 187 490.5 c 128,-1,53
 212 502 212 502 242 502 c 0,54,55
 296 502 296 502 328 473 c 128,-1,56
 360 444 360 444 360 385 c 0,57,58
 360 357 360 357 348.5 337 c 128,-1,59
 337 317 337 317 310 317 c 1,60,61
 293 298 293 298 279 280.5 c 128,-1,62
 265 263 265 263 261 240 c 1,63,64
 265 213 265 213 280 190 c 128,-1,65
 295 167 295 167 317 148.5 c 128,-1,66
 339 130 339 130 366.5 116 c 128,-1,67
 394 102 394 102 424 94 c 1,68,-1
 424 15 l 1,44,45
694 1412 m 1,69,70
 750 1401 750 1401 795.5 1376.5 c 128,-1,71
 841 1352 841 1352 873 1318.5 c 128,-1,72
 905 1285 905 1285 922.5 1245 c 128,-1,73
 940 1205 940 1205 940 1163 c 0,74,75
 940 1098 940 1098 909.5 1061 c 128,-1,76
 879 1024 879 1024 814 1024 c 0,77,78
 760 1024 760 1024 729 1054 c 128,-1,79
 698 1084 698 1084 698 1137 c 0,80,81
 698 1161 698 1161 711.5 1176.5 c 128,-1,82
 725 1192 725 1192 741 1192 c 1,83,84
 755 1206 755 1206 762 1223.5 c 128,-1,85
 769 1241 769 1241 772 1255 c 1,86,87
 765 1285 765 1285 744 1305 c 128,-1,88
 723 1325 723 1325 694 1336 c 1,89,-1
 694 1412 l 1,69,70
EndSplineSet
EndChar

StartChar: percent
Encoding: 37 37 5
Width: 1496
Flags: W
LayerCount: 2
Fore
SplineSet
1148 29 m 1,0,1
 1169 38 1169 38 1186.5 59.5 c 128,-1,2
 1204 81 1204 81 1217 120 c 128,-1,3
 1230 159 1230 159 1237 218 c 128,-1,4
 1244 277 1244 277 1244 360 c 0,5,6
 1244 442 1244 442 1236.5 500.5 c 128,-1,7
 1229 559 1229 559 1216.5 598 c 128,-1,8
 1204 637 1204 637 1186.5 659 c 128,-1,9
 1169 681 1169 681 1148 690 c 1,10,-1
 1148 748 l 1,11,12
 1202 740 1202 740 1250 710.5 c 128,-1,13
 1298 681 1298 681 1334.5 632 c 128,-1,14
 1371 583 1371 583 1392.5 514.5 c 128,-1,15
 1414 446 1414 446 1414 360 c 0,16,17
 1414 273 1414 273 1392.5 204.5 c 128,-1,18
 1371 136 1371 136 1335 86.5 c 128,-1,19
 1299 37 1299 37 1250.5 8 c 128,-1,20
 1202 -21 1202 -21 1148 -28 c 1,21,-1
 1148 29 l 1,0,1
1065 -28 m 1,22,23
 1011 -20 1011 -20 963.5 9.5 c 128,-1,24
 916 39 916 39 880 88 c 128,-1,25
 844 137 844 137 823 205.5 c 128,-1,26
 802 274 802 274 802 360 c 0,27,28
 802 447 802 447 823 515.5 c 128,-1,29
 844 584 844 584 880 633 c 128,-1,30
 916 682 916 682 963.5 711 c 128,-1,31
 1011 740 1011 740 1065 748 c 1,32,-1
 1065 690 l 1,33,34
 1044 681 1044 681 1027 659 c 128,-1,35
 1010 637 1010 637 998 598 c 128,-1,36
 986 559 986 559 979.5 500.5 c 128,-1,37
 973 442 973 442 973 360 c 0,38,39
 973 277 973 277 979.5 218.5 c 128,-1,40
 986 160 986 160 998 121 c 128,-1,41
 1010 82 1010 82 1027 60 c 128,-1,42
 1044 38 1044 38 1065 29 c 1,43,-1
 1065 -28 l 1,22,23
176 -31 m 1,44,-1
 1211 1452 l 1,45,-1
 1330 1452 l 1,46,-1
 295 -31 l 1,47,-1
 176 -31 l 1,44,-1
441 730 m 1,48,49
 462 739 462 739 479.5 760.5 c 128,-1,50
 497 782 497 782 510 821 c 128,-1,51
 523 860 523 860 530 919 c 128,-1,52
 537 978 537 978 537 1061 c 0,53,54
 537 1143 537 1143 529.5 1201.5 c 128,-1,55
 522 1260 522 1260 509.5 1299 c 128,-1,56
 497 1338 497 1338 479.5 1360 c 128,-1,57
 462 1382 462 1382 441 1391 c 1,58,-1
 441 1449 l 1,59,60
 495 1441 495 1441 543 1411.5 c 128,-1,61
 591 1382 591 1382 627.5 1333 c 128,-1,62
 664 1284 664 1284 685.5 1215.5 c 128,-1,63
 707 1147 707 1147 707 1061 c 0,64,65
 707 974 707 974 685.5 905.5 c 128,-1,66
 664 837 664 837 628 787.5 c 128,-1,67
 592 738 592 738 543.5 709 c 128,-1,68
 495 680 495 680 441 673 c 1,69,-1
 441 730 l 1,48,49
358 673 m 1,70,71
 304 681 304 681 256.5 710.5 c 128,-1,72
 209 740 209 740 173 789 c 128,-1,73
 137 838 137 838 116 906.5 c 128,-1,74
 95 975 95 975 95 1061 c 0,75,76
 95 1148 95 1148 116 1216.5 c 128,-1,77
 137 1285 137 1285 173 1334 c 128,-1,78
 209 1383 209 1383 256.5 1412 c 128,-1,79
 304 1441 304 1441 358 1449 c 1,80,-1
 358 1391 l 1,81,82
 337 1382 337 1382 320 1360 c 128,-1,83
 303 1338 303 1338 291 1299 c 128,-1,84
 279 1260 279 1260 272.5 1201.5 c 128,-1,85
 266 1143 266 1143 266 1061 c 0,86,87
 266 978 266 978 272.5 919.5 c 128,-1,88
 279 861 279 861 291 822 c 128,-1,89
 303 783 303 783 320 761 c 128,-1,90
 337 739 337 739 358 730 c 1,91,-1
 358 673 l 1,70,71
EndSplineSet
Ligature2: "Ligature Substitution lookup 7 subtable" zero fraction zero
Ligature2: "Ligature Substitution lookup 7 subtable" zero slash zero
EndChar

StartChar: ampersand
Encoding: 38 38 6
Width: 1539
Flags: W
LayerCount: 2
Fore
SplineSet
633 879 m 1,0,1
 668 902 668 902 699.5 929.5 c 128,-1,2
 731 957 731 957 754.5 991 c 128,-1,3
 778 1025 778 1025 791.5 1066.5 c 128,-1,4
 805 1108 805 1108 805 1159 c 0,5,6
 805 1242 805 1242 773 1299 c 128,-1,7
 741 1356 741 1356 677 1371 c 1,8,-1
 677 1451 l 1,9,10
 747 1446 747 1446 803 1422 c 128,-1,11
 859 1398 859 1398 898 1361.5 c 128,-1,12
 937 1325 937 1325 958 1279 c 128,-1,13
 979 1233 979 1233 979 1184 c 0,14,15
 979 1112 979 1112 953 1054.5 c 128,-1,16
 927 997 927 997 885 950.5 c 128,-1,17
 843 904 843 904 789.5 867.5 c 128,-1,18
 736 831 736 831 682 803 c 1,19,-1
 633 879 l 1,0,1
368 653 m 1,20,21
 330 615 330 615 311 556 c 128,-1,22
 292 497 292 497 292 434 c 0,23,24
 292 369 292 369 314.5 310.5 c 128,-1,25
 337 252 337 252 376 205.5 c 128,-1,26
 415 159 415 159 468.5 127 c 128,-1,27
 522 95 522 95 584 83 c 1,28,-1
 584 -31 l 1,29,-1
 569 -31 l 2,30,31
 465 -31 465 -31 375 -3.5 c 128,-1,32
 285 24 285 24 217.5 77 c 128,-1,33
 150 130 150 130 111.5 207 c 128,-1,34
 73 284 73 284 73 383 c 0,35,36
 73 445 73 445 91 496 c 128,-1,37
 109 547 109 547 141.5 589 c 128,-1,38
 174 631 174 631 218 666 c 128,-1,39
 262 701 262 701 314 733 c 1,40,-1
 368 653 l 1,20,21
370 764 m 0,41,42
 347 804 347 804 326.5 846 c 128,-1,43
 306 888 306 888 289.5 930 c 128,-1,44
 273 972 273 972 263.5 1014.5 c 128,-1,45
 254 1057 254 1057 254 1098 c 0,46,47
 254 1171 254 1171 279.5 1232.5 c 128,-1,48
 305 1294 305 1294 350 1340 c 128,-1,49
 395 1386 395 1386 457.5 1414 c 128,-1,50
 520 1442 520 1442 594 1450 c 1,51,-1
 594 1373 l 1,52,53
 534 1363 534 1363 507.5 1320.5 c 128,-1,54
 481 1278 481 1278 481 1206 c 0,55,56
 481 1132 481 1132 506 1040 c 128,-1,57
 531 948 531 948 582 858 c 1,58,59
 600 830 600 830 629.5 788.5 c 128,-1,60
 659 747 659 747 695 698 c 128,-1,61
 731 649 731 649 772 596.5 c 128,-1,62
 813 544 813 544 855.5 493.5 c 128,-1,63
 898 443 898 443 939.5 398 c 128,-1,64
 981 353 981 353 1018 319 c 1,65,66
 1036 347 1036 347 1049.5 380.5 c 128,-1,67
 1063 414 1063 414 1072.5 449 c 128,-1,68
 1082 484 1082 484 1087 517 c 128,-1,69
 1092 550 1092 550 1092 576 c 0,70,71
 1092 621 1092 621 1075.5 643.5 c 128,-1,72
 1059 666 1059 666 1035 676.5 c 128,-1,73
 1011 687 1011 687 984 692 c 128,-1,74
 957 697 957 697 937 709 c 1,75,-1
 937 774 l 1,76,-1
 1441 774 l 1,77,-1
 1441 711 l 1,78,79
 1414 703 1414 703 1387.5 697.5 c 128,-1,80
 1361 692 1361 692 1336 682 c 128,-1,81
 1311 672 1311 672 1289 654.5 c 128,-1,82
 1267 637 1267 637 1250 606 c 1,83,84
 1233 567 1233 567 1216.5 523 c 128,-1,85
 1200 479 1200 479 1181 433.5 c 128,-1,86
 1162 388 1162 388 1138 340.5 c 128,-1,87
 1114 293 1114 293 1081 246 c 1,88,89
 1110 213 1110 213 1135 186 c 128,-1,90
 1160 159 1160 159 1185 140 c 128,-1,91
 1210 121 1210 121 1237 110.5 c 128,-1,92
 1264 100 1264 100 1296 100 c 0,93,94
 1342 100 1342 100 1375.5 137 c 128,-1,95
 1409 174 1409 174 1421 242 c 1,96,-1
 1493 213 l 1,97,98
 1483 166 1483 166 1463 123 c 128,-1,99
 1443 80 1443 80 1410.5 47 c 128,-1,100
 1378 14 1378 14 1330.5 -5.5 c 128,-1,101
 1283 -25 1283 -25 1219 -25 c 0,102,103
 1168 -25 1168 -25 1127 -16.5 c 128,-1,104
 1086 -8 1086 -8 1051.5 7 c 128,-1,105
 1017 22 1017 22 988 42 c 128,-1,106
 959 62 959 62 932 86 c 1,107,108
 878 44 878 44 814 15 c 128,-1,109
 750 -14 750 -14 667 -25 c 1,110,-1
 667 77 l 1,111,112
 730 82 730 82 780 103 c 128,-1,113
 830 124 830 124 861 150 c 1,114,115
 794 212 794 212 732 277.5 c 128,-1,116
 670 343 670 343 610 417.5 c 128,-1,117
 550 492 550 492 490.5 577 c 128,-1,118
 431 662 431 662 370 764 c 0,41,42
EndSplineSet
EndChar

StartChar: quoteright
Encoding: 8217 8217 7
Width: 506
Flags: W
LayerCount: 2
Fore
SplineSet
178 920 m 1,0,1
 232 969 232 969 267 1039.5 c 128,-1,2
 302 1110 302 1110 306 1186 c 1,3,4
 300 1185 300 1185 294 1185 c 128,-1,5
 288 1185 288 1185 282 1185 c 0,6,7
 250 1185 250 1185 222 1193.5 c 128,-1,8
 194 1202 194 1202 173.5 1219 c 128,-1,9
 153 1236 153 1236 141 1262 c 128,-1,10
 129 1288 129 1288 129 1323 c 0,11,12
 129 1349 129 1349 137 1372.5 c 128,-1,13
 145 1396 145 1396 161 1413.5 c 128,-1,14
 177 1431 177 1431 201.5 1441.5 c 128,-1,15
 226 1452 226 1452 259 1452 c 0,16,17
 328 1452 328 1452 372.5 1401 c 128,-1,18
 417 1350 417 1350 417 1253 c 0,19,20
 417 1200 417 1200 404.5 1147.5 c 128,-1,21
 392 1095 392 1095 369 1045.5 c 128,-1,22
 346 996 346 996 314 950.5 c 128,-1,23
 282 905 282 905 244 866 c 1,24,-1
 178 920 l 1,0,1
EndSplineSet
EndChar

StartChar: parenleft
Encoding: 40 40 8
Width: 924
Flags: W
LayerCount: 2
Fore
SplineSet
864 -408 m 1,0,1
 762 -400 762 -400 672 -363.5 c 128,-1,2
 582 -327 582 -327 506.5 -265.5 c 128,-1,3
 431 -204 431 -204 370.5 -121 c 128,-1,4
 310 -38 310 -38 268 64.5 c 128,-1,5
 226 167 226 167 203.5 285.5 c 128,-1,6
 181 404 181 404 181 535 c 0,7,8
 181 656 181 656 203.5 771 c 128,-1,9
 226 886 226 886 268.5 988 c 128,-1,10
 311 1090 311 1090 372 1176.5 c 128,-1,11
 433 1263 433 1263 510.5 1327.5 c 128,-1,12
 588 1392 588 1392 680 1431.5 c 128,-1,13
 772 1471 772 1471 877 1479 c 1,14,-1
 877 1397 l 1,15,16
 819 1391 819 1391 761.5 1366 c 128,-1,17
 704 1341 704 1341 651.5 1294.5 c 128,-1,18
 599 1248 599 1248 554 1179 c 128,-1,19
 509 1110 509 1110 476 1016.5 c 128,-1,20
 443 923 443 923 424.5 803 c 128,-1,21
 406 683 406 683 406 535 c 0,22,23
 406 379 406 379 424.5 256.5 c 128,-1,24
 443 134 443 134 475.5 40.5 c 128,-1,25
 508 -53 508 -53 552.5 -119.5 c 128,-1,26
 597 -186 597 -186 647.5 -230 c 128,-1,27
 698 -274 698 -274 753.5 -297 c 128,-1,28
 809 -320 809 -320 864 -326 c 1,29,-1
 864 -408 l 1,0,1
EndSplineSet
EndChar

StartChar: parenright
Encoding: 41 41 9
Width: 924
Flags: W
LayerCount: 2
Fore
SplineSet
59 1479 m 1,0,1
 211 1467 211 1467 337 1391.5 c 128,-1,2
 463 1316 463 1316 553 1191 c 128,-1,3
 643 1066 643 1066 693 898.5 c 128,-1,4
 743 731 743 731 743 535 c 0,5,6
 743 413 743 413 720.5 298.5 c 128,-1,7
 698 184 698 184 655.5 82 c 128,-1,8
 613 -20 613 -20 552 -106.5 c 128,-1,9
 491 -193 491 -193 413.5 -257 c 128,-1,10
 336 -321 336 -321 243.5 -360.5 c 128,-1,11
 151 -400 151 -400 47 -408 c 1,12,-1
 47 -326 l 1,13,14
 134 -317 134 -317 218.5 -264.5 c 128,-1,15
 303 -212 303 -212 369.5 -108.5 c 128,-1,16
 436 -5 436 -5 476.5 154 c 128,-1,17
 517 313 517 313 517 535 c 0,18,19
 517 769 517 769 476.5 929.5 c 128,-1,20
 436 1090 436 1090 371 1190.5 c 128,-1,21
 306 1291 306 1291 224 1339.5 c 128,-1,22
 142 1388 142 1388 59 1397 c 1,23,-1
 59 1479 l 1,0,1
EndSplineSet
EndChar

StartChar: asterisk
Encoding: 42 42 10
Width: 1009
Flags: W
LayerCount: 2
Fore
SplineSet
609 1126 m 1,0,1
 640 1149 640 1149 662.5 1170 c 128,-1,2
 685 1191 685 1191 703.5 1209.5 c 128,-1,3
 722 1228 722 1228 740 1243 c 128,-1,4
 758 1258 758 1258 780 1269 c 0,5,6
 795 1277 795 1277 812 1277 c 0,7,8
 824 1277 824 1277 838 1269 c 128,-1,9
 852 1261 852 1261 865 1246.5 c 128,-1,10
 878 1232 878 1232 886.5 1213 c 128,-1,11
 895 1194 895 1194 895 1172 c 0,12,13
 895 1140 895 1140 874 1124.5 c 128,-1,14
 853 1109 853 1109 815.5 1099 c 128,-1,15
 778 1089 778 1089 725 1078 c 128,-1,16
 672 1067 672 1067 609 1044 c 1,17,-1
 609 1126 l 1,0,1
609 1032 m 1,18,19
 675 1007 675 1007 727 994.5 c 128,-1,20
 779 982 779 982 815 971.5 c 128,-1,21
 851 961 851 961 870.5 946.5 c 128,-1,22
 890 932 890 932 890 902 c 0,23,24
 890 880 890 880 882 862.5 c 128,-1,25
 874 845 874 845 862.5 833 c 128,-1,26
 851 821 851 821 838.5 814.5 c 128,-1,27
 826 808 826 808 817 808 c 0,28,29
 792 808 792 808 769.5 821 c 128,-1,30
 747 834 747 834 723 854.5 c 128,-1,31
 699 875 699 875 671 900.5 c 128,-1,32
 643 926 643 926 609 952 c 1,33,-1
 609 1032 l 1,18,19
486 1126 m 1,34,35
 480 1172 480 1172 472.5 1205 c 128,-1,36
 465 1238 465 1238 458 1265 c 128,-1,37
 451 1292 451 1292 446 1315 c 128,-1,38
 441 1338 441 1338 441 1364 c 0,39,40
 441 1396 441 1396 456 1417 c 128,-1,41
 471 1438 471 1438 519 1438 c 256,42,43
 567 1438 567 1438 582 1417 c 128,-1,44
 597 1396 597 1396 597 1364 c 0,45,46
 597 1338 597 1338 592 1315 c 128,-1,47
 587 1292 587 1292 580 1265 c 128,-1,48
 573 1238 573 1238 565.5 1205 c 128,-1,49
 558 1172 558 1172 552 1126 c 1,50,-1
 486 1126 l 1,34,35
554 953 m 1,51,52
 560 908 560 908 569 874.5 c 128,-1,53
 578 841 578 841 586 813 c 128,-1,54
 594 785 594 785 599.5 761 c 128,-1,55
 605 737 605 737 605 711 c 0,56,57
 605 679 605 679 583.5 661 c 128,-1,58
 562 643 562 643 519 643 c 256,59,60
 476 643 476 643 454.5 661 c 128,-1,61
 433 679 433 679 433 711 c 0,62,63
 433 737 433 737 438.5 761 c 128,-1,64
 444 785 444 785 452 813 c 128,-1,65
 460 841 460 841 469 874.5 c 128,-1,66
 478 908 478 908 484 953 c 1,67,-1
 554 953 l 1,51,52
429 1044 m 1,68,69
 366 1067 366 1067 313 1078 c 128,-1,70
 260 1089 260 1089 222.5 1099 c 128,-1,71
 185 1109 185 1109 164 1124.5 c 128,-1,72
 143 1140 143 1140 143 1172 c 0,73,74
 143 1194 143 1194 151.5 1213 c 128,-1,75
 160 1232 160 1232 172.5 1246 c 128,-1,76
 185 1260 185 1260 199.5 1268.5 c 128,-1,77
 214 1277 214 1277 226 1277 c 0,78,79
 250 1277 250 1277 272.5 1263 c 128,-1,80
 295 1249 295 1249 318.5 1227 c 128,-1,81
 342 1205 342 1205 369 1178 c 128,-1,82
 396 1151 396 1151 429 1126 c 1,83,-1
 429 1044 l 1,68,69
429 952 m 1,84,85
 394 926 394 926 366.5 900.5 c 128,-1,86
 339 875 339 875 315 854.5 c 128,-1,87
 291 834 291 834 268 821 c 128,-1,88
 245 808 245 808 221 808 c 0,89,90
 212 808 212 808 199.5 814.5 c 128,-1,91
 187 821 187 821 175.5 833 c 128,-1,92
 164 845 164 845 156 862.5 c 128,-1,93
 148 880 148 880 148 902 c 0,94,95
 148 932 148 932 167.5 946.5 c 128,-1,96
 187 961 187 961 223 971.5 c 128,-1,97
 259 982 259 982 311 994.5 c 128,-1,98
 363 1007 363 1007 429 1032 c 1,99,-1
 429 952 l 1,84,85
EndSplineSet
EndChar

StartChar: plus
Encoding: 43 43 11
Width: 1425
Flags: W
LayerCount: 2
Fore
SplineSet
632 981 m 1,0,-1
 791 981 l 1,1,-1
 791 559 l 1,2,-1
 1280 559 l 1,3,-1
 1280 422 l 1,4,-1
 791 422 l 1,5,-1
 791 0 l 1,6,-1
 632 0 l 1,7,-1
 632 422 l 1,8,-1
 143 422 l 1,9,-1
 143 559 l 1,10,-1
 632 559 l 1,11,-1
 632 981 l 1,0,-1
EndSplineSet
EndChar

StartChar: comma
Encoding: 44 44 12
Width: 528
Flags: W
LayerCount: 2
Fore
SplineSet
147 -338 m 1,0,1
 188 -291 188 -291 217 -240 c 128,-1,2
 246 -189 246 -189 246 -124 c 0,3,4
 246 -98 246 -98 240.5 -68 c 128,-1,5
 235 -38 235 -38 222 -4 c 1,6,7
 183 7 183 7 156 37 c 128,-1,8
 129 67 129 67 129 115 c 0,9,10
 129 177 129 177 163.5 212.5 c 128,-1,11
 198 248 198 248 261 248 c 0,12,13
 292 248 292 248 320.5 236.5 c 128,-1,14
 349 225 349 225 370.5 199.5 c 128,-1,15
 392 174 392 174 404.5 134 c 128,-1,16
 417 94 417 94 417 37 c 0,17,18
 417 -69 417 -69 370 -175.5 c 128,-1,19
 323 -282 323 -282 230 -381 c 1,20,-1
 147 -338 l 1,0,1
EndSplineSet
EndChar

StartChar: hyphen
Encoding: 45 45 13
Width: 637
Flags: W
LayerCount: 2
Fore
SplineSet
560 557 m 1,0,-1
 560 424 l 1,1,-1
 77 424 l 1,2,-1
 77 557 l 1,3,-1
 560 557 l 1,0,-1
EndSplineSet
EndChar

StartChar: period
Encoding: 46 46 14
Width: 528
Flags: W
LayerCount: 2
Fore
SplineSet
263 248 m 0,0,1
 292 248 292 248 317 237.5 c 128,-1,2
 342 227 342 227 360 209 c 128,-1,3
 378 191 378 191 388.5 166.5 c 128,-1,4
 399 142 399 142 399 113 c 256,5,6
 399 84 399 84 388.5 59.5 c 128,-1,7
 378 35 378 35 360 17.5 c 128,-1,8
 342 0 342 0 317 -10 c 128,-1,9
 292 -20 292 -20 263 -20 c 0,10,11
 235 -20 235 -20 210 -10 c 128,-1,12
 185 0 185 0 166.5 17.5 c 128,-1,13
 148 35 148 35 137.5 59.5 c 128,-1,14
 127 84 127 84 127 113 c 256,15,16
 127 142 127 142 137.5 166.5 c 128,-1,17
 148 191 148 191 166.5 209 c 128,-1,18
 185 227 185 227 210 237.5 c 128,-1,19
 235 248 235 248 263 248 c 0,0,1
EndSplineSet
EndChar

StartChar: slash
Encoding: 47 47 15
Width: 594
Flags: W
LayerCount: 2
Fore
SplineSet
-113 -31 m 1,0,-1
 537 1452 l 1,1,-1
 705 1452 l 1,2,-1
 55 -31 l 1,3,-1
 -113 -31 l 1,0,-1
EndSplineSet
EndChar

StartChar: zero
Encoding: 48 48 16
Width: 1054
Flags: W
LayerCount: 2
Fore
SplineSet
485 -28 m 1,0,1
 406 -18 406 -18 333.5 31 c 128,-1,2
 261 80 261 80 205.5 171 c 128,-1,3
 150 262 150 262 117 396.5 c 128,-1,4
 84 531 84 531 84 711 c 256,5,6
 84 891 84 891 117 1025 c 128,-1,7
 150 1159 150 1159 205.5 1250 c 128,-1,8
 261 1341 261 1341 333.5 1390 c 128,-1,9
 406 1439 406 1439 485 1449 c 1,10,-1
 485 1372 l 1,11,12
 446 1363 446 1363 415 1329.5 c 128,-1,13
 384 1296 384 1296 362 1221.5 c 128,-1,14
 340 1147 340 1147 328 1023.5 c 128,-1,15
 316 900 316 900 316 711 c 0,16,17
 316 523 316 523 328 399.5 c 128,-1,18
 340 276 340 276 362 201.5 c 128,-1,19
 384 127 384 127 415 93 c 128,-1,20
 446 59 446 59 485 50 c 1,21,-1
 485 -28 l 1,0,1
568 49 m 1,22,23
 606 57 606 57 637 90 c 128,-1,24
 668 123 668 123 690 197.5 c 128,-1,25
 712 272 712 272 724 396 c 128,-1,26
 736 520 736 520 736 711 c 0,27,28
 736 899 736 899 724 1022 c 128,-1,29
 712 1145 712 1145 689.5 1219.5 c 128,-1,30
 667 1294 667 1294 636 1328 c 128,-1,31
 605 1362 605 1362 568 1371 c 1,32,-1
 568 1450 l 1,33,34
 646 1440 646 1440 718.5 1391.5 c 128,-1,35
 791 1343 791 1343 846.5 1252 c 128,-1,36
 902 1161 902 1161 935.5 1026.5 c 128,-1,37
 969 892 969 892 969 711 c 256,38,39
 969 530 969 530 935.5 395.5 c 128,-1,40
 902 261 902 261 846.5 170 c 128,-1,41
 791 79 791 79 718.5 30.5 c 128,-1,42
 646 -18 646 -18 568 -28 c 1,43,-1
 568 49 l 1,22,23
EndSplineSet
EndChar

StartChar: one
Encoding: 49 49 17
Width: 1054
Flags: W
LayerCount: 2
Fore
SplineSet
428 1382 m 1,0,1
 497 1413 497 1413 553 1452 c 1,2,-1
 653 1452 l 1,3,-1
 653 270 l 2,4,5
 653 238 653 238 654.5 211.5 c 128,-1,6
 656 185 656 185 660 162 c 0,7,8
 665 132 665 132 687.5 117.5 c 128,-1,9
 710 103 710 103 740.5 95 c 128,-1,10
 771 87 771 87 805 81 c 128,-1,11
 839 75 839 75 867 61 c 1,12,-1
 867 0 l 1,13,-1
 210 0 l 1,14,-1
 210 61 l 1,15,16
 239 75 239 75 273.5 81 c 128,-1,17
 308 87 308 87 339 95 c 128,-1,18
 370 103 370 103 392.5 117.5 c 128,-1,19
 415 132 415 132 420 162 c 0,20,21
 424 185 424 185 426 211.5 c 128,-1,22
 428 238 428 238 428 270 c 2,23,-1
 428 1382 l 1,0,1
345 1232 m 1,24,25
 321 1243 321 1243 287 1246.5 c 128,-1,26
 253 1250 253 1250 202 1251 c 1,27,-1
 202 1312 l 1,28,29
 284 1329 284 1329 345 1354 c 1,30,-1
 345 1232 l 1,24,25
EndSplineSet
Substitution2: "'sups' Superscript in Latin lookup 5 subtable" onesuperior
Substitution2: "'aalt' Access All Alternates in Latin lookup 0 subtable" onesuperior
EndChar

StartChar: two
Encoding: 50 50 18
Width: 1054
Flags: W
LayerCount: 2
Fore
SplineSet
419 1373 m 1,0,1
 374 1370 374 1370 336 1354 c 128,-1,2
 298 1338 298 1338 271 1313 c 128,-1,3
 244 1288 244 1288 229 1257.5 c 128,-1,4
 214 1227 214 1227 214 1194 c 1,5,6
 231 1179 231 1179 253.5 1166 c 128,-1,7
 276 1153 276 1153 296.5 1137.5 c 128,-1,8
 317 1122 317 1122 331 1101 c 128,-1,9
 345 1080 345 1080 345 1050 c 256,10,11
 345 1020 345 1020 335.5 999 c 128,-1,12
 326 978 326 978 310 964.5 c 128,-1,13
 294 951 294 951 273 944.5 c 128,-1,14
 252 938 252 938 229 938 c 0,15,16
 160 938 160 938 123 984 c 128,-1,17
 86 1030 86 1030 86 1118 c 0,18,19
 86 1177 86 1177 108.5 1232.5 c 128,-1,20
 131 1288 131 1288 173.5 1333 c 128,-1,21
 216 1378 216 1378 278 1409 c 128,-1,22
 340 1440 340 1440 419 1449 c 1,23,-1
 419 1373 l 1,0,1
318 170 m 1,24,25
 331 169 331 169 344.5 169 c 128,-1,26
 358 169 358 169 372 169 c 0,27,28
 401 169 401 169 430.5 169.5 c 128,-1,29
 460 170 460 170 489 170 c 0,30,31
 563 170 563 170 613.5 180 c 128,-1,32
 664 190 664 190 697.5 208.5 c 128,-1,33
 731 227 731 227 751 252 c 128,-1,34
 771 277 771 277 786 307 c 128,-1,35
 801 337 801 337 814 370 c 128,-1,36
 827 403 827 403 845 438 c 1,37,-1
 893 438 l 1,38,-1
 893 0 l 1,39,-1
 197 0 l 1,40,-1
 318 170 l 1,24,25
106 0 m 1,41,-1
 52 0 l 1,42,-1
 72 189 l 1,43,44
 113 238 113 238 157 289 c 0,45,46
 195 333 195 333 240 385 c 128,-1,47
 285 437 285 437 329 487 c 0,48,49
 399 567 399 567 461.5 634.5 c 128,-1,50
 524 702 524 702 570 768 c 128,-1,51
 616 834 616 834 643 905 c 128,-1,52
 670 976 670 976 670 1065 c 0,53,54
 670 1194 670 1194 625.5 1269.5 c 128,-1,55
 581 1345 581 1345 502 1366 c 1,56,-1
 502 1452 l 1,57,58
 605 1449 605 1449 683 1416 c 128,-1,59
 761 1383 761 1383 813.5 1329.5 c 128,-1,60
 866 1276 866 1276 892.5 1207.5 c 128,-1,61
 919 1139 919 1139 919 1065 c 0,62,63
 919 993 919 993 894.5 923 c 128,-1,64
 870 853 870 853 828.5 786 c 128,-1,65
 787 719 787 719 733 656 c 128,-1,66
 679 593 679 593 620 535 c 128,-1,67
 561 477 561 477 501.5 424.5 c 128,-1,68
 442 372 442 372 389.5 326 c 128,-1,69
 337 280 337 280 295.5 241 c 128,-1,70
 254 202 254 202 232 172 c 2,71,-1
 106 0 l 1,41,-1
EndSplineSet
Substitution2: "'sups' Superscript in Latin lookup 5 subtable" twosuperior
Substitution2: "'aalt' Access All Alternates in Latin lookup 0 subtable" twosuperior
EndChar

StartChar: three
Encoding: 51 51 19
Width: 1054
Flags: W
LayerCount: 2
Fore
SplineSet
423 1379 m 1,0,1
 354 1373 354 1373 305.5 1336.5 c 128,-1,2
 257 1300 257 1300 247 1231 c 1,3,4
 263 1225 263 1225 282.5 1216.5 c 128,-1,5
 302 1208 302 1208 318.5 1194 c 128,-1,6
 335 1180 335 1180 346.5 1157.5 c 128,-1,7
 358 1135 358 1135 358 1100 c 0,8,9
 358 1044 358 1044 324.5 1010.5 c 128,-1,10
 291 977 291 977 231 977 c 0,11,12
 173 977 173 977 135.5 1017.5 c 128,-1,13
 98 1058 98 1058 98 1147 c 0,14,15
 98 1203 98 1203 122 1254.5 c 128,-1,16
 146 1306 146 1306 189.5 1346.5 c 128,-1,17
 233 1387 233 1387 292.5 1414 c 128,-1,18
 352 1441 352 1441 423 1449 c 1,19,-1
 423 1379 l 1,0,1
423 -30 m 1,20,21
 338 -26 338 -26 272 -2 c 128,-1,22
 206 22 206 22 161 61 c 128,-1,23
 116 100 116 100 92.5 151.5 c 128,-1,24
 69 203 69 203 69 262 c 0,25,26
 69 361 69 361 111.5 407.5 c 128,-1,27
 154 454 154 454 231 454 c 0,28,29
 257 454 257 454 278 441.5 c 128,-1,30
 299 429 299 429 313.5 409.5 c 128,-1,31
 328 390 328 390 336 367 c 128,-1,32
 344 344 344 344 344 322 c 0,33,34
 344 290 344 290 334 268.5 c 128,-1,35
 324 247 324 247 307 232 c 128,-1,36
 290 217 290 217 267.5 206.5 c 128,-1,37
 245 196 245 196 220 188 c 1,38,39
 221 159 221 159 236.5 133 c 128,-1,40
 252 107 252 107 279 88 c 128,-1,41
 306 69 306 69 342.5 57.5 c 128,-1,42
 379 46 379 46 423 45 c 1,43,-1
 423 -30 l 1,20,21
506 53 m 1,44,45
 551 63 551 63 586.5 87 c 128,-1,46
 622 111 622 111 646 151 c 128,-1,47
 670 191 670 191 683 248 c 128,-1,48
 696 305 696 305 696 381 c 0,49,50
 696 478 696 478 675.5 541.5 c 128,-1,51
 655 605 655 605 622 642 c 128,-1,52
 589 679 589 679 547 694 c 128,-1,53
 505 709 505 709 462 709 c 0,54,55
 453 709 453 709 440 708.5 c 128,-1,56
 427 708 427 708 416 708 c 0,57,58
 402 707 402 707 388 707 c 0,59,60
 359 707 359 707 345 718 c 128,-1,61
 331 729 331 729 331 749 c 0,62,63
 331 773 331 773 347 783 c 128,-1,64
 363 793 363 793 388 793 c 1,65,66
 410 794 410 794 431 796 c 0,67,68
 449 798 449 798 467.5 800 c 128,-1,69
 486 802 486 802 498 806 c 0,70,71
 522 813 522 813 552 827.5 c 128,-1,72
 582 842 582 842 608.5 873.5 c 128,-1,73
 635 905 635 905 652.5 958.5 c 128,-1,74
 670 1012 670 1012 670 1098 c 0,75,76
 670 1214 670 1214 626 1284 c 128,-1,77
 582 1354 582 1354 506 1373 c 1,78,-1
 506 1451 l 1,79,80
 597 1447 597 1447 670 1418.5 c 128,-1,81
 743 1390 743 1390 794.5 1343 c 128,-1,82
 846 1296 846 1296 874 1233.5 c 128,-1,83
 902 1171 902 1171 902 1100 c 0,84,85
 902 969 902 969 826 883.5 c 128,-1,86
 750 798 750 798 591 766 c 1,87,-1
 591 762 l 1,88,89
 671 748 671 748 735.5 719 c 128,-1,90
 800 690 800 690 845 645 c 128,-1,91
 890 600 890 600 914 538 c 128,-1,92
 938 476 938 476 938 397 c 0,93,94
 938 312 938 312 907.5 238 c 128,-1,95
 877 164 877 164 820.5 107 c 128,-1,96
 764 50 764 50 684.5 14 c 128,-1,97
 605 -22 605 -22 506 -29 c 1,98,-1
 506 53 l 1,44,45
EndSplineSet
Substitution2: "'sups' Superscript in Latin lookup 5 subtable" threesuperior
Substitution2: "'aalt' Access All Alternates in Latin lookup 0 subtable" threesuperior
EndChar

StartChar: four
Encoding: 52 52 20
Width: 1054
Flags: W
LayerCount: 2
Fore
SplineSet
794 211 m 2,0,1
 794 170 794 170 801 135 c 0,2,3
 804 117 804 117 817.5 107.5 c 128,-1,4
 831 98 831 98 849.5 92 c 128,-1,5
 868 86 868 86 888.5 80.5 c 128,-1,6
 909 75 909 75 927 63 c 1,7,-1
 927 0 l 1,8,-1
 400 0 l 1,9,-1
 400 57 l 1,10,11
 420 74 420 74 445.5 81 c 128,-1,12
 471 88 471 88 495 94.5 c 128,-1,13
 519 101 519 101 537.5 111 c 128,-1,14
 556 121 556 121 561 145 c 0,15,16
 564 162 564 162 566 179.5 c 128,-1,17
 568 197 568 197 568 219 c 2,18,-1
 568 1315 l 1,19,-1
 658 1452 l 1,20,-1
 794 1452 l 1,21,-1
 794 211 l 2,0,1
485 1018 m 1,22,-1
 182 541 l 1,23,-1
 155 487 l 1,24,-1
 485 487 l 1,25,-1
 485 381 l 1,26,-1
 32 381 l 1,27,-1
 32 492 l 1,28,-1
 485 1187 l 1,29,-1
 485 1018 l 1,22,-1
877 487 m 1,30,-1
 986 487 l 1,31,-1
 986 381 l 1,32,-1
 877 381 l 1,33,-1
 877 487 l 1,30,-1
EndSplineSet
EndChar

StartChar: five
Encoding: 53 53 21
Width: 1054
Flags: W
LayerCount: 2
Fore
SplineSet
420 -31 m 1,0,1
 339 -28 339 -28 273 -3.5 c 128,-1,2
 207 21 207 21 160.5 60.5 c 128,-1,3
 114 100 114 100 89 151.5 c 128,-1,4
 64 203 64 203 64 262 c 0,5,6
 64 353 64 353 104.5 393.5 c 128,-1,7
 145 434 145 434 211 434 c 0,8,9
 265 434 265 434 299 402 c 128,-1,10
 333 370 333 370 333 313 c 0,11,12
 333 284 333 284 322 264.5 c 128,-1,13
 311 245 311 245 294 232 c 128,-1,14
 277 219 277 219 256 210.5 c 128,-1,15
 235 202 235 202 216 195 c 1,16,17
 217 163 217 163 234 136 c 128,-1,18
 251 109 251 109 279 89.5 c 128,-1,19
 307 70 307 70 343.5 58 c 128,-1,20
 380 46 380 46 420 45 c 1,21,-1
 420 -31 l 1,0,1
249 730 m 1,22,23
 239 720 239 720 232.5 707 c 128,-1,24
 226 694 226 694 219.5 683 c 128,-1,25
 213 672 213 672 206 664 c 128,-1,26
 199 656 199 656 189 656 c 0,27,28
 181 656 181 656 173 658 c 128,-1,29
 165 660 165 660 157.5 666.5 c 128,-1,30
 150 673 150 673 145.5 686.5 c 128,-1,31
 141 700 141 700 141 723 c 0,32,33
 141 753 141 753 142.5 785.5 c 128,-1,34
 144 818 144 818 147.5 858.5 c 128,-1,35
 151 899 151 899 156 950.5 c 128,-1,36
 161 1002 161 1002 167.5 1071.5 c 128,-1,37
 174 1141 174 1141 181.5 1231 c 128,-1,38
 189 1321 189 1321 198 1438 c 1,39,40
 231 1433 231 1433 271 1428 c 128,-1,41
 311 1423 311 1423 355 1419.5 c 128,-1,42
 399 1416 399 1416 444 1413.5 c 128,-1,43
 489 1411 489 1411 532 1411 c 0,44,45
 610 1411 610 1411 665.5 1414.5 c 128,-1,46
 721 1418 721 1418 764 1423 c 0,47,48
 789 1426 789 1426 804 1433.5 c 128,-1,49
 819 1441 819 1441 829.5 1448.5 c 128,-1,50
 840 1456 840 1456 848.5 1462 c 128,-1,51
 857 1468 857 1468 870 1468 c 0,52,53
 891 1468 891 1468 897.5 1463 c 128,-1,54
 904 1458 904 1458 904 1443 c 0,55,56
 904 1419 904 1419 895.5 1383.5 c 128,-1,57
 887 1348 887 1348 864.5 1314 c 128,-1,58
 842 1280 842 1280 803 1253 c 128,-1,59
 764 1226 764 1226 702 1218 c 0,60,61
 673 1214 673 1214 644 1212.5 c 128,-1,62
 615 1211 615 1211 586 1211 c 0,63,64
 509 1211 509 1211 433.5 1218.5 c 128,-1,65
 358 1226 358 1226 285 1233 c 1,66,-1
 252 827 l 1,67,-1
 249 730 l 1,22,23
335 872 m 1,68,69
 374 892 374 892 414 900.5 c 128,-1,70
 454 909 454 909 499 909 c 0,71,72
 606 909 606 909 691 875 c 128,-1,73
 776 841 776 841 835.5 782 c 128,-1,74
 895 723 895 723 927 643.5 c 128,-1,75
 959 564 959 564 959 473 c 0,76,77
 959 380 959 380 929 293.5 c 128,-1,78
 899 207 899 207 841.5 139 c 128,-1,79
 784 71 784 71 699 26.5 c 128,-1,80
 614 -18 614 -18 503 -28 c 1,81,-1
 503 53 l 1,82,-1
 514 55 l 1,83,84
 560 67 560 67 596 95 c 128,-1,85
 632 123 632 123 657.5 170.5 c 128,-1,86
 683 218 683 218 696.5 287 c 128,-1,87
 710 356 710 356 710 451 c 0,88,89
 710 628 710 628 641 722.5 c 128,-1,90
 572 817 572 817 449 817 c 0,91,92
 417 817 417 817 388.5 809.5 c 128,-1,93
 360 802 360 802 335 790 c 1,94,-1
 335 872 l 1,68,69
EndSplineSet
EndChar

StartChar: six
Encoding: 54 54 22
Width: 1054
Flags: W
LayerCount: 2
Fore
SplineSet
606 1452 m 1,0,1
 676 1452 676 1452 731.5 1434.5 c 128,-1,2
 787 1417 787 1417 826 1387 c 128,-1,3
 865 1357 865 1357 886 1316.5 c 128,-1,4
 907 1276 907 1276 907 1231 c 0,5,6
 907 1159 907 1159 872 1123 c 128,-1,7
 837 1087 837 1087 782 1087 c 0,8,9
 733 1087 733 1087 700 1115.5 c 128,-1,10
 667 1144 667 1144 667 1204 c 0,11,12
 667 1226 667 1226 674.5 1242 c 128,-1,13
 682 1258 682 1258 693 1270 c 128,-1,14
 704 1282 704 1282 717 1291 c 128,-1,15
 730 1300 730 1300 741 1309 c 1,16,17
 733 1340 733 1340 697 1357 c 128,-1,18
 661 1374 661 1374 607 1376 c 1,19,-1
 606 1376 l 1,20,-1
 606 1452 l 1,0,1
523 1363 m 1,21,22
 427 1325 427 1325 379.5 1174.5 c 128,-1,23
 332 1024 332 1024 332 772 c 2,24,-1
 332 505 l 2,25,26
 332 396 332 396 343 314.5 c 128,-1,27
 354 233 354 233 375 177 c 128,-1,28
 396 121 396 121 428 89 c 128,-1,29
 460 57 460 57 502 46 c 1,30,-1
 502 -28 l 1,31,32
 406 -18 406 -18 330 29.5 c 128,-1,33
 254 77 254 77 202 159 c 128,-1,34
 150 241 150 241 122.5 357 c 128,-1,35
 95 473 95 473 95 621 c 0,36,37
 95 822 95 822 129.5 970.5 c 128,-1,38
 164 1119 164 1119 222.5 1220 c 128,-1,39
 281 1321 281 1321 359 1376 c 128,-1,40
 437 1431 437 1431 523 1446 c 1,41,-1
 523 1363 l 1,21,22
415 836 m 1,42,43
 454 861 454 861 498.5 875 c 128,-1,44
 543 889 543 889 598 889 c 0,45,46
 656 889 656 889 722 864.5 c 128,-1,47
 788 840 788 840 844 787.5 c 128,-1,48
 900 735 900 735 937 652.5 c 128,-1,49
 974 570 974 570 974 453 c 0,50,51
 974 351 974 351 946 264.5 c 128,-1,52
 918 178 918 178 867 114 c 128,-1,53
 816 50 816 50 744 12.5 c 128,-1,54
 672 -25 672 -25 585 -30 c 1,55,-1
 585 45 l 1,56,57
 621 52 621 52 650 74.5 c 128,-1,58
 679 97 679 97 699.5 141.5 c 128,-1,59
 720 186 720 186 730.5 256.5 c 128,-1,60
 741 327 741 327 741 430 c 0,61,62
 741 537 741 537 727 608.5 c 128,-1,63
 713 680 713 680 688.5 723.5 c 128,-1,64
 664 767 664 767 629.5 785 c 128,-1,65
 595 803 595 803 553 803 c 256,66,67
 511 803 511 803 477 790.5 c 128,-1,68
 443 778 443 778 415 756 c 1,69,-1
 415 836 l 1,42,43
EndSplineSet
EndChar

StartChar: seven
Encoding: 55 55 23
Width: 1054
Flags: W
LayerCount: 2
Fore
SplineSet
749 1257 m 1,0,-1
 465 1257 l 2,1,2
 379 1257 379 1257 326 1231 c 128,-1,3
 273 1205 273 1205 242 1145 c 0,4,5
 230 1122 230 1122 223 1100.5 c 128,-1,6
 216 1079 216 1079 209.5 1058 c 128,-1,7
 203 1037 203 1037 196 1017 c 128,-1,8
 189 997 189 997 178 979 c 1,9,-1
 111 979 l 1,10,-1
 129 1436 l 1,11,12
 175 1431 175 1431 232 1426 c 128,-1,13
 289 1421 289 1421 361 1421 c 2,14,-1
 859 1421 l 1,15,-1
 749 1257 l 1,0,-1
951 1421 m 1,16,-1
 972 1421 l 1,17,-1
 972 1296 l 1,18,19
 903 1191 903 1191 835.5 1083 c 128,-1,20
 768 975 768 975 715 855.5 c 128,-1,21
 662 736 662 736 629 600 c 128,-1,22
 596 464 596 464 596 303 c 0,23,24
 596 238 596 238 604 188.5 c 128,-1,25
 612 139 612 139 612 98 c 0,26,27
 612 33 612 33 579.5 1 c 128,-1,28
 547 -31 547 -31 487 -31 c 0,29,30
 419 -31 419 -31 380.5 12.5 c 128,-1,31
 342 56 342 56 342 154 c 0,32,33
 342 243 342 243 364.5 337 c 128,-1,34
 387 431 387 431 425 526.5 c 128,-1,35
 463 622 463 622 513 718 c 128,-1,36
 563 814 563 814 618 906.5 c 128,-1,37
 673 999 673 999 729.5 1087.5 c 128,-1,38
 786 1176 786 1176 838 1257 c 1,39,-1
 951 1421 l 1,16,-1
EndSplineSet
EndChar

StartChar: eight
Encoding: 56 56 24
Width: 1054
Flags: W
LayerCount: 2
Fore
SplineSet
635 881 m 1,0,1
 692 924 692 924 717.5 976 c 128,-1,2
 743 1028 743 1028 743 1108 c 0,3,4
 743 1217 743 1217 694 1287.5 c 128,-1,5
 645 1358 645 1358 560 1375 c 1,6,-1
 560 1451 l 1,7,8
 644 1445 644 1445 710 1416 c 128,-1,9
 776 1387 776 1387 822 1343 c 128,-1,10
 868 1299 868 1299 892.5 1243 c 128,-1,11
 917 1187 917 1187 917 1128 c 0,12,13
 917 1077 917 1077 904 1035.5 c 128,-1,14
 891 994 891 994 866.5 959 c 128,-1,15
 842 924 842 924 806.5 893 c 128,-1,16
 771 862 771 862 726 832 c 1,17,-1
 635 881 l 1,0,1
395 610 m 1,18,19
 325 561 325 561 285 493 c 128,-1,20
 245 425 245 425 245 338 c 0,21,22
 245 212 245 212 305 135 c 128,-1,23
 365 58 365 58 477 44 c 1,24,-1
 477 -31 l 1,25,26
 381 -28 381 -28 304.5 0.5 c 128,-1,27
 228 29 228 29 174.5 78.5 c 128,-1,28
 121 128 121 128 92.5 195 c 128,-1,29
 64 262 64 262 64 342 c 0,30,31
 64 395 64 395 82.5 441 c 128,-1,32
 101 487 101 487 133 526 c 128,-1,33
 165 565 165 565 209 599 c 128,-1,34
 253 633 253 633 304 662 c 1,35,-1
 395 610 l 1,18,19
365 711 m 2,36,37
 313 740 313 740 267 774 c 128,-1,38
 221 808 221 808 187 851 c 128,-1,39
 153 894 153 894 133.5 947 c 128,-1,40
 114 1000 114 1000 114 1067 c 0,41,42
 114 1138 114 1138 140 1203 c 128,-1,43
 166 1268 166 1268 213 1320 c 128,-1,44
 260 1372 260 1372 327 1406 c 128,-1,45
 394 1440 394 1440 477 1449 c 1,46,-1
 477 1378 l 1,47,48
 433 1373 433 1373 397.5 1354.5 c 128,-1,49
 362 1336 362 1336 336.5 1307.5 c 128,-1,50
 311 1279 311 1279 297 1242.5 c 128,-1,51
 283 1206 283 1206 283 1165 c 0,52,53
 283 1112 283 1112 302 1069.5 c 128,-1,54
 321 1027 321 1027 359.5 988 c 128,-1,55
 398 949 398 949 457 910.5 c 128,-1,56
 516 872 516 872 596 827 c 2,57,-1
 677 782 l 1,58,59
 734 753 734 753 786 715 c 128,-1,60
 838 677 838 677 877.5 629 c 128,-1,61
 917 581 917 581 940.5 522.5 c 128,-1,62
 964 464 964 464 964 393 c 0,63,64
 964 316 964 316 939.5 244 c 128,-1,65
 915 172 915 172 864.5 114.5 c 128,-1,66
 814 57 814 57 738 19 c 128,-1,67
 662 -19 662 -19 560 -28 c 1,68,-1
 560 43 l 1,69,70
 611 49 611 49 652 73 c 128,-1,71
 693 97 693 97 721 133 c 128,-1,72
 749 169 749 169 764 215 c 128,-1,73
 779 261 779 261 779 311 c 0,74,75
 779 373 779 373 755 422 c 128,-1,76
 731 471 731 471 688 512 c 128,-1,77
 645 553 645 553 585 589 c 128,-1,78
 525 625 525 625 454 662 c 1,79,-1
 365 711 l 2,36,37
EndSplineSet
EndChar

StartChar: nine
Encoding: 57 57 25
Width: 1053
Flags: W
LayerCount: 2
Fore
SplineSet
441 -30 m 1,0,1
 378 -27 378 -27 323 -10 c 128,-1,2
 268 7 268 7 227.5 37.5 c 128,-1,3
 187 68 187 68 163.5 112 c 128,-1,4
 140 156 140 156 140 213 c 0,5,6
 140 283 140 283 171.5 317.5 c 128,-1,7
 203 352 203 352 252 352 c 0,8,9
 278 352 278 352 297 342 c 128,-1,10
 316 332 316 332 328.5 316 c 128,-1,11
 341 300 341 300 347 281.5 c 128,-1,12
 353 263 353 263 353 245 c 0,13,14
 353 226 353 226 347 210.5 c 128,-1,15
 341 195 341 195 333.5 182.5 c 128,-1,16
 326 170 326 170 317.5 159 c 128,-1,17
 309 148 309 148 305 137 c 1,18,19
 305 103 305 103 340 77 c 128,-1,20
 375 51 375 51 441 46 c 1,21,-1
 441 -30 l 1,0,1
640 571 m 1,22,23
 602 546 602 546 556.5 533 c 128,-1,24
 511 520 511 520 453 520 c 0,25,26
 387 520 387 520 321 550.5 c 128,-1,27
 255 581 255 581 203 637.5 c 128,-1,28
 151 694 151 694 118.5 774 c 128,-1,29
 86 854 86 854 86 954 c 0,30,31
 86 1058 86 1058 112 1146 c 128,-1,32
 138 1234 138 1234 187.5 1300 c 128,-1,33
 237 1366 237 1366 309 1405.5 c 128,-1,34
 381 1445 381 1445 473 1451 c 1,35,-1
 473 1376 l 1,36,37
 437 1368 437 1368 408.5 1343.5 c 128,-1,38
 380 1319 380 1319 360 1272.5 c 128,-1,39
 340 1226 340 1226 329 1153.5 c 128,-1,40
 318 1081 318 1081 318 977 c 0,41,42
 318 872 318 872 331.5 801 c 128,-1,43
 345 730 345 730 370 686.5 c 128,-1,44
 395 643 395 643 430.5 624.5 c 128,-1,45
 466 606 466 606 510 606 c 0,46,47
 548 606 548 606 581 619 c 128,-1,48
 614 632 614 632 640 653 c 1,49,-1
 640 571 l 1,22,23
723 807 m 0,50,51
 723 976 723 976 708.5 1083 c 128,-1,52
 694 1190 694 1190 671 1252 c 128,-1,53
 648 1314 648 1314 617.5 1340.5 c 128,-1,54
 587 1367 587 1367 556 1375 c 1,55,-1
 556 1449 l 1,56,57
 640 1439 640 1439 713 1395.5 c 128,-1,58
 786 1352 786 1352 840 1273 c 128,-1,59
 894 1194 894 1194 925 1078.5 c 128,-1,60
 956 963 956 963 956 809 c 0,61,62
 956 612 956 612 925 461 c 128,-1,63
 894 310 894 310 837 205.5 c 128,-1,64
 780 101 780 101 700.5 42.5 c 128,-1,65
 621 -16 621 -16 524 -28 c 1,66,-1
 524 54 l 1,67,68
 572 72 572 72 609 118.5 c 128,-1,69
 646 165 646 165 671.5 253 c 128,-1,70
 697 341 697 341 710 476.5 c 128,-1,71
 723 612 723 612 723 807 c 0,50,51
EndSplineSet
EndChar

StartChar: colon
Encoding: 58 58 26
Width: 528
Flags: W
LayerCount: 2
Fore
SplineSet
263 961 m 0,0,1
 292 961 292 961 317 950.5 c 128,-1,2
 342 940 342 940 360 922 c 128,-1,3
 378 904 378 904 388.5 879 c 128,-1,4
 399 854 399 854 399 825 c 256,5,6
 399 796 399 796 388.5 771.5 c 128,-1,7
 378 747 378 747 360 729.5 c 128,-1,8
 342 712 342 712 317 702 c 128,-1,9
 292 692 292 692 263 692 c 0,10,11
 235 692 235 692 210 702 c 128,-1,12
 185 712 185 712 166.5 729.5 c 128,-1,13
 148 747 148 747 137.5 771.5 c 128,-1,14
 127 796 127 796 127 825 c 256,15,16
 127 854 127 854 137.5 879 c 128,-1,17
 148 904 148 904 166.5 922 c 128,-1,18
 185 940 185 940 210 950.5 c 128,-1,19
 235 961 235 961 263 961 c 0,0,1
263 248 m 0,20,21
 292 248 292 248 317 237.5 c 128,-1,22
 342 227 342 227 360 209 c 128,-1,23
 378 191 378 191 388.5 166.5 c 128,-1,24
 399 142 399 142 399 113 c 256,25,26
 399 84 399 84 388.5 59.5 c 128,-1,27
 378 35 378 35 360 17.5 c 128,-1,28
 342 0 342 0 317 -10 c 128,-1,29
 292 -20 292 -20 263 -20 c 0,30,31
 235 -20 235 -20 210 -10 c 128,-1,32
 185 0 185 0 166.5 17.5 c 128,-1,33
 148 35 148 35 137.5 59.5 c 128,-1,34
 127 84 127 84 127 113 c 256,35,36
 127 142 127 142 137.5 166.5 c 128,-1,37
 148 191 148 191 166.5 209 c 128,-1,38
 185 227 185 227 210 237.5 c 128,-1,39
 235 248 235 248 263 248 c 0,20,21
EndSplineSet
EndChar

StartChar: semicolon
Encoding: 59 59 27
Width: 528
Flags: W
LayerCount: 2
Fore
SplineSet
147 -338 m 1,0,1
 188 -291 188 -291 217.5 -240 c 128,-1,2
 247 -189 247 -189 247 -124 c 0,3,4
 247 -97 247 -97 241.5 -67.5 c 128,-1,5
 236 -38 236 -38 223 -5 c 1,6,7
 183 6 183 6 156 36.5 c 128,-1,8
 129 67 129 67 129 115 c 0,9,10
 129 177 129 177 164 212.5 c 128,-1,11
 199 248 199 248 261 248 c 0,12,13
 292 248 292 248 320.5 236.5 c 128,-1,14
 349 225 349 225 370.5 199.5 c 128,-1,15
 392 174 392 174 404.5 134 c 128,-1,16
 417 94 417 94 417 37 c 0,17,18
 417 -69 417 -69 370.5 -175.5 c 128,-1,19
 324 -282 324 -282 231 -381 c 1,20,-1
 147 -338 l 1,0,1
263 961 m 0,21,22
 292 961 292 961 317 950.5 c 128,-1,23
 342 940 342 940 360 922 c 128,-1,24
 378 904 378 904 388.5 879 c 128,-1,25
 399 854 399 854 399 825 c 256,26,27
 399 796 399 796 388.5 771.5 c 128,-1,28
 378 747 378 747 360 729.5 c 128,-1,29
 342 712 342 712 317 702 c 128,-1,30
 292 692 292 692 263 692 c 0,31,32
 235 692 235 692 210 702 c 128,-1,33
 185 712 185 712 166.5 729.5 c 128,-1,34
 148 747 148 747 137.5 771.5 c 128,-1,35
 127 796 127 796 127 825 c 256,36,37
 127 854 127 854 137.5 879 c 128,-1,38
 148 904 148 904 166.5 922 c 128,-1,39
 185 940 185 940 210 950.5 c 128,-1,40
 235 961 235 961 263 961 c 0,21,22
EndSplineSet
EndChar

StartChar: less
Encoding: 60 60 28
Width: 1425
Flags: W
LayerCount: 2
Fore
SplineSet
143 416 m 1,0,-1
 143 559 l 1,1,-1
 1280 989 l 1,2,-1
 1280 848 l 1,3,-1
 143 416 l 1,0,-1
432 451 m 1,4,-1
 1280 133 l 1,5,-1
 1280 -8 l 1,6,-1
 247 380 l 1,7,-1
 432 451 l 1,4,-1
EndSplineSet
EndChar

StartChar: equal
Encoding: 61 61 29
Width: 1425
Flags: W
LayerCount: 2
Fore
SplineSet
1280 596 m 1,0,-1
 143 596 l 1,1,-1
 143 733 l 1,2,-1
 1280 733 l 1,3,-1
 1280 596 l 1,0,-1
1280 248 m 1,4,-1
 143 248 l 1,5,-1
 143 385 l 1,6,-1
 1280 385 l 1,7,-1
 1280 248 l 1,4,-1
EndSplineSet
EndChar

StartChar: greater
Encoding: 62 62 30
Width: 1425
Flags: W
LayerCount: 2
Fore
SplineSet
1280 565 m 1,0,-1
 1280 422 l 1,1,-1
 143 -8 l 1,2,-1
 143 133 l 1,3,-1
 1280 565 l 1,0,-1
991 530 m 1,4,-1
 143 848 l 1,5,-1
 143 989 l 1,6,-1
 1176 601 l 1,7,-1
 991 530 l 1,4,-1
EndSplineSet
EndChar

StartChar: question
Encoding: 63 63 31
Width: 924
Flags: W
LayerCount: 2
Fore
SplineSet
398 1365 m 1,0,1
 360 1365 360 1365 329 1354.5 c 128,-1,2
 298 1344 298 1344 276 1326.5 c 128,-1,3
 254 1309 254 1309 242 1286.5 c 128,-1,4
 230 1264 230 1264 229 1239 c 1,5,6
 291 1226 291 1226 326 1191 c 128,-1,7
 361 1156 361 1156 361 1110 c 0,8,9
 361 1056 361 1056 329 1024.5 c 128,-1,10
 297 993 297 993 240 993 c 0,11,12
 174 993 174 993 134.5 1033 c 128,-1,13
 95 1073 95 1073 95 1153 c 0,14,15
 95 1210 95 1210 116 1260 c 128,-1,16
 137 1310 137 1310 176 1349.5 c 128,-1,17
 215 1389 215 1389 271 1415 c 128,-1,18
 327 1441 327 1441 398 1449 c 1,19,-1
 398 1365 l 1,0,1
481 1452 m 1,20,21
 569 1449 569 1449 638 1419.5 c 128,-1,22
 707 1390 707 1390 754 1343.5 c 128,-1,23
 801 1297 801 1297 825.5 1238.5 c 128,-1,24
 850 1180 850 1180 850 1118 c 0,25,26
 850 1040 850 1040 821.5 985.5 c 128,-1,27
 793 931 793 931 750 888 c 128,-1,28
 707 845 707 845 656.5 807 c 128,-1,29
 606 769 606 769 563 725 c 128,-1,30
 520 681 520 681 491.5 625 c 128,-1,31
 463 569 463 569 463 489 c 2,32,-1
 463 403 l 1,33,-1
 368 403 l 1,34,-1
 368 510 l 2,35,36
 368 583 368 583 386 634 c 128,-1,37
 404 685 404 685 430.5 725.5 c 128,-1,38
 457 766 457 766 488 802.5 c 128,-1,39
 519 839 519 839 545.5 882.5 c 128,-1,40
 572 926 572 926 590 982 c 128,-1,41
 608 1038 608 1038 608 1118 c 0,42,43
 608 1213 608 1213 573 1270.5 c 128,-1,44
 538 1328 538 1328 481 1351 c 1,45,-1
 481 1452 l 1,20,21
428 240 m 0,46,47
 453 240 453 240 476.5 229.5 c 128,-1,48
 500 219 500 219 518 201 c 128,-1,49
 536 183 536 183 547 159.5 c 128,-1,50
 558 136 558 136 558 109 c 0,51,52
 558 81 558 81 548 57.5 c 128,-1,53
 538 34 538 34 520.5 16.5 c 128,-1,54
 503 -1 503 -1 479 -10.5 c 128,-1,55
 455 -20 455 -20 428 -20 c 0,56,57
 398 -20 398 -20 373.5 -10.5 c 128,-1,58
 349 -1 349 -1 331.5 16 c 128,-1,59
 314 33 314 33 304.5 56.5 c 128,-1,60
 295 80 295 80 295 109 c 0,61,62
 295 166 295 166 331.5 203 c 128,-1,63
 368 240 368 240 428 240 c 0,46,47
EndSplineSet
EndChar

StartChar: at
Encoding: 64 64 32
Width: 1899
Flags: W
LayerCount: 2
Fore
SplineSet
556 61 m 1,0,1
 635 62 635 62 700 70 c 128,-1,2
 765 78 765 78 822 91.5 c 128,-1,3
 879 105 879 105 930.5 124 c 128,-1,4
 982 143 982 143 1035 166 c 1,5,-1
 1065 92 l 1,6,7
 1008 70 1008 70 949.5 49 c 128,-1,8
 891 28 891 28 829 11.5 c 128,-1,9
 767 -5 767 -5 699.5 -16 c 128,-1,10
 632 -27 632 -27 556 -30 c 1,11,-1
 556 61 l 1,0,1
473 -30 m 1,12,13
 468 -30 468 -30 462.5 -30 c 128,-1,14
 457 -30 457 -30 452 -29 c 0,15,16
 322 -23 322 -23 209 9 c 128,-1,17
 96 41 96 41 2.5 92 c 128,-1,18
 -91 143 -91 143 -163.5 210 c 128,-1,19
 -236 277 -236 277 -286 353.5 c 128,-1,20
 -336 430 -336 430 -362 512.5 c 128,-1,21
 -388 595 -388 595 -388 678 c 0,22,23
 -388 847 -388 847 -324 986.5 c 128,-1,24
 -260 1126 -260 1126 -145.5 1227 c 128,-1,25
 -31 1328 -31 1328 127 1386.5 c 128,-1,26
 285 1445 285 1445 473 1451 c 1,27,-1
 473 1369 l 1,28,29
 341 1362 341 1362 223.5 1313.5 c 128,-1,30
 106 1265 106 1265 17.5 1176.5 c 128,-1,31
 -71 1088 -71 1088 -123 960.5 c 128,-1,32
 -175 833 -175 833 -175 668 c 0,33,34
 -175 555 -175 555 -128 450.5 c 128,-1,35
 -81 346 -81 346 4 263.5 c 128,-1,36
 89 181 89 181 208.5 127.5 c 128,-1,37
 328 74 328 74 473 63 c 1,38,-1
 473 -30 l 1,12,13
716 955 m 1,39,40
 701 974 701 974 678 984.5 c 128,-1,41
 655 995 655 995 623 995 c 0,42,43
 574 995 574 995 518 963 c 128,-1,44
 462 931 462 931 414 874 c 128,-1,45
 366 817 366 817 334.5 740 c 128,-1,46
 303 663 303 663 303 573 c 0,47,48
 303 490 303 490 339 446.5 c 128,-1,49
 375 403 375 403 438 403 c 0,50,51
 487 403 487 403 533.5 439.5 c 128,-1,52
 580 476 580 476 619.5 532 c 128,-1,53
 659 588 659 588 689.5 656 c 128,-1,54
 720 724 720 724 737 787 c 2,55,-1
 813 1067 l 1,56,-1
 987 1067 l 1,57,-1
 833 551 l 2,58,59
 826 528 826 528 822 509 c 128,-1,60
 818 490 818 490 818 467 c 0,61,62
 818 452 818 452 822.5 438 c 128,-1,63
 827 424 827 424 838 413 c 128,-1,64
 849 402 849 402 866.5 395.5 c 128,-1,65
 884 389 884 389 911 389 c 0,66,67
 982 389 982 389 1039.5 429.5 c 128,-1,68
 1097 470 1097 470 1137.5 533 c 128,-1,69
 1178 596 1178 596 1199.5 671.5 c 128,-1,70
 1221 747 1221 747 1221 817 c 0,71,72
 1221 886 1221 886 1198.5 952.5 c 128,-1,73
 1176 1019 1176 1019 1134.5 1079 c 128,-1,74
 1093 1139 1093 1139 1033.5 1190.5 c 128,-1,75
 974 1242 974 1242 900.5 1280 c 128,-1,76
 827 1318 827 1318 740 1341.5 c 128,-1,77
 653 1365 653 1365 556 1369 c 1,78,-1
 556 1451 l 1,79,80
 721 1446 721 1446 863.5 1396 c 128,-1,81
 1006 1346 1006 1346 1111 1262 c 128,-1,82
 1216 1178 1216 1178 1276 1064.5 c 128,-1,83
 1336 951 1336 951 1336 819 c 0,84,85
 1336 764 1336 764 1322.5 705 c 128,-1,86
 1309 646 1309 646 1282 589 c 128,-1,87
 1255 532 1255 532 1215.5 481 c 128,-1,88
 1176 430 1176 430 1124.5 391 c 128,-1,89
 1073 352 1073 352 1009.5 329.5 c 128,-1,90
 946 307 946 307 872 307 c 0,91,92
 781 307 781 307 724 346 c 128,-1,93
 667 385 667 385 655 446 c 1,94,-1
 650 446 l 1,95,96
 620 417 620 417 589 391.5 c 128,-1,97
 558 366 558 366 523.5 347.5 c 128,-1,98
 489 329 489 329 450.5 318 c 128,-1,99
 412 307 412 307 367 307 c 0,100,101
 311 307 311 307 265.5 323 c 128,-1,102
 220 339 220 339 187.5 372 c 128,-1,103
 155 405 155 405 137.5 455.5 c 128,-1,104
 120 506 120 506 120 575 c 0,105,106
 120 633 120 633 136.5 694 c 128,-1,107
 153 755 153 755 183 812.5 c 128,-1,108
 213 870 213 870 256 920.5 c 128,-1,109
 299 971 299 971 352 1009.5 c 128,-1,110
 405 1048 405 1048 467 1070 c 128,-1,111
 529 1092 529 1092 598 1092 c 0,112,113
 642 1092 642 1092 677.5 1079.5 c 128,-1,114
 713 1067 713 1067 739 1044 c 1,115,-1
 716 955 l 1,39,40
EndSplineSet
EndChar

StartChar: A
Encoding: 65 65 33
Width: 1254
Flags: W
LayerCount: 2
Fore
SplineSet
711 451 m 1,0,-1
 407 451 l 1,1,-1
 432 543 l 1,2,-1
 681 543 l 1,3,-1
 711 451 l 1,0,-1
513 1003 m 1,4,-1
 278 301 l 2,5,6
 263 255 263 255 256 219 c 128,-1,7
 249 183 249 183 249 156 c 0,8,9
 249 123 249 123 262 109 c 128,-1,10
 275 95 275 95 296 89 c 128,-1,11
 317 83 317 83 344 79 c 128,-1,12
 371 75 371 75 399 61 c 1,13,-1
 399 0 l 1,14,-1
 -36 0 l 1,15,-1
 -36 61 l 1,16,17
 -15 73 -15 73 8 80 c 128,-1,18
 31 87 31 87 51.5 96 c 128,-1,19
 72 105 72 105 89 119.5 c 128,-1,20
 106 134 106 134 115 162 c 2,21,-1
 453 1165 l 1,22,-1
 513 1003 l 1,4,-1
488 1267 m 1,23,24
 468 1274 468 1274 454.5 1281 c 128,-1,25
 441 1288 441 1288 432 1293 c 0,26,27
 421 1299 421 1299 415 1305 c 1,28,29
 417 1326 417 1326 421 1346 c 0,30,31
 424 1363 424 1363 427.5 1381.5 c 128,-1,32
 431 1400 431 1400 435 1412 c 1,33,34
 492 1424 492 1424 529.5 1431.5 c 128,-1,35
 567 1439 567 1439 592 1443.5 c 128,-1,36
 617 1448 617 1448 631 1450 c 128,-1,37
 645 1452 645 1452 655 1452 c 1,38,39
 670 1440 670 1440 678.5 1423.5 c 128,-1,40
 687 1407 687 1407 694 1389 c 2,41,-1
 1133 178 l 2,42,43
 1146 142 1146 142 1162.5 124 c 128,-1,44
 1179 106 1179 106 1199 96 c 128,-1,45
 1219 86 1219 86 1241.5 79.5 c 128,-1,46
 1264 73 1264 73 1289 61 c 1,47,-1
 1289 0 l 1,48,-1
 748 0 l 1,49,-1
 748 61 l 1,50,51
 771 72 771 72 796 76.5 c 128,-1,52
 821 81 821 81 841.5 86 c 128,-1,53
 862 91 862 91 875 100.5 c 128,-1,54
 888 110 888 110 888 131 c 0,55,56
 888 145 888 145 881 170 c 128,-1,57
 874 195 874 195 858.5 240 c 128,-1,58
 843 285 843 285 817.5 355 c 128,-1,59
 792 425 792 425 755 528.5 c 128,-1,60
 718 632 718 632 668 774 c 128,-1,61
 618 916 618 916 553 1106 c 1,62,-1
 488 1267 l 1,23,24
EndSplineSet
Substitution2: "'sups' Superscript in Latin lookup 5 subtable" ordfeminine
Substitution2: "'aalt' Access All Alternates in Latin lookup 0 subtable" ordfeminine
EndChar

StartChar: B
Encoding: 66 66 34
Width: 1341
Flags: W
LayerCount: 2
Fore
SplineSet
556 1421 m 1,0,-1
 660 1421 l 2,1,2
 797 1421 797 1421 895 1395 c 128,-1,3
 993 1369 993 1369 1056 1322.5 c 128,-1,4
 1119 1276 1119 1276 1148.5 1212 c 128,-1,5
 1178 1148 1178 1148 1178 1071 c 0,6,7
 1178 1006 1178 1006 1153.5 952 c 128,-1,8
 1129 898 1129 898 1084 857 c 128,-1,9
 1039 816 1039 816 975 789.5 c 128,-1,10
 911 763 911 763 832 754 c 1,11,-1
 832 750 l 1,12,13
 920 738 920 738 996.5 712 c 128,-1,14
 1073 686 1073 686 1129.5 642.5 c 128,-1,15
 1186 599 1186 599 1218.5 536.5 c 128,-1,16
 1251 474 1251 474 1251 389 c 0,17,18
 1251 307 1251 307 1222 236 c 128,-1,19
 1193 165 1193 165 1132 112.5 c 128,-1,20
 1071 60 1071 60 976.5 30 c 128,-1,21
 882 0 882 0 751 0 c 2,22,-1
 556 0 l 1,23,-1
 556 88 l 1,24,25
 574 83 574 83 597 82.5 c 128,-1,26
 620 82 620 82 646 82 c 0,27,28
 819 82 819 82 900 152 c 128,-1,29
 981 222 981 222 981 377 c 256,30,31
 981 532 981 532 893.5 615 c 128,-1,32
 806 698 806 698 628 698 c 2,33,-1
 556 698 l 1,34,-1
 556 786 l 1,35,-1
 594 786 l 2,36,37
 749 786 749 786 828 856.5 c 128,-1,38
 907 927 907 927 907 1069 c 0,39,40
 907 1202 907 1202 837 1270.5 c 128,-1,41
 767 1339 767 1339 628 1339 c 0,42,43
 608 1339 608 1339 589 1337.5 c 128,-1,44
 570 1336 570 1336 556 1332 c 1,45,-1
 556 1421 l 1,0,-1
473 0 m 1,46,-1
 84 0 l 1,47,-1
 84 59 l 1,48,49
 111 71 111 71 136.5 78 c 128,-1,50
 162 85 162 85 181.5 96 c 128,-1,51
 201 107 201 107 212.5 126.5 c 128,-1,52
 224 146 224 146 224 184 c 2,53,-1
 224 1237 l 2,54,55
 224 1274 224 1274 212.5 1294 c 128,-1,56
 201 1314 201 1314 181.5 1325 c 128,-1,57
 162 1336 162 1336 136.5 1343 c 128,-1,58
 111 1350 111 1350 84 1362 c 1,59,-1
 84 1421 l 1,60,-1
 473 1421 l 1,61,-1
 473 0 l 1,46,-1
EndSplineSet
EndChar

StartChar: C
Encoding: 67 67 35
Width: 1321
Flags: W
LayerCount: 2
Fore
SplineSet
771 1449 m 1,0,1
 834 1443 834 1443 880.5 1427 c 128,-1,2
 927 1411 927 1411 959.5 1394.5 c 128,-1,3
 992 1378 992 1378 1013 1365 c 128,-1,4
 1034 1352 1034 1352 1047 1352 c 0,5,6
 1067 1352 1067 1352 1081 1366 c 128,-1,7
 1095 1380 1095 1380 1106 1405 c 1,8,-1
 1194 1405 l 1,9,-1
 1194 905 l 1,10,-1
 1126 905 l 1,11,12
 1097 933 1097 933 1078 976 c 128,-1,13
 1059 1019 1059 1019 1041.5 1067.5 c 128,-1,14
 1024 1116 1024 1116 1004 1166 c 128,-1,15
 984 1216 984 1216 954.5 1257.5 c 128,-1,16
 925 1299 925 1299 881 1328.5 c 128,-1,17
 837 1358 837 1358 771 1367 c 1,18,-1
 771 1449 l 1,0,1
771 65 m 1,19,20
 839 65 839 65 898.5 88 c 128,-1,21
 958 111 958 111 1005 160 c 128,-1,22
 1052 209 1052 209 1084 285 c 128,-1,23
 1116 361 1116 361 1130 467 c 1,24,-1
 1225 444 l 1,25,26
 1194 211 1194 211 1082 95.5 c 128,-1,27
 970 -20 970 -20 771 -30 c 1,28,-1
 771 65 l 1,19,20
688 -30 m 1,29,30
 554 -23 554 -23 443 32 c 128,-1,31
 332 87 332 87 252.5 183 c 128,-1,32
 173 279 173 279 129.5 413 c 128,-1,33
 86 547 86 547 86 711 c 0,34,35
 86 871 86 871 131.5 1005.5 c 128,-1,36
 177 1140 177 1140 257.5 1238 c 128,-1,37
 338 1336 338 1336 448.5 1392 c 128,-1,38
 559 1448 559 1448 688 1452 c 1,39,-1
 688 1368 l 1,40,41
 626 1362 626 1362 568 1326.5 c 128,-1,42
 510 1291 510 1291 465.5 1214 c 128,-1,43
 421 1137 421 1137 394 1013 c 128,-1,44
 367 889 367 889 367 705 c 0,45,46
 367 542 367 542 394 427 c 128,-1,47
 421 312 421 312 465.5 237 c 128,-1,48
 510 162 510 162 568 122.5 c 128,-1,49
 626 83 626 83 688 71 c 1,50,-1
 688 -30 l 1,29,30
EndSplineSet
EndChar

StartChar: D
Encoding: 68 68 36
Width: 1451
Flags: W
LayerCount: 2
Fore
SplineSet
572 81 m 1,0,1
 588 79 588 79 606.5 77.5 c 128,-1,2
 625 76 625 76 646 76 c 0,3,4
 748 76 748 76 826.5 106.5 c 128,-1,5
 905 137 905 137 959 210.5 c 128,-1,6
 1013 284 1013 284 1041 406 c 128,-1,7
 1069 528 1069 528 1069 711 c 256,8,9
 1069 894 1069 894 1041 1016 c 128,-1,10
 1013 1138 1013 1138 959 1211.5 c 128,-1,11
 905 1285 905 1285 826.5 1315.5 c 128,-1,12
 748 1346 748 1346 646 1346 c 0,13,14
 626 1346 626 1346 607 1345 c 128,-1,15
 588 1344 588 1344 572 1341 c 1,16,-1
 572 1421 l 1,17,-1
 670 1421 l 2,18,19
 833 1421 833 1421 959.5 1369 c 128,-1,20
 1086 1317 1086 1317 1173 1223 c 128,-1,21
 1260 1129 1260 1129 1305.5 998.5 c 128,-1,22
 1351 868 1351 868 1351 711 c 0,23,24
 1351 553 1351 553 1305.5 422.5 c 128,-1,25
 1260 292 1260 292 1173 198 c 128,-1,26
 1086 104 1086 104 959.5 52 c 128,-1,27
 833 0 833 0 670 0 c 2,28,-1
 572 0 l 1,29,-1
 572 81 l 1,0,1
489 0 m 1,30,-1
 84 0 l 1,31,-1
 84 59 l 1,32,33
 111 71 111 71 136.5 78 c 128,-1,34
 162 85 162 85 181.5 96 c 128,-1,35
 201 107 201 107 212.5 126.5 c 128,-1,36
 224 146 224 146 224 184 c 2,37,-1
 224 1237 l 2,38,39
 224 1274 224 1274 212.5 1294 c 128,-1,40
 201 1314 201 1314 181.5 1325 c 128,-1,41
 162 1336 162 1336 136.5 1343 c 128,-1,42
 111 1350 111 1350 84 1362 c 1,43,-1
 84 1421 l 1,44,-1
 489 1421 l 1,45,-1
 489 0 l 1,30,-1
EndSplineSet
EndChar

StartChar: E
Encoding: 69 69 37
Width: 1253
Flags: W
LayerCount: 2
Fore
SplineSet
84 0 m 1,0,-1
 84 59 l 1,1,2
 102 71 102 71 123 76 c 128,-1,3
 144 81 144 81 163.5 87.5 c 128,-1,4
 183 94 183 94 197.5 106 c 128,-1,5
 212 118 212 118 216 143 c 0,6,7
 219 163 219 163 221.5 186 c 128,-1,8
 224 209 224 209 224 233 c 2,9,-1
 224 1186 l 2,10,11
 224 1212 224 1212 221.5 1235 c 128,-1,12
 219 1258 219 1258 216 1278 c 0,13,14
 212 1302 212 1302 197.5 1313.5 c 128,-1,15
 183 1325 183 1325 163.5 1332 c 128,-1,16
 144 1339 144 1339 123 1344.5 c 128,-1,17
 102 1350 102 1350 84 1362 c 1,18,-1
 84 1421 l 1,19,-1
 473 1421 l 1,20,-1
 473 0 l 1,21,-1
 84 0 l 1,0,-1
556 82 m 1,22,23
 561 82 561 82 565.5 81.5 c 128,-1,24
 570 81 570 81 575 81 c 0,25,26
 685 81 685 81 762.5 91 c 128,-1,27
 840 101 840 101 893.5 128 c 128,-1,28
 947 155 947 155 980 203 c 128,-1,29
 1013 251 1013 251 1034 326 c 0,30,31
 1043 357 1043 357 1049.5 382.5 c 128,-1,32
 1056 408 1056 408 1063.5 429 c 128,-1,33
 1071 450 1071 450 1081 467.5 c 128,-1,34
 1091 485 1091 485 1106 500 c 1,35,-1
 1171 500 l 1,36,-1
 1171 0 l 1,37,-1
 556 0 l 1,38,-1
 556 82 l 1,22,23
556 1421 m 1,39,-1
 926 1421 l 2,40,41
 982 1421 982 1421 1031 1426 c 128,-1,42
 1080 1431 1080 1431 1126 1436 c 1,43,-1
 1126 946 l 1,44,-1
 1056 946 l 1,45,46
 1021 991 1021 991 1002 1047 c 128,-1,47
 983 1103 983 1103 959 1167 c 0,48,49
 943 1209 943 1209 923 1241 c 128,-1,50
 903 1273 903 1273 873 1295 c 128,-1,51
 843 1317 843 1317 800 1328 c 128,-1,52
 757 1339 757 1339 694 1339 c 0,53,54
 608 1339 608 1339 556 1324 c 1,55,-1
 556 1421 l 1,39,-1
556 846 m 1,56,-1
 848 846 l 1,57,-1
 848 658 l 1,58,-1
 556 658 l 1,59,-1
 556 846 l 1,56,-1
EndSplineSet
EndChar

StartChar: F
Encoding: 70 70 38
Width: 1142
Flags: W
LayerCount: 2
Fore
SplineSet
556 1421 m 1,0,-1
 893 1421 l 2,1,2
 953 1421 953 1421 1004.5 1426 c 128,-1,3
 1056 1431 1056 1431 1104 1436 c 1,4,-1
 1104 946 l 1,5,-1
 1038 946 l 1,6,7
 1022 963 1022 963 1011 983.5 c 128,-1,8
 1000 1004 1000 1004 991.5 1028 c 128,-1,9
 983 1052 983 1052 975.5 1078.5 c 128,-1,10
 968 1105 968 1105 959 1135 c 0,11,12
 944 1182 944 1182 923.5 1219 c 128,-1,13
 903 1256 903 1256 871 1281.5 c 128,-1,14
 839 1307 839 1307 792 1320 c 128,-1,15
 745 1333 745 1333 677 1333 c 0,16,17
 642 1333 642 1333 611.5 1331.5 c 128,-1,18
 581 1330 581 1330 556 1325 c 1,19,-1
 556 1421 l 1,0,-1
473 227 m 2,20,21
 473 204 473 204 474 183.5 c 128,-1,22
 475 163 475 163 479 143 c 0,23,24
 483 118 483 118 499 106.5 c 128,-1,25
 515 95 515 95 537 88 c 128,-1,26
 559 81 559 81 585 76 c 128,-1,27
 611 71 611 71 635 59 c 1,28,-1
 635 0 l 1,29,-1
 84 0 l 1,30,-1
 84 59 l 1,31,32
 102 71 102 71 123 76 c 128,-1,33
 144 81 144 81 163.5 87.5 c 128,-1,34
 183 94 183 94 197.5 106 c 128,-1,35
 212 118 212 118 216 143 c 0,36,37
 219 163 219 163 221.5 186 c 128,-1,38
 224 209 224 209 224 233 c 2,39,-1
 224 1186 l 2,40,41
 224 1212 224 1212 221.5 1235 c 128,-1,42
 219 1258 219 1258 216 1278 c 0,43,44
 212 1302 212 1302 197.5 1313.5 c 128,-1,45
 183 1325 183 1325 163.5 1332 c 128,-1,46
 144 1339 144 1339 123 1344.5 c 128,-1,47
 102 1350 102 1350 84 1362 c 1,48,-1
 84 1421 l 1,49,-1
 473 1421 l 1,50,-1
 473 227 l 2,20,21
556 834 m 1,51,-1
 848 834 l 1,52,-1
 848 646 l 1,53,-1
 556 646 l 1,54,-1
 556 834 l 1,51,-1
EndSplineSet
EndChar

StartChar: G
Encoding: 71 71 39
Width: 1363
Flags: W
LayerCount: 2
Fore
SplineSet
735 1451 m 1,0,1
 793 1447 793 1447 840.5 1431.5 c 128,-1,2
 888 1416 888 1416 924 1399.5 c 128,-1,3
 960 1383 960 1383 985 1369.5 c 128,-1,4
 1010 1356 1010 1356 1024 1356 c 0,5,6
 1044 1356 1044 1356 1056 1370 c 128,-1,7
 1068 1384 1068 1384 1076 1409 c 1,8,-1
 1161 1409 l 1,9,-1
 1161 911 l 1,10,-1
 1094 911 l 1,11,12
 1063 950 1063 950 1044 997.5 c 128,-1,13
 1025 1045 1025 1045 1008.5 1094.5 c 128,-1,14
 992 1144 992 1144 973.5 1191 c 128,-1,15
 955 1238 955 1238 925 1275.5 c 128,-1,16
 895 1313 895 1313 850 1337.5 c 128,-1,17
 805 1362 805 1362 735 1366 c 1,18,-1
 735 1451 l 1,0,1
735 52 m 1,19,20
 793 55 793 55 832.5 77.5 c 128,-1,21
 872 100 872 100 896 142 c 128,-1,22
 920 184 920 184 930.5 246 c 128,-1,23
 941 308 941 308 941 391 c 0,24,25
 941 433 941 433 939.5 467 c 128,-1,26
 938 501 938 501 933 530 c 0,27,28
 929 558 929 558 912 572.5 c 128,-1,29
 895 587 895 587 871.5 595.5 c 128,-1,30
 848 604 848 604 821 609 c 128,-1,31
 794 614 794 614 770 623 c 1,32,-1
 770 690 l 1,33,-1
 1294 690 l 1,34,35
 1289 654 1289 654 1272.5 633 c 128,-1,36
 1256 612 1256 612 1237.5 591.5 c 128,-1,37
 1219 571 1219 571 1204.5 543.5 c 128,-1,38
 1190 516 1190 516 1190 467 c 2,39,-1
 1190 242 l 2,40,41
 1190 194 1190 194 1198 154.5 c 128,-1,42
 1206 115 1206 115 1223 78 c 1,43,-1
 1185 55 l 1,44,45
 1147 44 1147 44 1075 34.5 c 128,-1,46
 1003 25 1003 25 895 25 c 0,47,48
 887 25 887 25 872 20 c 128,-1,49
 857 15 857 15 836 7.5 c 128,-1,50
 815 0 815 0 789 -7.5 c 128,-1,51
 763 -15 763 -15 735 -20 c 1,52,-1
 735 52 l 1,19,20
652 -25 m 1,53,54
 523 -25 523 -25 418.5 27.5 c 128,-1,55
 314 80 314 80 240.5 176.5 c 128,-1,56
 167 273 167 273 127.5 409 c 128,-1,57
 88 545 88 545 88 711 c 0,58,59
 88 859 88 859 129 989 c 128,-1,60
 170 1119 170 1119 244.5 1218 c 128,-1,61
 319 1317 319 1317 422.5 1378.5 c 128,-1,62
 526 1440 526 1440 652 1450 c 1,63,-1
 652 1361 l 1,64,65
 592 1349 592 1349 540.5 1308.5 c 128,-1,66
 489 1268 489 1268 451 1190 c 128,-1,67
 413 1112 413 1112 391.5 993 c 128,-1,68
 370 874 370 874 370 705 c 0,69,70
 370 524 370 524 392 404 c 128,-1,71
 414 284 414 284 452 209.5 c 128,-1,72
 490 135 490 135 541.5 100.5 c 128,-1,73
 593 66 593 66 652 56 c 1,74,-1
 652 -25 l 1,53,54
EndSplineSet
EndChar

StartChar: H
Encoding: 72 72 40
Width: 1450
Flags: W
LayerCount: 2
Fore
SplineSet
983 1200 m 2,0,1
 983 1241 983 1241 977.5 1265.5 c 128,-1,2
 972 1290 972 1290 962.5 1303.5 c 128,-1,3
 953 1317 953 1317 940 1323 c 128,-1,4
 927 1329 927 1329 911.5 1333.5 c 128,-1,5
 896 1338 896 1338 878.5 1343.5 c 128,-1,6
 861 1349 861 1349 843 1362 c 1,7,-1
 843 1421 l 1,8,-1
 1368 1421 l 1,9,-1
 1368 1362 l 1,10,11
 1341 1350 1341 1350 1316.5 1343 c 128,-1,12
 1292 1336 1292 1336 1273 1325 c 128,-1,13
 1254 1314 1254 1314 1243 1294 c 128,-1,14
 1232 1274 1232 1274 1232 1237 c 2,15,-1
 1232 184 l 2,16,17
 1232 146 1232 146 1243 126.5 c 128,-1,18
 1254 107 1254 107 1273 96 c 128,-1,19
 1292 85 1292 85 1316.5 78 c 128,-1,20
 1341 71 1341 71 1368 59 c 1,21,-1
 1368 0 l 1,22,-1
 843 0 l 1,23,-1
 843 59 l 1,24,25
 861 71 861 71 882.5 76 c 128,-1,26
 904 81 904 81 923.5 87.5 c 128,-1,27
 943 94 943 94 957.5 106 c 128,-1,28
 972 118 972 118 976 143 c 0,29,30
 979 163 979 163 981 186.5 c 128,-1,31
 983 210 983 210 983 236 c 2,32,-1
 983 1200 l 2,0,1
465 227 m 2,33,34
 465 184 465 184 470 158.5 c 128,-1,35
 475 133 475 133 484.5 118 c 128,-1,36
 494 103 494 103 507 96.5 c 128,-1,37
 520 90 520 90 535.5 85.5 c 128,-1,38
 551 81 551 81 568.5 76 c 128,-1,39
 586 71 586 71 605 59 c 1,40,-1
 605 0 l 1,41,-1
 81 0 l 1,42,-1
 81 59 l 1,43,44
 108 71 108 71 132 78 c 128,-1,45
 156 85 156 85 175 96 c 128,-1,46
 194 107 194 107 205 126.5 c 128,-1,47
 216 146 216 146 216 184 c 2,48,-1
 216 1237 l 2,49,50
 216 1274 216 1274 205 1294 c 128,-1,51
 194 1314 194 1314 175 1325 c 128,-1,52
 156 1336 156 1336 132 1343 c 128,-1,53
 108 1350 108 1350 81 1362 c 1,54,-1
 81 1421 l 1,55,-1
 605 1421 l 1,56,-1
 605 1362 l 1,57,58
 586 1350 586 1350 564.5 1344.5 c 128,-1,59
 543 1339 543 1339 524 1332 c 128,-1,60
 505 1325 505 1325 491 1313.5 c 128,-1,61
 477 1302 477 1302 473 1278 c 0,62,63
 469 1258 469 1258 467 1236.5 c 128,-1,64
 465 1215 465 1215 465 1190 c 2,65,-1
 465 227 l 2,33,34
900 694 m 1,66,-1
 548 694 l 1,67,-1
 548 786 l 1,68,-1
 900 786 l 1,69,-1
 900 694 l 1,66,-1
EndSplineSet
EndChar

StartChar: I
Encoding: 73 73 41
Width: 725
Flags: W
LayerCount: 2
Fore
SplineSet
630 1421 m 1,0,-1
 630 1362 l 1,1,2
 601 1350 601 1350 575 1343 c 128,-1,3
 549 1336 549 1336 529.5 1325 c 128,-1,4
 510 1314 510 1314 498.5 1294 c 128,-1,5
 487 1274 487 1274 487 1237 c 2,6,-1
 487 184 l 2,7,8
 487 146 487 146 498.5 126.5 c 128,-1,9
 510 107 510 107 530 96 c 128,-1,10
 550 85 550 85 576 78 c 128,-1,11
 602 71 602 71 632 59 c 1,12,-1
 632 0 l 1,13,-1
 93 0 l 1,14,-1
 93 59 l 1,15,16
 122 71 122 71 148 78 c 128,-1,17
 174 85 174 85 194 96 c 128,-1,18
 214 107 214 107 226 126.5 c 128,-1,19
 238 146 238 146 238 184 c 2,20,-1
 238 1237 l 2,21,22
 238 1274 238 1274 226 1294 c 128,-1,23
 214 1314 214 1314 194 1325 c 128,-1,24
 174 1336 174 1336 148 1343 c 128,-1,25
 122 1350 122 1350 93 1362 c 1,26,-1
 93 1421 l 1,27,-1
 630 1421 l 1,0,-1
EndSplineSet
EndChar

StartChar: J
Encoding: 74 74 42
Width: 966
Flags: W
LayerCount: 2
Fore
SplineSet
323 -30 m 1,0,1
 247 -27 247 -27 190.5 -6 c 128,-1,2
 134 15 134 15 96.5 48 c 128,-1,3
 59 81 59 81 40 125 c 128,-1,4
 21 169 21 169 21 219 c 0,5,6
 21 300 21 300 60.5 341.5 c 128,-1,7
 100 383 100 383 163 383 c 0,8,9
 223 383 223 383 256.5 349.5 c 128,-1,10
 290 316 290 316 290 260 c 0,11,12
 290 228 290 228 281 208 c 128,-1,13
 272 188 272 188 258 175.5 c 128,-1,14
 244 163 244 163 227 156 c 128,-1,15
 210 149 210 149 195 143 c 1,16,17
 197 105 197 105 231 78 c 128,-1,18
 265 51 265 51 323 46 c 1,19,-1
 323 -30 l 1,0,1
406 52 m 1,20,21
 458 66 458 66 479 110.5 c 128,-1,22
 500 155 500 155 500 238 c 2,23,-1
 500 1171 l 2,24,25
 500 1200 500 1200 499.5 1227.5 c 128,-1,26
 499 1255 499 1255 494 1278 c 0,27,28
 489 1303 489 1303 473 1315 c 128,-1,29
 457 1327 457 1327 434.5 1333 c 128,-1,30
 412 1339 412 1339 386.5 1344.5 c 128,-1,31
 361 1350 361 1350 337 1362 c 1,32,-1
 337 1421 l 1,33,-1
 888 1421 l 1,34,-1
 888 1362 l 1,35,36
 862 1350 862 1350 837.5 1343 c 128,-1,37
 813 1336 813 1336 793.5 1326 c 128,-1,38
 774 1316 774 1316 762 1297.5 c 128,-1,39
 750 1279 750 1279 750 1243 c 2,40,-1
 750 350 l 2,41,42
 750 166 750 166 664 74.5 c 128,-1,43
 578 -17 578 -17 406 -29 c 1,44,-1
 406 52 l 1,20,21
EndSplineSet
EndChar

StartChar: K
Encoding: 75 75 43
Width: 1341
Flags: W
LayerCount: 2
Fore
SplineSet
556 808 m 1,0,-1
 869 1184 l 1,1,2
 883 1198 883 1198 897.5 1212.5 c 128,-1,3
 912 1227 912 1227 923.5 1241.5 c 128,-1,4
 935 1256 935 1256 942.5 1268.5 c 128,-1,5
 950 1281 950 1281 950 1292 c 0,6,7
 950 1311 950 1311 937 1319.5 c 128,-1,8
 924 1328 924 1328 903.5 1333.5 c 128,-1,9
 883 1339 883 1339 858.5 1343.5 c 128,-1,10
 834 1348 834 1348 812 1360 c 1,11,-1
 812 1421 l 1,12,-1
 1303 1421 l 1,13,-1
 1303 1360 l 1,14,15
 1288 1348 1288 1348 1265.5 1341.5 c 128,-1,16
 1243 1335 1243 1335 1214.5 1326 c 128,-1,17
 1186 1317 1186 1317 1153 1300 c 128,-1,18
 1120 1283 1120 1283 1085 1249 c 1,19,-1
 760 864 l 1,20,-1
 1204 172 l 1,21,22
 1224 137 1224 137 1245.5 120 c 128,-1,23
 1267 103 1267 103 1289 94 c 128,-1,24
 1311 85 1311 85 1332.5 79 c 128,-1,25
 1354 73 1354 73 1375 61 c 1,26,-1
 1375 0 l 1,27,-1
 814 0 l 1,28,-1
 814 61 l 1,29,30
 831 73 831 73 853 78.5 c 128,-1,31
 875 84 875 84 895 90 c 128,-1,32
 915 96 915 96 929 105.5 c 128,-1,33
 943 115 943 115 943 133 c 0,34,35
 943 153 943 153 930 175.5 c 128,-1,36
 917 198 917 198 895 236 c 1,37,-1
 587 704 l 1,38,-1
 556 757 l 1,39,-1
 556 808 l 1,0,-1
473 223 m 2,40,41
 473 200 473 200 474 180 c 128,-1,42
 475 160 475 160 478 143 c 0,43,44
 482 118 482 118 496.5 106 c 128,-1,45
 511 94 511 94 530.5 87.5 c 128,-1,46
 550 81 550 81 572 76 c 128,-1,47
 594 71 594 71 612 59 c 1,48,-1
 612 0 l 1,49,-1
 84 0 l 1,50,-1
 84 59 l 1,51,52
 111 71 111 71 136.5 78 c 128,-1,53
 162 85 162 85 181.5 96 c 128,-1,54
 201 107 201 107 212.5 126.5 c 128,-1,55
 224 146 224 146 224 184 c 2,56,-1
 224 1194 l 2,57,58
 224 1237 224 1237 219 1262.5 c 128,-1,59
 214 1288 214 1288 204.5 1302.5 c 128,-1,60
 195 1317 195 1317 182 1323 c 128,-1,61
 169 1329 169 1329 153.5 1333.5 c 128,-1,62
 138 1338 138 1338 120 1343.5 c 128,-1,63
 102 1349 102 1349 84 1362 c 1,64,-1
 84 1421 l 1,65,-1
 612 1421 l 1,66,-1
 612 1362 l 1,67,68
 594 1350 594 1350 572 1344.5 c 128,-1,69
 550 1339 550 1339 530.5 1332 c 128,-1,70
 511 1325 511 1325 496.5 1313.5 c 128,-1,71
 482 1302 482 1302 478 1278 c 0,72,73
 475 1259 475 1259 474 1239 c 128,-1,74
 473 1219 473 1219 473 1196 c 2,75,-1
 473 223 l 2,40,41
EndSplineSet
EndChar

StartChar: L
Encoding: 76 76 44
Width: 1142
Flags: W
LayerCount: 2
Fore
SplineSet
90 0 m 1,0,-1
 90 59 l 1,1,2
 108 71 108 71 129.5 76 c 128,-1,3
 151 81 151 81 170.5 87.5 c 128,-1,4
 190 94 190 94 204.5 106 c 128,-1,5
 219 118 219 118 223 143 c 0,6,7
 227 166 227 166 228.5 191.5 c 128,-1,8
 230 217 230 217 230 246 c 2,9,-1
 230 1176 l 2,10,11
 230 1203 230 1203 228.5 1229 c 128,-1,12
 227 1255 227 1255 223 1278 c 0,13,14
 219 1302 219 1302 204.5 1313.5 c 128,-1,15
 190 1325 190 1325 170.5 1332 c 128,-1,16
 151 1339 151 1339 129.5 1344.5 c 128,-1,17
 108 1350 108 1350 90 1362 c 1,18,-1
 90 1421 l 1,19,-1
 627 1421 l 1,20,-1
 627 1362 l 1,21,22
 606 1350 606 1350 583 1344.5 c 128,-1,23
 560 1339 560 1339 539.5 1332 c 128,-1,24
 519 1325 519 1325 504.5 1313.5 c 128,-1,25
 490 1302 490 1302 487 1278 c 1,26,27
 483 1255 483 1255 481.5 1230 c 128,-1,28
 480 1205 480 1205 480 1178 c 2,29,-1
 480 0 l 1,30,-1
 90 0 l 1,0,-1
563 83 m 1,31,32
 578 82 578 82 594 82 c 128,-1,33
 610 82 610 82 627 82 c 0,34,35
 689 82 689 82 739 93.5 c 128,-1,36
 789 105 789 105 828.5 131.5 c 128,-1,37
 868 158 868 158 897.5 200.5 c 128,-1,38
 927 243 927 243 949 305 c 0,39,40
 960 337 960 337 968.5 365 c 128,-1,41
 977 393 977 393 986 418 c 128,-1,42
 995 443 995 443 1006 465 c 128,-1,43
 1017 487 1017 487 1033 508 c 1,44,-1
 1096 508 l 1,45,-1
 1096 0 l 1,46,-1
 563 0 l 1,47,-1
 563 83 l 1,31,32
EndSplineSet
EndChar

StartChar: M
Encoding: 77 77 45
Width: 1715
Flags: W
LayerCount: 2
Fore
SplineSet
904 512 m 1,0,-1
 1173 1421 l 1,1,-1
 1622 1421 l 1,2,-1
 1622 1362 l 1,3,4
 1598 1350 1598 1350 1574 1343.5 c 128,-1,5
 1550 1337 1550 1337 1531 1327.5 c 128,-1,6
 1512 1318 1512 1318 1500.5 1301.5 c 128,-1,7
 1489 1285 1489 1285 1489 1253 c 2,8,-1
 1489 184 l 2,9,10
 1489 148 1489 148 1500.5 128.5 c 128,-1,11
 1512 109 1512 109 1531.5 98 c 128,-1,12
 1551 87 1551 87 1576 79 c 128,-1,13
 1601 71 1601 71 1629 59 c 1,14,-1
 1629 0 l 1,15,-1
 1106 0 l 1,16,-1
 1106 59 l 1,17,18
 1130 71 1130 71 1153.5 79 c 128,-1,19
 1177 87 1177 87 1196 98 c 128,-1,20
 1215 109 1215 109 1227 128.5 c 128,-1,21
 1239 148 1239 148 1239 184 c 2,22,-1
 1239 1278 l 1,23,-1
 1235 1278 l 1,24,-1
 957 337 l 1,25,-1
 904 512 l 1,0,-1
338 1181 m 1,26,-1
 338 213 l 2,27,28
 338 167 338 167 351 142 c 128,-1,29
 364 117 364 117 384.5 103 c 128,-1,30
 405 89 405 89 431.5 80.5 c 128,-1,31
 458 72 458 72 485 59 c 1,32,-1
 485 0 l 1,33,-1
 84 0 l 1,34,-1
 84 59 l 1,35,36
 108 71 108 71 133 78.5 c 128,-1,37
 158 86 158 86 178 99.5 c 128,-1,38
 198 113 198 113 211 138 c 128,-1,39
 224 163 224 163 224 211 c 2,40,-1
 224 1224 l 1,41,-1
 338 1181 l 1,26,-1
342 1257 m 1,42,43
 287 1278 287 1278 238 1297 c 0,44,45
 196 1314 196 1314 152.5 1331.5 c 128,-1,46
 109 1349 109 1349 84 1362 c 1,47,-1
 84 1421 l 1,48,-1
 535 1421 l 1,49,-1
 918 206 l 1,50,-1
 857 0 l 1,51,-1
 739 0 l 1,52,-1
 342 1257 l 1,42,43
EndSplineSet
EndChar

StartChar: N
Encoding: 78 78 46
Width: 1429
Flags: W
LayerCount: 2
Fore
SplineSet
1101 532 m 1,0,-1
 1101 1237 l 2,1,2
 1101 1268 1101 1268 1087 1287.5 c 128,-1,3
 1073 1307 1073 1307 1051 1319.5 c 128,-1,4
 1029 1332 1029 1332 1001.5 1342 c 128,-1,5
 974 1352 974 1352 947 1364 c 1,6,-1
 947 1423 l 1,7,-1
 1365 1423 l 1,8,-1
 1365 1364 l 1,9,10
 1340 1352 1340 1352 1313.5 1342 c 128,-1,11
 1287 1332 1287 1332 1265.5 1319.5 c 128,-1,12
 1244 1307 1244 1307 1230 1287.5 c 128,-1,13
 1216 1268 1216 1268 1216 1237 c 2,14,-1
 1216 352 l 1,15,-1
 1101 532 l 1,0,-1
326 1062 m 1,16,-1
 326 186 l 2,17,18
 326 154 326 154 340 135 c 128,-1,19
 354 116 354 116 377.5 103.5 c 128,-1,20
 401 91 401 91 431.5 81 c 128,-1,21
 462 71 462 71 494 59 c 1,22,-1
 494 0 l 1,23,-1
 54 0 l 1,24,-1
 54 59 l 1,25,26
 82 71 82 71 110 81 c 128,-1,27
 138 91 138 91 160.5 103.5 c 128,-1,28
 183 116 183 116 197 135 c 128,-1,29
 211 154 211 154 211 186 c 2,30,-1
 211 1212 l 1,31,-1
 326 1062 l 1,16,-1
330 1186 m 1,32,33
 284 1240 284 1240 246 1271 c 128,-1,34
 208 1302 208 1302 176 1319 c 128,-1,35
 144 1336 144 1336 116 1344.5 c 128,-1,36
 88 1353 88 1353 61 1362 c 1,37,-1
 61 1421 l 1,38,-1
 451 1421 l 1,39,-1
 1097 393 l 1,40,-1
 1216 211 l 1,41,-1
 1216 -8 l 1,42,-1
 1069 -8 l 1,43,-1
 330 1186 l 1,32,33
EndSplineSet
EndChar

StartChar: O
Encoding: 79 79 47
Width: 1429
Flags: W
LayerCount: 2
Fore
SplineSet
671 -30 m 1,0,1
 541 -21 541 -21 433.5 40.5 c 128,-1,2
 326 102 326 102 248.5 201.5 c 128,-1,3
 171 301 171 301 128.5 432 c 128,-1,4
 86 563 86 563 86 711 c 0,5,6
 86 858 86 858 128.5 988.5 c 128,-1,7
 171 1119 171 1119 248.5 1218.5 c 128,-1,8
 326 1318 326 1318 433.5 1379.5 c 128,-1,9
 541 1441 541 1441 671 1450 c 1,10,-1
 671 1368 l 1,11,12
 602 1361 602 1361 546 1324.5 c 128,-1,13
 490 1288 490 1288 450.5 1211.5 c 128,-1,14
 411 1135 411 1135 389 1012.5 c 128,-1,15
 367 890 367 890 367 711 c 256,16,17
 367 532 367 532 389 409.5 c 128,-1,18
 411 287 411 287 450.5 210 c 128,-1,19
 490 133 490 133 546 96.5 c 128,-1,20
 602 60 602 60 671 53 c 1,21,-1
 671 -30 l 1,0,1
754 53 m 1,22,23
 823 60 823 60 879 97 c 128,-1,24
 935 134 935 134 975 211 c 128,-1,25
 1015 288 1015 288 1036.5 410.5 c 128,-1,26
 1058 533 1058 533 1058 711 c 256,27,28
 1058 889 1058 889 1036 1011 c 128,-1,29
 1014 1133 1014 1133 974.5 1210 c 128,-1,30
 935 1287 935 1287 879 1323.5 c 128,-1,31
 823 1360 823 1360 754 1368 c 1,32,-1
 754 1451 l 1,33,34
 885 1442 885 1442 993 1380.5 c 128,-1,35
 1101 1319 1101 1319 1178.5 1219.5 c 128,-1,36
 1256 1120 1256 1120 1298.5 989 c 128,-1,37
 1341 858 1341 858 1341 711 c 0,38,39
 1341 563 1341 563 1298.5 432.5 c 128,-1,40
 1256 302 1256 302 1178.5 202.5 c 128,-1,41
 1101 103 1101 103 993 41.5 c 128,-1,42
 885 -20 885 -20 754 -29 c 1,43,-1
 754 53 l 1,22,23
EndSplineSet
Substitution2: "'sups' Superscript in Latin lookup 5 subtable" ordmasculine
Substitution2: "'aalt' Access All Alternates in Latin lookup 0 subtable" ordmasculine
EndChar

StartChar: P
Encoding: 80 80 48
Width: 1230
Flags: W
LayerCount: 2
Fore
SplineSet
563 1421 m 1,0,-1
 650 1421 l 2,1,2
 686 1421 686 1421 721 1419 c 128,-1,3
 756 1417 756 1417 788 1415 c 0,4,5
 891 1408 891 1408 968.5 1376.5 c 128,-1,6
 1046 1345 1046 1345 1097 1296 c 128,-1,7
 1148 1247 1148 1247 1173.5 1183 c 128,-1,8
 1199 1119 1199 1119 1199 1047 c 0,9,10
 1199 967 1199 967 1166.5 898 c 128,-1,11
 1134 829 1134 829 1069 778 c 128,-1,12
 1004 727 1004 727 906.5 697.5 c 128,-1,13
 809 668 809 668 679 668 c 2,14,-1
 563 668 l 1,15,-1
 563 743 l 1,16,-1
 573 743 l 2,17,18
 657 743 657 743 721 758 c 128,-1,19
 785 773 785 773 828.5 808.5 c 128,-1,20
 872 844 872 844 894.5 902.5 c 128,-1,21
 917 961 917 961 917 1049 c 0,22,23
 917 1202 917 1202 847 1274 c 128,-1,24
 777 1346 777 1346 641 1346 c 0,25,26
 597 1346 597 1346 563 1340 c 1,27,-1
 563 1421 l 1,0,-1
480 238 m 2,28,29
 480 212 480 212 480.5 188.5 c 128,-1,30
 481 165 481 165 486 145 c 0,31,32
 491 120 491 120 508.5 107.5 c 128,-1,33
 526 95 526 95 550 88.5 c 128,-1,34
 574 82 574 82 602 76.5 c 128,-1,35
 630 71 630 71 655 59 c 1,36,-1
 655 0 l 1,37,-1
 90 0 l 1,38,-1
 90 59 l 1,39,40
 108 71 108 71 129.5 76 c 128,-1,41
 151 81 151 81 170.5 87.5 c 128,-1,42
 190 94 190 94 205 106 c 128,-1,43
 220 118 220 118 224 143 c 0,44,45
 230 186 230 186 230 240 c 2,46,-1
 230 1182 l 2,47,48
 230 1237 230 1237 223 1278 c 0,49,50
 219 1302 219 1302 204.5 1313.5 c 128,-1,51
 190 1325 190 1325 170.5 1332 c 128,-1,52
 151 1339 151 1339 129.5 1344.5 c 128,-1,53
 108 1350 108 1350 90 1362 c 1,54,-1
 90 1421 l 1,55,-1
 480 1421 l 1,56,-1
 480 238 l 2,28,29
EndSplineSet
EndChar

StartChar: Q
Encoding: 81 81 49
Width: 1429
Flags: W
LayerCount: 2
Fore
SplineSet
754 53 m 1,0,1
 823 60 823 60 879 97 c 128,-1,2
 935 134 935 134 975 211 c 128,-1,3
 1015 288 1015 288 1036.5 410.5 c 128,-1,4
 1058 533 1058 533 1058 711 c 256,5,6
 1058 889 1058 889 1036 1011 c 128,-1,7
 1014 1133 1014 1133 974.5 1210 c 128,-1,8
 935 1287 935 1287 879 1323.5 c 128,-1,9
 823 1360 823 1360 754 1368 c 1,10,-1
 754 1451 l 1,11,12
 885 1442 885 1442 993 1380.5 c 128,-1,13
 1101 1319 1101 1319 1178.5 1219.5 c 128,-1,14
 1256 1120 1256 1120 1298.5 989 c 128,-1,15
 1341 858 1341 858 1341 711 c 0,16,17
 1341 584 1341 584 1309.5 469.5 c 128,-1,18
 1278 355 1278 355 1220 262 c 128,-1,19
 1162 169 1162 169 1079.5 101 c 128,-1,20
 997 33 997 33 896 0 c 1,21,22
 966 -39 966 -39 1021.5 -74.5 c 128,-1,23
 1077 -110 1077 -110 1120.5 -137 c 128,-1,24
 1164 -164 1164 -164 1199 -179.5 c 128,-1,25
 1234 -195 1234 -195 1264 -195 c 0,26,27
 1287 -195 1287 -195 1303 -190.5 c 128,-1,28
 1319 -186 1319 -186 1331 -178 c 128,-1,29
 1343 -170 1343 -170 1353.5 -159.5 c 128,-1,30
 1364 -149 1364 -149 1378 -138 c 1,31,-1
 1449 -203 l 1,32,33
 1433 -229 1433 -229 1408.5 -254.5 c 128,-1,34
 1384 -280 1384 -280 1352 -299.5 c 128,-1,35
 1320 -319 1320 -319 1279.5 -331 c 128,-1,36
 1239 -343 1239 -343 1191 -343 c 0,37,38
 1106 -343 1106 -343 1040.5 -311.5 c 128,-1,39
 975 -280 975 -280 923.5 -233 c 128,-1,40
 872 -186 872 -186 831 -131 c 128,-1,41
 790 -76 790 -76 754 -29 c 1,42,-1
 754 53 l 1,0,1
671 -30 m 1,43,44
 541 -21 541 -21 433.5 40.5 c 128,-1,45
 326 102 326 102 248.5 201.5 c 128,-1,46
 171 301 171 301 128.5 432 c 128,-1,47
 86 563 86 563 86 711 c 0,48,49
 86 858 86 858 128.5 988.5 c 128,-1,50
 171 1119 171 1119 248.5 1218.5 c 128,-1,51
 326 1318 326 1318 433.5 1379.5 c 128,-1,52
 541 1441 541 1441 671 1450 c 1,53,-1
 671 1368 l 1,54,55
 602 1361 602 1361 546 1324.5 c 128,-1,56
 490 1288 490 1288 450.5 1211.5 c 128,-1,57
 411 1135 411 1135 389 1012.5 c 128,-1,58
 367 890 367 890 367 711 c 256,59,60
 367 532 367 532 389 409.5 c 128,-1,61
 411 287 411 287 450.5 210 c 128,-1,62
 490 133 490 133 546 96.5 c 128,-1,63
 602 60 602 60 671 53 c 1,64,-1
 671 -30 l 1,43,44
EndSplineSet
EndChar

StartChar: R
Encoding: 82 82 50
Width: 1341
Flags: W
LayerCount: 2
Fore
SplineSet
563 772 m 1,0,-1
 580 772 l 2,1,2
 671 772 671 772 736.5 789 c 128,-1,3
 802 806 802 806 844 841 c 128,-1,4
 886 876 886 876 906 931 c 128,-1,5
 926 986 926 986 926 1061 c 0,6,7
 926 1196 926 1196 847 1271 c 128,-1,8
 768 1346 768 1346 605 1346 c 0,9,10
 595 1346 595 1346 583.5 1345.5 c 128,-1,11
 572 1345 572 1345 563 1343 c 1,12,-1
 563 1421 l 1,13,-1
 600 1421 l 2,14,15
 901 1421 901 1421 1044 1331.5 c 128,-1,16
 1187 1242 1187 1242 1187 1067 c 0,17,18
 1187 997 1187 997 1160 935.5 c 128,-1,19
 1133 874 1133 874 1081 827 c 128,-1,20
 1029 780 1029 780 953 751.5 c 128,-1,21
 877 723 877 723 779 719 c 1,22,-1
 779 715 l 1,23,24
 833 702 833 702 870.5 678.5 c 128,-1,25
 908 655 908 655 940 610 c 0,26,27
 960 582 960 582 980.5 535.5 c 128,-1,28
 1001 489 1001 489 1021.5 437 c 128,-1,29
 1042 385 1042 385 1063 331.5 c 128,-1,30
 1084 278 1084 278 1105 235 c 128,-1,31
 1126 192 1126 192 1146.5 165 c 128,-1,32
 1167 138 1167 138 1188 138 c 0,33,34
 1203 138 1203 138 1214 151.5 c 128,-1,35
 1225 165 1225 165 1236.5 181.5 c 128,-1,36
 1248 198 1248 198 1261 211.5 c 128,-1,37
 1274 225 1274 225 1292 225 c 0,38,39
 1295 225 1295 225 1306 219.5 c 128,-1,40
 1317 214 1317 214 1317 195 c 0,41,42
 1317 182 1317 182 1310 164 c 1,43,44
 1290 132 1290 132 1269 100 c 128,-1,45
 1248 68 1248 68 1221.5 42 c 128,-1,46
 1195 16 1195 16 1160 0 c 128,-1,47
 1125 -16 1125 -16 1078 -16 c 0,48,49
 1011 -16 1011 -16 966.5 8 c 128,-1,50
 922 32 922 32 892 72.5 c 128,-1,51
 862 113 862 113 843.5 166 c 128,-1,52
 825 219 825 219 810.5 277 c 128,-1,53
 796 335 796 335 782 394 c 128,-1,54
 768 453 768 453 747 505.5 c 128,-1,55
 726 558 726 558 694.5 600.5 c 128,-1,56
 663 643 663 643 614 667 c 0,57,58
 600 674 600 674 587.5 679.5 c 128,-1,59
 575 685 575 685 563 690 c 1,60,-1
 563 772 l 1,0,-1
480 238 m 2,61,62
 480 212 480 212 480.5 188.5 c 128,-1,63
 481 165 481 165 484 143 c 0,64,65
 488 118 488 118 502.5 106 c 128,-1,66
 517 94 517 94 537 87.5 c 128,-1,67
 557 81 557 81 579 76 c 128,-1,68
 601 71 601 71 620 59 c 1,69,-1
 620 0 l 1,70,-1
 90 0 l 1,71,-1
 90 59 l 1,72,73
 106 71 106 71 127.5 76 c 128,-1,74
 149 81 149 81 169 87.5 c 128,-1,75
 189 94 189 94 204.5 106 c 128,-1,76
 220 118 220 118 224 143 c 0,77,78
 230 186 230 186 230 240 c 2,79,-1
 230 1182 l 2,80,81
 230 1237 230 1237 223 1278 c 0,82,83
 219 1302 219 1302 204.5 1313.5 c 128,-1,84
 190 1325 190 1325 170.5 1332 c 128,-1,85
 151 1339 151 1339 129.5 1344.5 c 128,-1,86
 108 1350 108 1350 90 1362 c 1,87,-1
 90 1421 l 1,88,-1
 480 1421 l 1,89,-1
 480 238 l 2,61,62
EndSplineSet
EndChar

StartChar: S
Encoding: 83 83 51
Width: 1164
Flags: W
LayerCount: 2
Fore
SplineSet
592 1449 m 1,0,1
 642 1444 642 1444 679 1430 c 128,-1,2
 716 1416 716 1416 743.5 1402 c 128,-1,3
 771 1388 771 1388 790.5 1377 c 128,-1,4
 810 1366 810 1366 825 1366 c 0,5,6
 837 1366 837 1366 846 1372 c 128,-1,7
 855 1378 855 1378 862 1386 c 128,-1,8
 869 1394 869 1394 874 1403.5 c 128,-1,9
 879 1413 879 1413 884 1421 c 1,10,-1
 976 1421 l 1,11,-1
 976 952 l 1,12,-1
 904 952 l 1,13,14
 885 972 885 972 871 1008 c 128,-1,15
 857 1044 857 1044 841.5 1087 c 128,-1,16
 826 1130 826 1130 806.5 1176 c 128,-1,17
 787 1222 787 1222 758.5 1261.5 c 128,-1,18
 730 1301 730 1301 689.5 1329.5 c 128,-1,19
 649 1358 649 1358 592 1367 c 1,20,-1
 592 1449 l 1,0,1
539 -29 m 1,21,22
 482 -24 482 -24 438.5 -10.5 c 128,-1,23
 395 3 395 3 362.5 17.5 c 128,-1,24
 330 32 330 32 306 43.5 c 128,-1,25
 282 55 282 55 264 55 c 0,26,27
 253 55 253 55 243 49 c 128,-1,28
 233 43 233 43 225 35 c 128,-1,29
 217 27 217 27 210.5 17 c 128,-1,30
 204 7 204 7 200 0 c 1,31,-1
 107 0 l 1,32,-1
 107 494 l 1,33,-1
 176 494 l 1,34,35
 198 471 198 471 215.5 431 c 128,-1,36
 233 391 233 391 252.5 344.5 c 128,-1,37
 272 298 272 298 295 249 c 128,-1,38
 318 200 318 200 351 158.5 c 128,-1,39
 384 117 384 117 429.5 88.5 c 128,-1,40
 475 60 475 60 539 53 c 1,41,-1
 539 -29 l 1,21,22
622 54 m 1,42,43
 679 61 679 61 720.5 84.5 c 128,-1,44
 762 108 762 108 789 142.5 c 128,-1,45
 816 177 816 177 828.5 220.5 c 128,-1,46
 841 264 841 264 841 311 c 0,47,48
 841 382 841 382 810 434.5 c 128,-1,49
 779 487 779 487 728.5 527.5 c 128,-1,50
 678 568 678 568 613 601 c 128,-1,51
 548 634 548 634 480.5 666.5 c 128,-1,52
 413 699 413 699 348.5 734.5 c 128,-1,53
 284 770 284 770 233.5 816.5 c 128,-1,54
 183 863 183 863 152 924.5 c 128,-1,55
 121 986 121 986 121 1069 c 0,56,57
 121 1142 121 1142 147.5 1208.5 c 128,-1,58
 174 1275 174 1275 224.5 1327 c 128,-1,59
 275 1379 275 1379 347 1412 c 128,-1,60
 419 1445 419 1445 509 1451 c 1,61,-1
 509 1368 l 1,62,63
 471 1363 471 1363 438 1346.5 c 128,-1,64
 405 1330 405 1330 380.5 1303.5 c 128,-1,65
 356 1277 356 1277 342 1241 c 128,-1,66
 328 1205 328 1205 328 1161 c 0,67,68
 328 1097 328 1097 360 1050 c 128,-1,69
 392 1003 392 1003 444 966 c 128,-1,70
 496 929 496 929 562.5 898 c 128,-1,71
 629 867 629 867 698.5 835 c 128,-1,72
 768 803 768 803 834.5 766 c 128,-1,73
 901 729 901 729 953 679.5 c 128,-1,74
 1005 630 1005 630 1037 565 c 128,-1,75
 1069 500 1069 500 1069 412 c 0,76,77
 1069 330 1069 330 1037 253 c 128,-1,78
 1005 176 1005 176 946.5 115.5 c 128,-1,79
 888 55 888 55 805.5 15.5 c 128,-1,80
 723 -24 723 -24 622 -30 c 1,81,-1
 622 54 l 1,42,43
EndSplineSet
EndChar

StartChar: T
Encoding: 84 84 52
Width: 1187
Flags: W
LayerCount: 2
Fore
SplineSet
717 1421 m 1,0,-1
 717 229 l 2,1,2
 717 186 717 186 723 160 c 128,-1,3
 729 134 729 134 740 119.5 c 128,-1,4
 751 105 751 105 765.5 98.5 c 128,-1,5
 780 92 780 92 798 87.5 c 128,-1,6
 816 83 816 83 835.5 77 c 128,-1,7
 855 71 855 71 875 59 c 1,8,-1
 875 0 l 1,9,-1
 313 0 l 1,10,-1
 313 59 l 1,11,12
 332 71 332 71 355.5 76.5 c 128,-1,13
 379 82 379 82 400.5 89 c 128,-1,14
 422 96 422 96 438 107.5 c 128,-1,15
 454 119 454 119 459 143 c 0,16,17
 467 183 467 183 467 229 c 2,18,-1
 467 1421 l 1,19,-1
 717 1421 l 1,0,-1
800 1421 m 1,20,-1
 1014 1421 l 2,21,22
 1052 1421 1052 1421 1085.5 1426 c 128,-1,23
 1119 1431 1119 1431 1151 1436 c 1,24,-1
 1151 963 l 1,25,-1
 1083 963 l 1,26,27
 1069 1001 1069 1001 1058.5 1043.5 c 128,-1,28
 1048 1086 1048 1086 1035 1127.5 c 128,-1,29
 1022 1169 1022 1169 1005 1207.5 c 128,-1,30
 988 1246 988 1246 961 1275 c 128,-1,31
 934 1304 934 1304 895 1321.5 c 128,-1,32
 856 1339 856 1339 800 1339 c 1,33,-1
 800 1421 l 1,20,-1
384 1339 m 1,34,35
 328 1339 328 1339 289 1321.5 c 128,-1,36
 250 1304 250 1304 223.5 1274.5 c 128,-1,37
 197 1245 197 1245 179.5 1206.5 c 128,-1,38
 162 1168 162 1168 149.5 1126.5 c 128,-1,39
 137 1085 137 1085 127 1042.5 c 128,-1,40
 117 1000 117 1000 104 963 c 1,41,-1
 34 963 l 1,42,-1
 34 1434 l 1,43,-1
 36 1436 l 1,44,45
 52 1431 52 1431 70 1426 c 128,-1,46
 88 1421 88 1421 109 1421 c 2,47,-1
 384 1421 l 1,48,-1
 384 1339 l 1,34,35
EndSplineSet
EndChar

StartChar: U
Encoding: 85 85 53
Width: 1405
Flags: W
LayerCount: 2
Fore
SplineSet
793 52 m 1,0,1
 860 55 860 55 914.5 74.5 c 128,-1,2
 969 94 969 94 1008 129.5 c 128,-1,3
 1047 165 1047 165 1068.5 216 c 128,-1,4
 1090 267 1090 267 1090 334 c 2,5,-1
 1090 1225 l 2,6,7
 1090 1262 1090 1262 1076 1283.5 c 128,-1,8
 1062 1305 1062 1305 1040.5 1318.5 c 128,-1,9
 1019 1332 1019 1332 992 1341 c 128,-1,10
 965 1350 965 1350 938 1362 c 1,11,-1
 938 1421 l 1,12,-1
 1358 1421 l 1,13,-1
 1358 1362 l 1,14,15
 1331 1350 1331 1350 1303.5 1341 c 128,-1,16
 1276 1332 1276 1332 1254 1318.5 c 128,-1,17
 1232 1305 1232 1305 1218 1283.5 c 128,-1,18
 1204 1262 1204 1262 1204 1225 c 2,19,-1
 1204 365 l 2,20,21
 1204 283 1204 283 1182 214.5 c 128,-1,22
 1160 146 1160 146 1111 95 c 128,-1,23
 1062 44 1062 44 983.5 12 c 128,-1,24
 905 -20 905 -20 793 -28 c 1,25,-1
 793 52 l 1,0,1
710 -31 m 1,26,27
 587 -31 587 -31 492 -4.5 c 128,-1,28
 397 22 397 22 332 74 c 128,-1,29
 267 126 267 126 233.5 202.5 c 128,-1,30
 200 279 200 279 200 379 c 2,31,-1
 200 1237 l 2,32,33
 200 1274 200 1274 189.5 1294 c 128,-1,34
 179 1314 179 1314 161 1325 c 128,-1,35
 143 1336 143 1336 118 1343 c 128,-1,36
 93 1350 93 1350 64 1362 c 1,37,-1
 64 1421 l 1,38,-1
 587 1421 l 1,39,-1
 587 1362 l 1,40,41
 557 1350 557 1350 532 1343 c 128,-1,42
 507 1336 507 1336 488.5 1325 c 128,-1,43
 470 1314 470 1314 459.5 1294 c 128,-1,44
 449 1274 449 1274 449 1237 c 2,45,-1
 449 332 l 2,46,47
 449 272 449 272 467.5 224 c 128,-1,48
 486 176 486 176 519.5 140.5 c 128,-1,49
 553 105 553 105 601.5 83 c 128,-1,50
 650 61 650 61 710 54 c 1,51,-1
 710 -31 l 1,26,27
EndSplineSet
EndChar

StartChar: V
Encoding: 86 86 54
Width: 1187
Flags: W
LayerCount: 2
Fore
SplineSet
701 427 m 1,0,1
 701 432 701 432 712.5 466 c 128,-1,2
 724 500 724 500 742.5 552.5 c 128,-1,3
 761 605 761 605 784.5 672 c 128,-1,4
 808 739 808 739 832.5 810 c 128,-1,5
 857 881 857 881 880.5 952 c 128,-1,6
 904 1023 904 1023 922.5 1084 c 128,-1,7
 941 1145 941 1145 952.5 1190.5 c 128,-1,8
 964 1236 964 1236 964 1257 c 0,9,10
 964 1292 964 1292 951.5 1306.5 c 128,-1,11
 939 1321 939 1321 920 1327 c 128,-1,12
 901 1333 901 1333 879 1338 c 128,-1,13
 857 1343 857 1343 838 1358 c 1,14,-1
 838 1421 l 1,15,-1
 1232 1421 l 1,16,-1
 1232 1358 l 1,17,18
 1216 1348 1216 1348 1197 1341 c 128,-1,19
 1178 1334 1178 1334 1158.5 1323.5 c 128,-1,20
 1139 1313 1139 1313 1121.5 1294.5 c 128,-1,21
 1104 1276 1104 1276 1092 1243 c 2,22,-1
 750 257 l 1,23,-1
 701 427 l 1,0,1
715 156 m 1,24,-1
 653 -23 l 1,25,-1
 530 -23 l 1,26,-1
 101 1270 l 2,27,28
 93 1293 93 1293 80 1305.5 c 128,-1,29
 67 1318 67 1318 50.5 1326 c 128,-1,30
 34 1334 34 1334 14 1340.5 c 128,-1,31
 -6 1347 -6 1347 -27 1358 c 1,32,-1
 -27 1421 l 1,33,-1
 489 1421 l 1,34,-1
 489 1358 l 1,35,36
 464 1348 464 1348 440 1342 c 128,-1,37
 416 1336 416 1336 397.5 1328.5 c 128,-1,38
 379 1321 379 1321 367.5 1309 c 128,-1,39
 356 1297 356 1297 356 1276 c 0,40,41
 356 1253 356 1253 367.5 1222 c 128,-1,42
 379 1191 379 1191 392 1151 c 2,43,-1
 662 324 l 1,44,-1
 715 156 l 1,24,-1
EndSplineSet
EndChar

StartChar: W
Encoding: 87 87 55
Width: 1715
Flags: W
LayerCount: 2
Fore
SplineSet
1294 470 m 1,0,1
 1318 549 1318 549 1338.5 619.5 c 128,-1,2
 1359 690 1359 690 1378.5 758.5 c 128,-1,3
 1398 827 1398 827 1418 897.5 c 128,-1,4
 1438 968 1438 968 1461 1047 c 0,5,6
 1478 1108 1478 1108 1494.5 1164.5 c 128,-1,7
 1511 1221 1511 1221 1511 1262 c 0,8,9
 1511 1291 1511 1291 1499.5 1306 c 128,-1,10
 1488 1321 1488 1321 1469.5 1329.5 c 128,-1,11
 1451 1338 1451 1338 1428 1343.5 c 128,-1,12
 1405 1349 1405 1349 1382 1358 c 1,13,-1
 1382 1421 l 1,14,-1
 1765 1421 l 1,15,-1
 1765 1358 l 1,16,17
 1751 1348 1751 1348 1733.5 1342 c 128,-1,18
 1716 1336 1716 1336 1699 1328.5 c 128,-1,19
 1682 1321 1682 1321 1667 1310 c 128,-1,20
 1652 1299 1652 1299 1643 1278 c 0,21,22
 1632 1255 1632 1255 1624 1230.5 c 128,-1,23
 1616 1206 1616 1206 1608 1178 c 2,24,-1
 1346 292 l 1,25,-1
 1294 470 l 1,0,1
1309 168 m 1,26,-1
 1253 -23 l 1,27,-1
 1128 -23 l 1,28,-1
 857 897 l 1,29,-1
 852 897 l 1,30,-1
 676 277 l 1,31,-1
 625 462 l 1,32,-1
 767 954 l 2,33,34
 778 993 778 993 788 1022 c 128,-1,35
 798 1051 798 1051 802 1077 c 1,36,37
 794 1124 794 1124 780.5 1172.5 c 128,-1,38
 767 1221 767 1221 744 1278 c 0,39,40
 735 1301 735 1301 720.5 1312.5 c 128,-1,41
 706 1324 706 1324 690 1331 c 128,-1,42
 674 1338 674 1338 658 1343 c 128,-1,43
 642 1348 642 1348 630 1358 c 1,44,-1
 630 1421 l 1,45,-1
 1106 1421 l 1,46,-1
 1106 1358 l 1,47,48
 1087 1349 1087 1349 1066 1344 c 128,-1,49
 1045 1339 1045 1339 1027 1332 c 128,-1,50
 1009 1325 1009 1325 997 1314 c 128,-1,51
 985 1303 985 1303 985 1282 c 0,52,53
 985 1259 985 1259 994.5 1228.5 c 128,-1,54
 1004 1198 1004 1198 1018 1153 c 2,55,-1
 1254 348 l 1,56,-1
 1309 168 l 1,26,-1
641 153 m 1,57,-1
 591 -23 l 1,58,-1
 460 -23 l 1,59,-1
 102 1214 l 2,60,61
 94 1240 94 1240 86 1262.5 c 128,-1,62
 78 1285 78 1285 67 1305 c 0,63,64
 59 1318 59 1318 47 1324.5 c 128,-1,65
 35 1331 35 1331 21.5 1335.5 c 128,-1,66
 8 1340 8 1340 -4 1344.5 c 128,-1,67
 -16 1349 -16 1349 -23 1358 c 1,68,-1
 -23 1421 l 1,69,-1
 444 1421 l 1,70,-1
 444 1358 l 1,71,72
 426 1348 426 1348 405.5 1342.5 c 128,-1,73
 385 1337 385 1337 367.5 1330 c 128,-1,74
 350 1323 350 1323 338 1311.5 c 128,-1,75
 326 1300 326 1300 326 1278 c 0,76,77
 326 1254 326 1254 336 1225 c 128,-1,78
 346 1196 346 1196 356 1161 c 2,79,-1
 587 344 l 1,80,-1
 641 153 l 1,57,-1
EndSplineSet
EndChar

StartChar: X
Encoding: 88 88 56
Width: 1230
Flags: W
LayerCount: 2
Fore
SplineSet
699 961 m 1,0,1
 749 1034 749 1034 785.5 1087 c 128,-1,2
 822 1140 822 1140 846 1178.5 c 128,-1,3
 870 1217 870 1217 881.5 1243 c 128,-1,4
 893 1269 893 1269 893 1290 c 0,5,6
 893 1308 893 1308 882 1318 c 128,-1,7
 871 1328 871 1328 853.5 1334 c 128,-1,8
 836 1340 836 1340 814.5 1344.5 c 128,-1,9
 793 1349 793 1349 772 1358 c 1,10,-1
 772 1421 l 1,11,-1
 1216 1421 l 1,12,-1
 1216 1358 l 1,13,14
 1199 1348 1199 1348 1178 1342.5 c 128,-1,15
 1157 1337 1157 1337 1135.5 1332 c 128,-1,16
 1114 1327 1114 1327 1094.5 1318.5 c 128,-1,17
 1075 1310 1075 1310 1060 1294 c 0,18,19
 1016 1246 1016 1246 977.5 1193.5 c 128,-1,20
 939 1141 939 1141 902 1086 c 128,-1,21
 865 1031 865 1031 829 975 c 128,-1,22
 793 919 793 919 754 862 c 1,23,-1
 699 961 l 1,0,1
535 555 m 1,24,25
 480 472 480 472 440 413 c 128,-1,26
 400 354 400 354 373 313 c 128,-1,27
 346 272 346 272 329.5 246 c 128,-1,28
 313 220 313 220 304 203 c 128,-1,29
 295 186 295 186 292 175 c 128,-1,30
 289 164 289 164 289 154 c 0,31,32
 289 119 289 119 301 106.5 c 128,-1,33
 313 94 313 94 331.5 89 c 128,-1,34
 350 84 350 84 373.5 80.5 c 128,-1,35
 397 77 397 77 420 61 c 1,36,-1
 420 0 l 1,37,-1
 -23 0 l 1,38,-1
 -23 61 l 1,39,40
 -9 73 -9 73 8.5 78.5 c 128,-1,41
 26 84 26 84 44.5 89 c 128,-1,42
 63 94 63 94 82 102 c 128,-1,43
 101 110 101 110 118 129 c 0,44,45
 131 143 131 143 144 158.5 c 128,-1,46
 157 174 157 174 169 192 c 2,47,-1
 472 654 l 1,48,-1
 535 555 l 1,24,25
194 1231 m 2,49,50
 183 1250 183 1250 170.5 1266 c 128,-1,51
 158 1282 158 1282 147 1298 c 1,52,53
 135 1313 135 1313 118 1320.5 c 128,-1,54
 101 1328 101 1328 82.5 1333 c 128,-1,55
 64 1338 64 1338 44.5 1343 c 128,-1,56
 25 1348 25 1348 7 1358 c 1,57,-1
 7 1421 l 1,58,-1
 539 1421 l 1,59,-1
 539 1364 l 1,60,61
 519 1353 519 1353 500 1347 c 128,-1,62
 481 1341 481 1341 465 1335 c 128,-1,63
 449 1329 449 1329 439.5 1320 c 128,-1,64
 430 1311 430 1311 430 1294 c 0,65,66
 430 1283 430 1283 437 1266.5 c 128,-1,67
 444 1250 444 1250 468 1210.5 c 128,-1,68
 492 1171 492 1171 537 1097.5 c 128,-1,69
 582 1024 582 1024 657 899 c 1,70,-1
 712 801 l 1,71,72
 761 721 761 721 810 637 c 128,-1,73
 859 553 859 553 909 469 c 128,-1,74
 959 385 959 385 1010 304 c 128,-1,75
 1061 223 1061 223 1115 149 c 0,76,77
 1134 122 1134 122 1153.5 109 c 128,-1,78
 1173 96 1173 96 1190.5 89 c 128,-1,79
 1208 82 1208 82 1224 77 c 128,-1,80
 1240 72 1240 72 1253 61 c 1,81,-1
 1253 0 l 1,82,-1
 707 0 l 1,83,-1
 707 61 l 1,84,85
 728 72 728 72 751.5 76.5 c 128,-1,86
 775 81 775 81 795 87 c 128,-1,87
 815 93 815 93 828 103.5 c 128,-1,88
 841 114 841 114 841 137 c 0,89,90
 841 144 841 144 829.5 168.5 c 128,-1,91
 818 193 818 193 799 227.5 c 128,-1,92
 780 262 780 262 756 304 c 128,-1,93
 732 346 732 346 707 389 c 0,94,95
 648 489 648 489 573 612 c 1,96,-1
 510 711 l 1,97,-1
 194 1231 l 2,49,50
EndSplineSet
EndChar

StartChar: Y
Encoding: 89 89 57
Width: 1187
Flags: W
LayerCount: 2
Fore
SplineSet
709 792 m 1,0,1
 763 897 763 897 800.5 971 c 128,-1,2
 838 1045 838 1045 863 1095.5 c 128,-1,3
 888 1146 888 1146 902.5 1176 c 128,-1,4
 917 1206 917 1206 924 1224.5 c 128,-1,5
 931 1243 931 1243 932.5 1252 c 128,-1,6
 934 1261 934 1261 934 1270 c 0,7,8
 934 1296 934 1296 921 1309.5 c 128,-1,9
 908 1323 908 1323 888.5 1330.5 c 128,-1,10
 869 1338 869 1338 845 1343.5 c 128,-1,11
 821 1349 821 1349 800 1358 c 1,12,-1
 800 1421 l 1,13,-1
 1230 1421 l 1,14,-1
 1230 1358 l 1,15,16
 1215 1347 1215 1347 1195 1340.5 c 128,-1,17
 1175 1334 1175 1334 1154.5 1327.5 c 128,-1,18
 1134 1321 1134 1321 1115.5 1311.5 c 128,-1,19
 1097 1302 1097 1302 1085 1284 c 0,20,21
 1043 1221 1043 1221 1003 1148.5 c 128,-1,22
 963 1076 963 1076 924 998.5 c 128,-1,23
 885 921 885 921 846.5 841.5 c 128,-1,24
 808 762 808 762 769 685 c 1,25,-1
 709 792 l 1,0,1
727 603 m 1,26,-1
 717 588 l 1,27,-1
 717 231 l 2,28,29
 717 187 717 187 724 160.5 c 128,-1,30
 731 134 731 134 743 118.5 c 128,-1,31
 755 103 755 103 771 96.5 c 128,-1,32
 787 90 787 90 805 85.5 c 128,-1,33
 823 81 823 81 842 76 c 128,-1,34
 861 71 861 71 879 59 c 1,35,-1
 879 0 l 1,36,-1
 306 0 l 1,37,-1
 306 59 l 1,38,39
 325 71 325 71 344.5 76 c 128,-1,40
 364 81 364 81 381.5 85 c 128,-1,41
 399 89 399 89 415 95.5 c 128,-1,42
 431 102 431 102 442.5 117.5 c 128,-1,43
 454 133 454 133 460.5 161 c 128,-1,44
 467 189 467 189 467 236 c 2,45,-1
 467 592 l 1,46,-1
 120 1257 l 2,47,48
 106 1284 106 1284 87.5 1299.5 c 128,-1,49
 69 1315 69 1315 49 1324.5 c 128,-1,50
 29 1334 29 1334 8.5 1341 c 128,-1,51
 -12 1348 -12 1348 -31 1358 c 1,52,-1
 -31 1421 l 1,53,-1
 528 1421 l 1,54,-1
 528 1358 l 1,55,56
 504 1348 504 1348 479.5 1343 c 128,-1,57
 455 1338 455 1338 435.5 1331.5 c 128,-1,58
 416 1325 416 1325 404 1314 c 128,-1,59
 392 1303 392 1303 392 1282 c 0,60,61
 392 1272 392 1272 395 1261 c 128,-1,62
 398 1250 398 1250 407.5 1228.5 c 128,-1,63
 417 1207 417 1207 435.5 1171 c 128,-1,64
 454 1135 454 1135 484.5 1075.5 c 128,-1,65
 515 1016 515 1016 560.5 928 c 128,-1,66
 606 840 606 840 670 715 c 2,67,-1
 727 603 l 1,26,-1
EndSplineSet
EndChar

StartChar: Z
Encoding: 90 90 58
Width: 1164
Flags: W
LayerCount: 2
Fore
SplineSet
434 88 m 1,0,-1
 458 88 l 2,1,2
 527 88 527 88 587.5 94 c 128,-1,3
 648 100 648 100 700 108 c 1,4,5
 767 117 767 117 811.5 142 c 128,-1,6
 856 167 856 167 885 201 c 128,-1,7
 914 235 914 235 931 276 c 128,-1,8
 948 317 948 317 961.5 358.5 c 128,-1,9
 975 400 975 400 988.5 439.5 c 128,-1,10
 1002 479 1002 479 1024 510 c 1,11,-1
 1094 510 l 1,12,-1
 1094 0 l 1,13,-1
 384 0 l 1,14,-1
 434 88 l 1,0,-1
703 1333 m 1,15,-1
 666 1333 l 2,16,17
 625 1333 625 1333 588 1330 c 128,-1,18
 551 1327 551 1327 517 1324 c 0,19,20
 446 1317 446 1317 399.5 1295.5 c 128,-1,21
 353 1274 353 1274 323 1243.5 c 128,-1,22
 293 1213 293 1213 275.5 1176.5 c 128,-1,23
 258 1140 258 1140 245 1102.5 c 128,-1,24
 232 1065 232 1065 220.5 1029.5 c 128,-1,25
 209 994 209 994 190 967 c 1,26,-1
 123 967 l 1,27,-1
 123 1436 l 1,28,-1
 244 1425 l 2,29,30
 255 1424 255 1424 264 1422 c 128,-1,31
 273 1420 273 1420 283 1421 c 1,32,-1
 753 1421 l 1,33,-1
 703 1333 l 1,15,-1
844 1421 m 1,34,-1
 1076 1421 l 1,35,-1
 1076 1346 l 1,36,-1
 284 0 l 1,37,-1
 59 0 l 1,38,-1
 59 92 l 1,39,-1
 793 1333 l 1,40,-1
 844 1421 l 1,34,-1
EndSplineSet
EndChar

StartChar: bracketleft
Encoding: 91 91 59
Width: 988
Flags: W
LayerCount: 2
Fore
SplineSet
335 1438 m 1,0,-1
 732 1438 l 1,1,-1
 732 1368 l 2,2,3
 732 1357 732 1357 717.5 1353.5 c 128,-1,4
 703 1350 703 1350 677 1343 c 1,5,6
 629 1339 629 1339 599 1333 c 128,-1,7
 569 1327 569 1327 552.5 1314.5 c 128,-1,8
 536 1302 536 1302 530.5 1281.5 c 128,-1,9
 525 1261 525 1261 525 1229 c 2,10,-1
 525 -160 l 2,11,12
 525 -192 525 -192 530.5 -212.5 c 128,-1,13
 536 -233 536 -233 552.5 -245 c 128,-1,14
 569 -257 569 -257 599 -263.5 c 128,-1,15
 629 -270 629 -270 677 -274 c 1,16,17
 703 -279 703 -279 717.5 -283 c 128,-1,18
 732 -287 732 -287 732 -299 c 2,19,-1
 732 -367 l 1,20,-1
 335 -367 l 1,21,-1
 335 1438 l 1,0,-1
EndSplineSet
EndChar

StartChar: backslash
Encoding: 92 92 60
Width: 594
Flags: W
LayerCount: 2
Fore
SplineSet
55 1452 m 1,0,-1
 705 -31 l 1,1,-1
 537 -31 l 1,2,-1
 -113 1452 l 1,3,-1
 55 1452 l 1,0,-1
EndSplineSet
EndChar

StartChar: bracketright
Encoding: 93 93 61
Width: 988
Flags: W
LayerCount: 2
Fore
SplineSet
653 -367 m 1,0,-1
 256 -367 l 1,1,-1
 256 -299 l 2,2,3
 256 -287 256 -287 270 -283 c 128,-1,4
 284 -279 284 -279 310 -274 c 1,5,6
 358 -270 358 -270 388 -263.5 c 128,-1,7
 418 -257 418 -257 434.5 -245 c 128,-1,8
 451 -233 451 -233 456.5 -212.5 c 128,-1,9
 462 -192 462 -192 462 -160 c 2,10,-1
 462 1229 l 2,11,12
 462 1261 462 1261 456.5 1281.5 c 128,-1,13
 451 1302 451 1302 434.5 1314.5 c 128,-1,14
 418 1327 418 1327 388 1333 c 128,-1,15
 358 1339 358 1339 310 1343 c 1,16,17
 284 1350 284 1350 270 1353.5 c 128,-1,18
 256 1357 256 1357 256 1368 c 2,19,-1
 256 1438 l 1,20,-1
 653 1438 l 1,21,-1
 653 -367 l 1,0,-1
EndSplineSet
EndChar

StartChar: asciicircum
Encoding: 94 94 62
Width: 1425
Flags: W
LayerCount: 2
Fore
SplineSet
211 680 m 1,0,-1
 639 1421 l 1,1,-1
 786 1421 l 1,2,-1
 1214 680 l 1,3,-1
 1035 680 l 1,4,-1
 712 1247 l 1,5,-1
 388 680 l 1,6,-1
 211 680 l 1,0,-1
EndSplineSet
EndChar

StartChar: underscore
Encoding: 95 95 63
Width: 1187
Flags: W
LayerCount: 2
Fore
SplineSet
0 -256 m 1,0,-1
 0 -154 l 1,1,-1
 1187 -154 l 1,2,-1
 1187 -256 l 1,3,-1
 0 -256 l 1,0,-1
EndSplineSet
EndChar

StartChar: quoteleft
Encoding: 8216 8216 64
Width: 506
Flags: W
LayerCount: 2
Fore
SplineSet
328 1421 m 1,0,1
 301 1397 301 1397 278.5 1366 c 128,-1,2
 256 1335 256 1335 239 1300.5 c 128,-1,3
 222 1266 222 1266 211.5 1229 c 128,-1,4
 201 1192 201 1192 200 1155 c 1,5,6
 237 1155 237 1155 269.5 1148 c 128,-1,7
 302 1141 302 1141 326 1125 c 128,-1,8
 350 1109 350 1109 364 1083 c 128,-1,9
 378 1057 378 1057 378 1018 c 0,10,11
 378 992 378 992 370 968.5 c 128,-1,12
 362 945 362 945 345.5 927.5 c 128,-1,13
 329 910 329 910 304.5 899.5 c 128,-1,14
 280 889 280 889 247 889 c 0,15,16
 177 889 177 889 132.5 939.5 c 128,-1,17
 88 990 88 990 88 1087 c 0,18,19
 88 1140 88 1140 100.5 1193 c 128,-1,20
 113 1246 113 1246 135.5 1295.5 c 128,-1,21
 158 1345 158 1345 190 1390.5 c 128,-1,22
 222 1436 222 1436 261 1475 c 1,23,-1
 328 1421 l 1,0,1
EndSplineSet
EndChar

StartChar: a
Encoding: 97 97 65
Width: 1054
Flags: W
LayerCount: 2
Fore
SplineSet
572 19 m 1,0,1
 535 -3 535 -3 488.5 -15 c 128,-1,2
 442 -27 442 -27 376 -27 c 0,3,4
 301 -27 301 -27 242.5 -8 c 128,-1,5
 184 11 184 11 143.5 44 c 128,-1,6
 103 77 103 77 82 122.5 c 128,-1,7
 61 168 61 168 61 221 c 0,8,9
 61 278 61 278 85 324.5 c 128,-1,10
 109 371 109 371 149 408 c 128,-1,11
 189 445 189 445 241 474 c 128,-1,12
 293 503 293 503 350 525.5 c 128,-1,13
 407 548 407 548 464 564.5 c 128,-1,14
 521 581 521 581 572 594 c 1,15,-1
 572 510 l 1,16,17
 517 490 517 490 468 464 c 128,-1,18
 419 438 419 438 382.5 403 c 128,-1,19
 346 368 346 368 325 324.5 c 128,-1,20
 304 281 304 281 304 227 c 0,21,22
 304 152 304 152 340 106.5 c 128,-1,23
 376 61 376 61 444 61 c 0,24,25
 519 61 519 61 572 114 c 1,26,-1
 572 19 l 1,0,1
447 931 m 1,27,28
 366 923 366 923 335 868 c 1,29,30
 364 857 364 857 377 830.5 c 128,-1,31
 390 804 390 804 390 772 c 0,32,33
 390 724 390 724 356 695 c 128,-1,34
 322 666 322 666 266 666 c 0,35,36
 207 666 207 666 173.5 697 c 128,-1,37
 140 728 140 728 140 782 c 0,38,39
 140 826 140 826 163 865 c 128,-1,40
 186 904 186 904 227.5 934 c 128,-1,41
 269 964 269 964 325 983 c 128,-1,42
 381 1002 381 1002 447 1007 c 1,43,-1
 447 931 l 1,27,28
530 1007 m 1,44,45
 624 1002 624 1002 689 974 c 128,-1,46
 754 946 754 946 794 899.5 c 128,-1,47
 834 853 834 853 851.5 789.5 c 128,-1,48
 869 726 869 726 869 649 c 2,49,-1
 869 176 l 2,50,51
 869 132 869 132 885 115.5 c 128,-1,52
 901 99 901 99 930 99 c 256,53,54
 959 99 959 99 975.5 122 c 128,-1,55
 992 145 992 145 1000 199 c 1,56,-1
 1051 172 l 1,57,58
 1041 75 1041 75 997.5 24 c 128,-1,59
 954 -27 954 -27 859 -27 c 0,60,61
 822 -27 822 -27 792 -18.5 c 128,-1,62
 762 -10 762 -10 737.5 8.5 c 128,-1,63
 713 27 713 27 693 57.5 c 128,-1,64
 673 88 673 88 655 133 c 1,65,-1
 655 756 l 2,66,67
 655 818 655 818 622.5 863.5 c 128,-1,68
 590 909 590 909 530 925 c 1,69,-1
 530 1007 l 1,44,45
EndSplineSet
Substitution2: "Single Substitution lookup 8 subtable" ordfeminine
Substitution2: "'sups' Superscript in Latin lookup 5 subtable" ordfeminine
Substitution2: "'aalt' Access All Alternates in Latin lookup 0 subtable" ordfeminine
EndChar

StartChar: b
Encoding: 98 98 66
Width: 1097
Flags: W
LayerCount: 2
Fore
SplineSet
453 87 m 1,0,1
 475 72 475 72 498 65.5 c 128,-1,2
 521 59 521 59 546 59 c 0,3,4
 596 59 596 59 638.5 79.5 c 128,-1,5
 681 100 681 100 712.5 149 c 128,-1,6
 744 198 744 198 761.5 279.5 c 128,-1,7
 779 361 779 361 779 483 c 0,8,9
 779 604 779 604 764 686 c 128,-1,10
 749 768 749 768 721 817.5 c 128,-1,11
 693 867 693 867 653.5 888 c 128,-1,12
 614 909 614 909 565 909 c 0,13,14
 530 909 530 909 504 890.5 c 128,-1,15
 478 872 478 872 453 849 c 1,16,-1
 453 966 l 1,17,18
 485 985 485 985 522.5 996.5 c 128,-1,19
 560 1008 560 1008 605 1008 c 0,20,21
 677 1008 677 1008 751 977 c 128,-1,22
 825 946 825 946 884.5 882.5 c 128,-1,23
 944 819 944 819 981.5 721 c 128,-1,24
 1019 623 1019 623 1019 489 c 0,25,26
 1019 365 1019 365 982 269 c 128,-1,27
 945 173 945 173 883 107 c 128,-1,28
 821 41 821 41 740.5 7 c 128,-1,29
 660 -27 660 -27 573 -27 c 0,30,31
 540 -27 540 -27 509.5 -23 c 128,-1,32
 479 -19 479 -19 453 -12 c 1,33,-1
 453 87 l 1,0,1
370 13 m 1,34,35
 350 21 350 21 336 29.5 c 128,-1,36
 322 38 322 38 313 45 c 0,37,38
 302 53 302 53 296 60 c 1,39,40
 285 55 285 55 274.5 46.5 c 128,-1,41
 264 38 264 38 254.5 28 c 128,-1,42
 245 18 245 18 237.5 8.5 c 128,-1,43
 230 -1 230 -1 224 -8 c 1,44,-1
 143 -8 l 1,45,46
 150 41 150 41 153.5 98.5 c 128,-1,47
 157 156 157 156 157 219 c 2,48,-1
 157 1247 l 2,49,50
 157 1282 157 1282 146 1301 c 128,-1,51
 135 1320 135 1320 117.5 1330.5 c 128,-1,52
 100 1341 100 1341 79 1347.5 c 128,-1,53
 58 1354 58 1354 38 1366 c 1,54,-1
 38 1427 l 1,55,-1
 370 1427 l 1,56,-1
 370 13 l 1,34,35
EndSplineSet
EndChar

StartChar: c
Encoding: 99 99 67
Width: 967
Flags: W
LayerCount: 2
Fore
SplineSet
602 1006 m 1,0,1
 674 1002 674 1002 727 977.5 c 128,-1,2
 780 953 780 953 814.5 918 c 128,-1,3
 849 883 849 883 866 841 c 128,-1,4
 883 799 883 799 883 759 c 0,5,6
 883 731 883 731 875 706.5 c 128,-1,7
 867 682 867 682 851 663.5 c 128,-1,8
 835 645 835 645 811.5 634 c 128,-1,9
 788 623 788 623 757 623 c 0,10,11
 706 623 706 623 673.5 653.5 c 128,-1,12
 641 684 641 684 641 735 c 0,13,14
 641 764 641 764 650 783 c 128,-1,15
 659 802 659 802 672 814 c 128,-1,16
 685 826 685 826 700 833 c 128,-1,17
 715 840 715 840 727 846 c 1,18,19
 713 880 713 880 681 900 c 128,-1,20
 649 920 649 920 602 925 c 1,21,-1
 602 1006 l 1,0,1
602 64 m 1,22,23
 650 71 650 71 684 93.5 c 128,-1,24
 718 116 718 116 742 147.5 c 128,-1,25
 766 179 766 179 782.5 217.5 c 128,-1,26
 799 256 799 256 812 295 c 1,27,-1
 895 270 l 1,28,29
 878 211 878 211 854 161.5 c 128,-1,30
 830 112 830 112 795 74 c 128,-1,31
 760 36 760 36 712.5 11.5 c 128,-1,32
 665 -13 665 -13 602 -22 c 1,33,-1
 602 64 l 1,22,23
519 -27 m 1,34,35
 429 -25 429 -25 347.5 9.5 c 128,-1,36
 266 44 266 44 204.5 108.5 c 128,-1,37
 143 173 143 173 107 266.5 c 128,-1,38
 71 360 71 360 71 481 c 0,39,40
 71 581 71 581 103.5 673 c 128,-1,41
 136 765 136 765 195 837 c 128,-1,42
 254 909 254 909 336.5 954.5 c 128,-1,43
 419 1000 419 1000 519 1007 c 1,44,-1
 519 919 l 1,45,46
 472 908 472 908 434 876.5 c 128,-1,47
 396 845 396 845 368 792.5 c 128,-1,48
 340 740 340 740 325 665 c 128,-1,49
 310 590 310 590 310 492 c 0,50,51
 310 384 310 384 325.5 306.5 c 128,-1,52
 341 229 341 229 368.5 178 c 128,-1,53
 396 127 396 127 434.5 99.5 c 128,-1,54
 473 72 473 72 519 64 c 1,55,-1
 519 -27 l 1,34,35
EndSplineSet
EndChar

StartChar: d
Encoding: 100 100 68
Width: 1097
Flags: W
LayerCount: 2
Fore
SplineSet
727 1262 m 2,0,1
 727 1294 727 1294 716 1310 c 128,-1,2
 705 1326 705 1326 687 1334.5 c 128,-1,3
 669 1343 669 1343 646 1348.5 c 128,-1,4
 623 1354 623 1354 600 1366 c 1,5,-1
 600 1427 l 1,6,-1
 940 1427 l 1,7,-1
 940 182 l 2,8,9
 940 145 940 145 952 125.5 c 128,-1,10
 964 106 964 106 981.5 94.5 c 128,-1,11
 999 83 999 83 1019.5 76.5 c 128,-1,12
 1040 70 1040 70 1058 59 c 1,13,-1
 1058 0 l 1,14,-1
 727 0 l 1,15,-1
 727 1262 l 2,0,1
644 14 m 1,16,17
 612 -6 612 -6 571.5 -16.5 c 128,-1,18
 531 -27 531 -27 480 -27 c 0,19,20
 398 -27 398 -27 325 7 c 128,-1,21
 252 41 252 41 197.5 106.5 c 128,-1,22
 143 172 143 172 111 266.5 c 128,-1,23
 79 361 79 361 79 481 c 0,24,25
 79 597 79 597 110 694 c 128,-1,26
 141 791 141 791 196.5 860.5 c 128,-1,27
 252 930 252 930 327.5 969 c 128,-1,28
 403 1008 403 1008 493 1008 c 0,29,30
 536 1008 536 1008 574 997.5 c 128,-1,31
 612 987 612 987 644 970 c 1,32,-1
 644 875 l 1,33,34
 620 892 620 892 591.5 900.5 c 128,-1,35
 563 909 563 909 532 909 c 0,36,37
 428 909 428 909 373 803.5 c 128,-1,38
 318 698 318 698 318 483 c 0,39,40
 318 368 318 368 332.5 287.5 c 128,-1,41
 347 207 347 207 373.5 156 c 128,-1,42
 400 105 400 105 437.5 82 c 128,-1,43
 475 59 475 59 520 59 c 0,44,45
 541 59 541 59 558.5 65 c 128,-1,46
 576 71 576 71 590.5 81.5 c 128,-1,47
 605 92 605 92 618 105 c 128,-1,48
 631 118 631 118 644 133 c 1,49,-1
 644 14 l 1,16,17
EndSplineSet
EndChar

StartChar: e
Encoding: 101 101 69
Width: 1050
Flags: W
LayerCount: 2
Fore
SplineSet
576 1006 m 1,0,1
 672 997 672 997 744 956 c 128,-1,2
 816 915 816 915 864 849 c 128,-1,3
 912 783 912 783 935.5 696 c 128,-1,4
 959 609 959 609 959 508 c 1,5,-1
 393 508 l 1,6,-1
 393 596 l 1,7,-1
 720 596 l 1,8,9
 720 747 720 747 684 824.5 c 128,-1,10
 648 902 648 902 576 920 c 1,11,-1
 576 1006 l 1,0,1
580 61 m 1,12,13
 646 64 646 64 693 86.5 c 128,-1,14
 740 109 740 109 773 144.5 c 128,-1,15
 806 180 806 180 827 225 c 128,-1,16
 848 270 848 270 863 317 c 1,17,-1
 949 285 l 1,18,19
 932 222 932 222 902 167.5 c 128,-1,20
 872 113 872 113 827 71.5 c 128,-1,21
 782 30 782 30 720.5 4.5 c 128,-1,22
 659 -21 659 -21 580 -26 c 1,23,-1
 580 61 l 1,12,13
497 -23 m 1,24,25
 398 -12 398 -12 319.5 30 c 128,-1,26
 241 72 241 72 185.5 139.5 c 128,-1,27
 130 207 130 207 100.5 296 c 128,-1,28
 71 385 71 385 71 489 c 0,29,30
 71 600 71 600 101 692 c 128,-1,31
 131 784 131 784 186 852 c 128,-1,32
 241 920 241 920 319 960.5 c 128,-1,33
 397 1001 397 1001 493 1007 c 1,34,-1
 493 924 l 1,35,36
 452 919 452 919 418 897.5 c 128,-1,37
 384 876 384 876 360 832.5 c 128,-1,38
 336 789 336 789 322.5 720.5 c 128,-1,39
 309 652 309 652 309 553 c 0,40,41
 309 507 309 507 311.5 456 c 128,-1,42
 314 405 314 405 320.5 355.5 c 128,-1,43
 327 306 327 306 340 259.5 c 128,-1,44
 353 213 353 213 373.5 174.5 c 128,-1,45
 394 136 394 136 424.5 108.5 c 128,-1,46
 455 81 455 81 497 69 c 1,47,-1
 497 -23 l 1,24,25
EndSplineSet
EndChar

StartChar: f
Encoding: 102 102 70
Width: 660
Flags: W
LayerCount: 2
Fore
SplineSet
415 221 m 2,0,1
 415 195 415 195 417.5 173.5 c 128,-1,2
 420 152 420 152 423 133 c 0,3,4
 427 109 427 109 443 97.5 c 128,-1,5
 459 86 459 86 481 79.5 c 128,-1,6
 503 73 503 73 528 68.5 c 128,-1,7
 553 64 553 64 575 53 c 1,8,-1
 575 0 l 1,9,-1
 55 0 l 1,10,-1
 55 53 l 1,11,12
 73 64 73 64 95 69 c 128,-1,13
 117 74 117 74 138 80.5 c 128,-1,14
 159 87 159 87 174.5 98 c 128,-1,15
 190 109 190 109 195 131 c 0,16,17
 202 163 202 163 202 203 c 2,18,-1
 202 893 l 1,19,-1
 41 893 l 1,20,-1
 41 950 l 1,21,22
 52 962 52 962 73.5 966 c 128,-1,23
 95 970 95 970 118.5 973 c 128,-1,24
 142 976 142 976 164 981.5 c 128,-1,25
 186 987 186 987 200 1001 c 1,26,27
 205 1096 205 1096 217 1170 c 128,-1,28
 229 1244 229 1244 253.5 1298 c 128,-1,29
 278 1352 278 1352 317 1386.5 c 128,-1,30
 356 1421 356 1421 415 1437 c 1,31,-1
 415 221 l 2,0,1
498 1450 m 1,32,33
 509 1451 509 1451 521 1451.5 c 128,-1,34
 533 1452 533 1452 546 1452 c 0,35,36
 598 1452 598 1452 642.5 1439.5 c 128,-1,37
 687 1427 687 1427 719.5 1403.5 c 128,-1,38
 752 1380 752 1380 770.5 1346 c 128,-1,39
 789 1312 789 1312 789 1270 c 0,40,41
 789 1241 789 1241 779 1219.5 c 128,-1,42
 769 1198 769 1198 753.5 1184 c 128,-1,43
 738 1170 738 1170 718 1163.5 c 128,-1,44
 698 1157 698 1157 677 1157 c 0,45,46
 658 1157 658 1157 640.5 1162.5 c 128,-1,47
 623 1168 623 1168 609.5 1178.5 c 128,-1,48
 596 1189 596 1189 588 1205 c 128,-1,49
 580 1221 580 1221 580 1241 c 0,50,51
 580 1267 580 1267 599 1288 c 128,-1,52
 618 1309 618 1309 660 1320 c 1,53,54
 654 1336 654 1336 638 1348 c 0,55,56
 624 1359 624 1359 598.5 1367.5 c 128,-1,57
 573 1376 573 1376 530 1376 c 0,58,59
 515 1376 515 1376 498 1371 c 1,60,-1
 498 1450 l 1,32,33
498 981 m 1,61,-1
 628 981 l 1,62,-1
 628 893 l 1,63,-1
 498 893 l 1,64,-1
 498 981 l 1,61,-1
EndSplineSet
EndChar

StartChar: g
Encoding: 103 103 71
Width: 1033
Flags: W
LayerCount: 2
Fore
SplineSet
356 320 m 1,0,1
 344 297 344 297 336.5 270 c 128,-1,2
 329 243 329 243 329 211 c 0,3,4
 329 207 329 207 357.5 207.5 c 128,-1,5
 386 208 386 208 432.5 207.5 c 128,-1,6
 479 207 479 207 538.5 204.5 c 128,-1,7
 598 202 598 202 660 193.5 c 128,-1,8
 722 185 722 185 781.5 168 c 128,-1,9
 841 151 841 151 887.5 122 c 128,-1,10
 934 93 934 93 962.5 49.5 c 128,-1,11
 991 6 991 6 991 -55 c 0,12,13
 991 -118 991 -118 961 -173.5 c 128,-1,14
 931 -229 931 -229 875.5 -272 c 128,-1,15
 820 -315 820 -315 741.5 -341.5 c 128,-1,16
 663 -368 663 -368 566 -372 c 1,17,-1
 566 -306 l 1,18,19
 629 -302 629 -302 678 -283.5 c 128,-1,20
 727 -265 727 -265 761 -237.5 c 128,-1,21
 795 -210 795 -210 812.5 -175.5 c 128,-1,22
 830 -141 830 -141 830 -104 c 0,23,24
 830 -24 830 -24 752.5 21 c 128,-1,25
 675 66 675 66 527 66 c 0,26,27
 421 66 421 66 343 57 c 1,28,29
 318 48 318 48 302 32 c 128,-1,30
 286 16 286 16 277 -5.5 c 128,-1,31
 268 -27 268 -27 265 -53.5 c 128,-1,32
 262 -80 262 -80 262 -109 c 0,33,34
 262 -147 262 -147 278.5 -180.5 c 128,-1,35
 295 -214 295 -214 323.5 -240 c 128,-1,36
 352 -266 352 -266 390.5 -283 c 128,-1,37
 429 -300 429 -300 473 -305 c 1,38,-1
 473 -372 l 1,39,40
 383 -367 383 -367 313.5 -342.5 c 128,-1,41
 244 -318 244 -318 196.5 -280.5 c 128,-1,42
 149 -243 149 -243 125 -196.5 c 128,-1,43
 101 -150 101 -150 101 -102 c 0,44,45
 101 -59 101 -59 115 -24 c 128,-1,46
 129 11 129 11 151.5 36.5 c 128,-1,47
 174 62 174 62 200.5 79.5 c 128,-1,48
 227 97 227 97 253 106 c 1,49,-1
 253 111 l 1,50,51
 241 114 241 114 226.5 124.5 c 128,-1,52
 212 135 212 135 198.5 152.5 c 128,-1,53
 185 170 185 170 176 195 c 128,-1,54
 167 220 167 220 167 252 c 0,55,56
 167 269 167 269 175 284.5 c 128,-1,57
 183 300 183 300 196.5 313.5 c 128,-1,58
 210 327 210 327 226.5 339.5 c 128,-1,59
 243 352 243 352 260 363 c 1,60,-1
 356 320 l 1,0,1
285 418 m 0,61,62
 210 460 210 460 166 526 c 128,-1,63
 122 592 122 592 122 688 c 0,64,65
 122 752 122 752 147 806.5 c 128,-1,66
 172 861 172 861 217 902 c 128,-1,67
 262 943 262 943 325 969 c 128,-1,68
 388 995 388 995 464 1002 c 1,69,-1
 464 933 l 1,70,71
 438 927 438 927 415.5 911 c 128,-1,72
 393 895 393 895 376.5 865.5 c 128,-1,73
 360 836 360 836 351 790.5 c 128,-1,74
 342 745 342 745 342 680 c 256,75,76
 342 615 342 615 351 569.5 c 128,-1,77
 360 524 360 524 376.5 494.5 c 128,-1,78
 393 465 393 465 415.5 449 c 128,-1,79
 438 433 438 433 464 427 c 1,80,-1
 464 358 l 1,81,82
 450 359 450 359 434 361 c 128,-1,83
 418 363 418 363 397 369 c 128,-1,84
 376 375 376 375 348.5 386 c 128,-1,85
 321 397 321 397 285 418 c 0,61,62
547 426 m 1,86,87
 574 432 574 432 597 447 c 128,-1,88
 620 462 620 462 637.5 491.5 c 128,-1,89
 655 521 655 521 664.5 567 c 128,-1,90
 674 613 674 613 674 680 c 0,91,92
 674 746 674 746 664.5 792 c 128,-1,93
 655 838 655 838 637.5 867.5 c 128,-1,94
 620 897 620 897 597 912.5 c 128,-1,95
 574 928 574 928 547 934 c 1,96,-1
 547 1003 l 1,97,98
 590 1000 590 1000 624 992.5 c 128,-1,99
 658 985 658 985 688 975 c 1,100,101
 701 1043 701 1043 743.5 1078.5 c 128,-1,102
 786 1114 786 1114 861 1114 c 0,103,104
 890 1114 890 1114 914 1105.5 c 128,-1,105
 938 1097 938 1097 955.5 1083 c 128,-1,106
 973 1069 973 1069 982.5 1051 c 128,-1,107
 992 1033 992 1033 992 1014 c 0,108,109
 992 970 992 970 970 941.5 c 128,-1,110
 948 913 948 913 902 913 c 0,111,112
 860 913 860 913 838 933.5 c 128,-1,113
 816 954 816 954 816 985 c 0,114,115
 816 996 816 996 821.5 1010.5 c 128,-1,116
 827 1025 827 1025 831 1036 c 1,117,118
 770 1033 770 1033 759 942 c 1,119,120
 794 914 794 914 819 887.5 c 128,-1,121
 844 861 844 861 860.5 831.5 c 128,-1,122
 877 802 877 802 884.5 767.5 c 128,-1,123
 892 733 892 733 892 690 c 0,124,125
 892 620 892 620 867 562 c 128,-1,126
 842 504 842 504 796 461 c 128,-1,127
 750 418 750 418 686.5 391.5 c 128,-1,128
 623 365 623 365 547 358 c 1,129,-1
 547 426 l 1,86,87
EndSplineSet
EndChar

StartChar: h
Encoding: 104 104 72
Width: 1188
Flags: W
LayerCount: 2
Fore
SplineSet
411 158 m 2,0,1
 411 130 411 130 422.5 114.5 c 128,-1,2
 434 99 434 99 452.5 89.5 c 128,-1,3
 471 80 471 80 493.5 72.5 c 128,-1,4
 516 65 516 65 537 53 c 1,5,-1
 537 0 l 1,6,-1
 71 0 l 1,7,-1
 71 53 l 1,8,9
 93 65 93 65 115.5 72.5 c 128,-1,10
 138 80 138 80 156 89.5 c 128,-1,11
 174 99 174 99 185.5 114.5 c 128,-1,12
 197 130 197 130 197 158 c 2,13,-1
 197 1262 l 2,14,15
 197 1294 197 1294 186 1310 c 128,-1,16
 175 1326 175 1326 157 1334.5 c 128,-1,17
 139 1343 139 1343 116 1348.5 c 128,-1,18
 93 1354 93 1354 69 1366 c 1,19,-1
 69 1427 l 1,20,-1
 411 1427 l 1,21,-1
 411 158 l 2,0,1
494 948 m 1,22,23
 532 974 532 974 583 991 c 128,-1,24
 634 1008 634 1008 698 1008 c 256,25,26
 762 1008 762 1008 819 989.5 c 128,-1,27
 876 971 876 971 918.5 935.5 c 128,-1,28
 961 900 961 900 986 847 c 128,-1,29
 1011 794 1011 794 1011 725 c 2,30,-1
 1011 158 l 2,31,32
 1011 130 1011 130 1023 114.5 c 128,-1,33
 1035 99 1035 99 1053 89.5 c 128,-1,34
 1071 80 1071 80 1093 72.5 c 128,-1,35
 1115 65 1115 65 1135 53 c 1,36,-1
 1135 0 l 1,37,-1
 748 0 l 1,38,-1
 748 72 l 2,39,40
 748 90 748 90 756 99.5 c 128,-1,41
 764 109 764 109 773 118.5 c 128,-1,42
 782 128 782 128 790 140.5 c 128,-1,43
 798 153 798 153 798 176 c 2,44,-1
 798 729 l 2,45,46
 798 777 798 777 786.5 809.5 c 128,-1,47
 775 842 775 842 754 862.5 c 128,-1,48
 733 883 733 883 705 892 c 128,-1,49
 677 901 677 901 644 901 c 0,50,51
 602 901 602 901 564 884.5 c 128,-1,52
 526 868 526 868 494 839 c 1,53,-1
 494 948 l 1,22,23
EndSplineSet
EndChar

StartChar: i
Encoding: 105 105 73
Width: 636
Flags: W
LayerCount: 2
Fore
SplineSet
437 993 m 1,0,-1
 437 158 l 2,1,2
 437 130 437 130 448.5 114.5 c 128,-1,3
 460 99 460 99 478.5 89.5 c 128,-1,4
 497 80 497 80 519 72.5 c 128,-1,5
 541 65 541 65 562 53 c 1,6,-1
 562 0 l 1,7,-1
 97 0 l 1,8,-1
 97 53 l 1,9,10
 118 65 118 65 140.5 72.5 c 128,-1,11
 163 80 163 80 181.5 89.5 c 128,-1,12
 200 99 200 99 212 114.5 c 128,-1,13
 224 130 224 130 224 158 c 2,14,-1
 224 827 l 2,15,16
 224 859 224 859 213 875 c 128,-1,17
 202 891 202 891 184 900 c 128,-1,18
 166 909 166 909 143 914.5 c 128,-1,19
 120 920 120 920 97 932 c 1,20,-1
 97 987 l 1,21,-1
 437 993 l 1,0,-1
320 1432 m 0,22,23
 348 1432 348 1432 372.5 1422.5 c 128,-1,24
 397 1413 397 1413 415 1396 c 128,-1,25
 433 1379 433 1379 443 1355.5 c 128,-1,26
 453 1332 453 1332 453 1303 c 256,27,28
 453 1274 453 1274 443 1251 c 128,-1,29
 433 1228 433 1228 415 1211 c 128,-1,30
 397 1194 397 1194 372.5 1185 c 128,-1,31
 348 1176 348 1176 320 1176 c 0,32,33
 261 1176 261 1176 224 1211 c 128,-1,34
 187 1246 187 1246 187 1303 c 0,35,36
 187 1361 187 1361 224 1396.5 c 128,-1,37
 261 1432 261 1432 320 1432 c 0,22,23
EndSplineSet
EndChar

StartChar: j
Encoding: 106 106 74
Width: 548
Flags: W
LayerCount: 2
Fore
SplineSet
100 -416 m 1,0,1
 91 -417 91 -417 82.5 -417 c 128,-1,2
 74 -417 74 -417 65 -417 c 0,3,4
 12 -417 12 -417 -30.5 -404.5 c 128,-1,5
 -73 -392 -73 -392 -103 -369.5 c 128,-1,6
 -133 -347 -133 -347 -149.5 -315.5 c 128,-1,7
 -166 -284 -166 -284 -166 -246 c 0,8,9
 -166 -193 -166 -193 -134.5 -163 c 128,-1,10
 -103 -133 -103 -133 -52 -133 c 0,11,12
 -22 -133 -22 -133 -1.5 -143.5 c 128,-1,13
 19 -154 19 -154 31.5 -170.5 c 128,-1,14
 44 -187 44 -187 49 -206 c 128,-1,15
 54 -225 54 -225 54 -242 c 0,16,17
 54 -265 54 -265 47 -283 c 128,-1,18
 40 -301 40 -301 29 -301 c 1,19,20
 39 -324 39 -324 86 -324 c 2,21,-1
 100 -324 l 1,22,-1
 100 -416 l 1,0,1
183 819 m 2,23,24
 183 849 183 849 170 865 c 128,-1,25
 157 881 157 881 137.5 891.5 c 128,-1,26
 118 902 118 902 94.5 910 c 128,-1,27
 71 918 71 918 50 932 c 1,28,-1
 50 993 l 1,29,-1
 397 993 l 1,30,-1
 397 10 l 2,31,32
 397 -70 397 -70 387 -138 c 128,-1,33
 377 -206 377 -206 352.5 -259 c 128,-1,34
 328 -312 328 -312 287 -348.5 c 128,-1,35
 246 -385 246 -385 183 -402 c 1,36,-1
 183 819 l 2,23,24
270 1432 m 256,37,38
 328 1432 328 1432 365.5 1396.5 c 128,-1,39
 403 1361 403 1361 403 1303 c 0,40,41
 403 1246 403 1246 365.5 1211 c 128,-1,42
 328 1176 328 1176 270 1176 c 256,43,44
 212 1176 212 1176 175 1211 c 128,-1,45
 138 1246 138 1246 138 1303 c 0,46,47
 138 1361 138 1361 175 1396.5 c 128,-1,48
 212 1432 212 1432 270 1432 c 256,37,38
EndSplineSet
EndChar

StartChar: k
Encoding: 107 107 75
Width: 1076
Flags: W
LayerCount: 2
Fore
SplineSet
392 201 m 2,0,1
 392 164 392 164 397 142.5 c 128,-1,2
 402 121 402 121 411 108.5 c 128,-1,3
 420 96 420 96 432 90.5 c 128,-1,4
 444 85 444 85 458 80.5 c 128,-1,5
 472 76 472 76 487 70.5 c 128,-1,6
 502 65 502 65 517 53 c 1,7,-1
 517 0 l 1,8,-1
 52 0 l 1,9,-1
 52 53 l 1,10,11
 74 71 74 71 97 76 c 128,-1,12
 120 81 120 81 138 90.5 c 128,-1,13
 156 100 156 100 167.5 123 c 128,-1,14
 179 146 179 146 179 201 c 2,15,-1
 179 1217 l 2,16,17
 179 1256 179 1256 174 1279.5 c 128,-1,18
 169 1303 169 1303 160.5 1315.5 c 128,-1,19
 152 1328 152 1328 140 1333 c 128,-1,20
 128 1338 128 1338 114 1341.5 c 128,-1,21
 100 1345 100 1345 84 1349.5 c 128,-1,22
 68 1354 68 1354 52 1366 c 1,23,-1
 52 1427 l 1,24,-1
 392 1427 l 1,25,-1
 392 201 l 2,0,1
475 598 m 1,26,-1
 653 764 l 2,27,28
 694 802 694 802 708 824 c 128,-1,29
 722 846 722 846 722 858 c 0,30,31
 722 873 722 873 710.5 881 c 128,-1,32
 699 889 699 889 681 894.5 c 128,-1,33
 663 900 663 900 641.5 904.5 c 128,-1,34
 620 909 620 909 601 918 c 1,35,-1
 601 981 l 1,36,-1
 1045 981 l 1,37,-1
 1045 922 l 1,38,39
 1022 911 1022 911 995 899.5 c 128,-1,40
 968 888 968 888 934.5 868.5 c 128,-1,41
 901 849 901 849 859 817.5 c 128,-1,42
 817 786 817 786 764 735 c 2,43,-1
 650 625 l 1,44,-1
 950 139 l 2,45,46
 966 112 966 112 983.5 99.5 c 128,-1,47
 1001 87 1001 87 1019 81 c 128,-1,48
 1037 75 1037 75 1055 70.5 c 128,-1,49
 1073 66 1073 66 1092 55 c 1,50,-1
 1092 0 l 1,51,-1
 703 0 l 1,52,-1
 653 100 l 1,53,54
 653 110 653 110 660 114 c 128,-1,55
 667 118 667 118 675.5 121.5 c 128,-1,56
 684 125 684 125 691 130 c 128,-1,57
 698 135 698 135 698 147 c 1,58,59
 686 175 686 175 663 215.5 c 128,-1,60
 640 256 640 256 613 302 c 128,-1,61
 586 348 586 348 557 396 c 128,-1,62
 528 444 528 444 504 487 c 2,63,-1
 475 538 l 1,64,-1
 475 598 l 1,26,-1
EndSplineSet
EndChar

StartChar: l
Encoding: 108 108 76
Width: 570
Flags: W
LayerCount: 2
Fore
SplineSet
397 1427 m 1,0,-1
 397 158 l 2,1,2
 397 130 397 130 408.5 114.5 c 128,-1,3
 420 99 420 99 438 89.5 c 128,-1,4
 456 80 456 80 478.5 72.5 c 128,-1,5
 501 65 501 65 523 53 c 1,6,-1
 523 0 l 1,7,-1
 57 0 l 1,8,-1
 57 53 l 1,9,10
 78 65 78 65 100.5 72.5 c 128,-1,11
 123 80 123 80 141 89.5 c 128,-1,12
 159 99 159 99 171 114.5 c 128,-1,13
 183 130 183 130 183 158 c 2,14,-1
 183 1260 l 2,15,16
 183 1289 183 1289 171 1304.5 c 128,-1,17
 159 1320 159 1320 140 1330 c 128,-1,18
 121 1340 121 1340 98 1347 c 128,-1,19
 75 1354 75 1354 54 1366 c 1,20,-1
 54 1427 l 1,21,-1
 397 1427 l 1,0,-1
EndSplineSet
EndChar

StartChar: m
Encoding: 109 109 77
Width: 1714
Flags: W
LayerCount: 2
Fore
SplineSet
971 158 m 2,0,1
 971 129 971 129 982 113 c 128,-1,2
 993 97 993 97 1010.5 87.5 c 128,-1,3
 1028 78 1028 78 1049 71.5 c 128,-1,4
 1070 65 1070 65 1090 53 c 1,5,-1
 1090 0 l 1,6,-1
 707 0 l 1,7,-1
 707 68 l 2,8,9
 707 84 707 84 715 93 c 128,-1,10
 723 102 723 102 732 110.5 c 128,-1,11
 741 119 741 119 749 130.5 c 128,-1,12
 757 142 757 142 757 164 c 2,13,-1
 757 741 l 2,14,15
 757 819 757 819 722 860 c 128,-1,16
 687 901 687 901 617 901 c 0,17,18
 573 901 573 901 539.5 887 c 128,-1,19
 506 873 506 873 480 848 c 1,20,-1
 480 949 l 1,21,22
 518 975 518 975 566.5 991.5 c 128,-1,23
 615 1008 615 1008 677 1008 c 256,24,25
 739 1008 739 1008 789 992 c 128,-1,26
 839 976 839 976 875.5 949 c 128,-1,27
 912 922 912 922 936 886 c 128,-1,28
 960 850 960 850 971 809 c 1,29,-1
 971 158 l 2,0,1
1054 950 m 1,30,31
 1096 976 1096 976 1145.5 991 c 128,-1,32
 1195 1006 1195 1006 1254 1006 c 0,33,34
 1319 1006 1319 1006 1372.5 989 c 128,-1,35
 1426 972 1426 972 1464.5 937 c 128,-1,36
 1503 902 1503 902 1524 848 c 128,-1,37
 1545 794 1545 794 1545 721 c 2,38,-1
 1545 158 l 2,39,40
 1545 129 1545 129 1556.5 113 c 128,-1,41
 1568 97 1568 97 1585.5 87.5 c 128,-1,42
 1603 78 1603 78 1624.5 71.5 c 128,-1,43
 1646 65 1646 65 1667 53 c 1,44,-1
 1667 0 l 1,45,-1
 1282 0 l 1,46,-1
 1282 68 l 2,47,48
 1282 84 1282 84 1290 93.5 c 128,-1,49
 1298 103 1298 103 1307 112 c 128,-1,50
 1316 121 1316 121 1324 133 c 128,-1,51
 1332 145 1332 145 1332 166 c 2,52,-1
 1332 750 l 2,53,54
 1332 827 1332 827 1295.5 864 c 128,-1,55
 1259 901 1259 901 1190 901 c 0,56,57
 1150 901 1150 901 1116 888 c 128,-1,58
 1082 875 1082 875 1054 852 c 1,59,-1
 1054 950 l 1,30,31
397 158 m 2,60,61
 397 130 397 130 408.5 114.5 c 128,-1,62
 420 99 420 99 438 89.5 c 128,-1,63
 456 80 456 80 478.5 72.5 c 128,-1,64
 501 65 501 65 523 53 c 1,65,-1
 523 0 l 1,66,-1
 57 0 l 1,67,-1
 57 53 l 1,68,69
 78 65 78 65 100.5 72.5 c 128,-1,70
 123 80 123 80 141 89.5 c 128,-1,71
 159 99 159 99 171 114.5 c 128,-1,72
 183 130 183 130 183 158 c 2,73,-1
 183 778 l 2,74,75
 183 817 183 817 178 839.5 c 128,-1,76
 173 862 173 862 164.5 875 c 128,-1,77
 156 888 156 888 144 893 c 128,-1,78
 132 898 132 898 117.5 901.5 c 128,-1,79
 103 905 103 905 87 909.5 c 128,-1,80
 71 914 71 914 54 926 c 1,81,-1
 54 987 l 1,82,-1
 390 987 l 1,83,-1
 397 875 l 1,84,-1
 397 158 l 2,60,61
EndSplineSet
EndChar

StartChar: n
Encoding: 110 110 78
Width: 1188
Flags: W
LayerCount: 2
Fore
SplineSet
494 945 m 1,0,1
 533 973 533 973 584.5 990.5 c 128,-1,2
 636 1008 636 1008 701 1008 c 0,3,4
 768 1008 768 1008 825 989.5 c 128,-1,5
 882 971 882 971 923.5 935.5 c 128,-1,6
 965 900 965 900 988 847 c 128,-1,7
 1011 794 1011 794 1011 725 c 2,8,-1
 1011 199 l 2,9,10
 1011 180 1011 180 1012 162.5 c 128,-1,11
 1013 145 1013 145 1016 129 c 0,12,13
 1020 108 1020 108 1034 97.5 c 128,-1,14
 1048 87 1048 87 1065.5 81 c 128,-1,15
 1083 75 1083 75 1102 70 c 128,-1,16
 1121 65 1121 65 1135 53 c 1,17,-1
 1135 0 l 1,18,-1
 748 0 l 1,19,-1
 748 68 l 2,20,21
 748 84 748 84 756 93 c 128,-1,22
 764 102 764 102 773 110.5 c 128,-1,23
 782 119 782 119 790 130.5 c 128,-1,24
 798 142 798 142 798 164 c 2,25,-1
 798 735 l 2,26,27
 798 781 798 781 786.5 813 c 128,-1,28
 775 845 775 845 754.5 864.5 c 128,-1,29
 734 884 734 884 706 892.5 c 128,-1,30
 678 901 678 901 646 901 c 0,31,32
 604 901 604 901 565 883.5 c 128,-1,33
 526 866 526 866 494 836 c 1,34,-1
 494 945 l 1,0,1
411 203 m 2,35,36
 411 165 411 165 417 131 c 0,37,38
 421 110 421 110 435 99.5 c 128,-1,39
 449 89 449 89 466.5 82.5 c 128,-1,40
 484 76 484 76 503 70.5 c 128,-1,41
 522 65 522 65 537 53 c 1,42,-1
 537 0 l 1,43,-1
 71 0 l 1,44,-1
 71 53 l 1,45,46
 85 65 85 65 104 70.5 c 128,-1,47
 123 76 123 76 141 82.5 c 128,-1,48
 159 89 159 89 173 99.5 c 128,-1,49
 187 110 187 110 191 131 c 0,50,51
 197 162 197 162 197 201 c 2,52,-1
 197 778 l 2,53,54
 197 819 197 819 191 854 c 0,55,56
 187 875 187 875 173.5 885 c 128,-1,57
 160 895 160 895 142 900.5 c 128,-1,58
 124 906 124 906 104.5 910.5 c 128,-1,59
 85 915 85 915 69 926 c 1,60,-1
 69 987 l 1,61,-1
 411 987 l 1,62,-1
 411 203 l 2,35,36
EndSplineSet
EndChar

StartChar: o
Encoding: 111 111 79
Width: 1053
Flags: W
LayerCount: 2
Fore
SplineSet
483 -25 m 1,0,1
 403 -17 403 -17 330 19.5 c 128,-1,2
 257 56 257 56 201.5 120.5 c 128,-1,3
 146 185 146 185 112.5 277.5 c 128,-1,4
 79 370 79 370 79 489 c 0,5,6
 79 609 79 609 112.5 702 c 128,-1,7
 146 795 146 795 202 860 c 128,-1,8
 258 925 258 925 331 961.5 c 128,-1,9
 404 998 404 998 483 1006 c 1,10,-1
 483 928 l 1,11,12
 441 920 441 920 408.5 892.5 c 128,-1,13
 376 865 376 865 354.5 813 c 128,-1,14
 333 761 333 761 321.5 681 c 128,-1,15
 310 601 310 601 310 489 c 256,16,17
 310 377 310 377 321.5 298 c 128,-1,18
 333 219 333 219 354.5 167.5 c 128,-1,19
 376 116 376 116 408.5 88.5 c 128,-1,20
 441 61 441 61 483 53 c 1,21,-1
 483 -25 l 1,0,1
566 52 m 1,22,23
 608 59 608 59 641 85.5 c 128,-1,24
 674 112 674 112 696.5 164 c 128,-1,25
 719 216 719 216 731 295.5 c 128,-1,26
 743 375 743 375 743 489 c 0,27,28
 743 604 743 604 730.5 684.5 c 128,-1,29
 718 765 718 765 695 817 c 128,-1,30
 672 869 672 869 639 895.5 c 128,-1,31
 606 922 606 922 566 929 c 1,32,-1
 566 1007 l 1,33,34
 645 1001 645 1001 719 965 c 128,-1,35
 793 929 793 929 850 863.5 c 128,-1,36
 907 798 907 798 941.5 704.5 c 128,-1,37
 976 611 976 611 976 489 c 0,38,39
 976 368 976 368 942 275 c 128,-1,40
 908 182 908 182 851.5 117 c 128,-1,41
 795 52 795 52 721 16 c 128,-1,42
 647 -20 647 -20 566 -26 c 1,43,-1
 566 52 l 1,22,23
EndSplineSet
Substitution2: "Single Substitution lookup 8 subtable" ordmasculine
Substitution2: "'sups' Superscript in Latin lookup 5 subtable" ordmasculine
Substitution2: "'aalt' Access All Alternates in Latin lookup 0 subtable" ordmasculine
EndChar

StartChar: p
Encoding: 112 112 80
Width: 1097
Flags: W
LayerCount: 2
Fore
SplineSet
370 868 m 1,0,-1
 370 -233 l 1,1,2
 371 -261 371 -261 383 -276.5 c 128,-1,3
 395 -292 395 -292 414.5 -301.5 c 128,-1,4
 434 -311 434 -311 458 -318.5 c 128,-1,5
 482 -326 482 -326 508 -338 c 1,6,-1
 508 -391 l 1,7,-1
 31 -391 l 1,8,-1
 31 -338 l 1,9,10
 52 -326 52 -326 74.5 -318.5 c 128,-1,11
 97 -311 97 -311 115 -301.5 c 128,-1,12
 133 -292 133 -292 144.5 -276.5 c 128,-1,13
 156 -261 156 -261 156 -233 c 2,14,-1
 156 827 l 2,15,16
 156 859 156 859 145 875 c 128,-1,17
 134 891 134 891 116.5 900 c 128,-1,18
 99 909 99 909 76.5 914.5 c 128,-1,19
 54 920 54 920 31 932 c 1,20,-1
 31 993 l 1,21,-1
 363 993 l 1,22,-1
 370 868 l 1,0,-1
454 92 m 1,23,24
 479 75 479 75 507.5 67 c 128,-1,25
 536 59 536 59 562 59 c 0,26,27
 612 59 612 59 652.5 84.5 c 128,-1,28
 693 110 693 110 721 162.5 c 128,-1,29
 749 215 749 215 764 295 c 128,-1,30
 779 375 779 375 779 483 c 0,31,32
 779 603 779 603 763 684.5 c 128,-1,33
 747 766 747 766 719.5 816 c 128,-1,34
 692 866 692 866 655 887.5 c 128,-1,35
 618 909 618 909 577 909 c 0,36,37
 551 909 551 909 531.5 899.5 c 128,-1,38
 512 890 512 890 497 876 c 128,-1,39
 482 862 482 862 471.5 846 c 128,-1,40
 461 830 461 830 453 817 c 1,41,-1
 453 958 l 1,42,43
 487 981 487 981 528.5 994.5 c 128,-1,44
 570 1008 570 1008 620 1008 c 0,45,46
 708 1008 708 1008 781 967.5 c 128,-1,47
 854 927 854 927 907 856.5 c 128,-1,48
 960 786 960 786 989.5 691.5 c 128,-1,49
 1019 597 1019 597 1019 489 c 0,50,51
 1019 369 1019 369 988 273 c 128,-1,52
 957 177 957 177 901.5 110.5 c 128,-1,53
 846 44 846 44 768 8.5 c 128,-1,54
 690 -27 690 -27 596 -27 c 0,55,56
 554 -27 554 -27 519 -19 c 128,-1,57
 484 -11 484 -11 453 3 c 1,58,-1
 454 92 l 1,23,24
EndSplineSet
EndChar

StartChar: q
Encoding: 113 113 81
Width: 1097
Flags: W
LayerCount: 2
Fore
SplineSet
727 935 m 1,0,1
 736 931 736 931 747.5 927.5 c 128,-1,2
 759 924 759 924 770 921 c 0,3,4
 782 917 782 917 794 913 c 1,5,-1
 869 987 l 1,6,-1
 954 987 l 1,7,8
 949 941 949 941 944.5 883.5 c 128,-1,9
 940 826 940 826 940 760 c 2,10,-1
 940 -233 l 2,11,12
 940 -261 940 -261 951.5 -276.5 c 128,-1,13
 963 -292 963 -292 981.5 -301.5 c 128,-1,14
 1000 -311 1000 -311 1022.5 -318.5 c 128,-1,15
 1045 -326 1045 -326 1067 -338 c 1,16,-1
 1067 -391 l 1,17,-1
 589 -391 l 1,18,-1
 589 -338 l 1,19,20
 615 -326 615 -326 639.5 -319 c 128,-1,21
 664 -312 664 -312 683.5 -302 c 128,-1,22
 703 -292 703 -292 715 -276.5 c 128,-1,23
 727 -261 727 -261 727 -233 c 2,24,-1
 727 935 l 1,0,1
644 2 m 1,25,26
 614 -12 614 -12 580 -19.5 c 128,-1,27
 546 -27 546 -27 505 -27 c 0,28,29
 413 -27 413 -27 335 8 c 128,-1,30
 257 43 257 43 200 109 c 128,-1,31
 143 175 143 175 111 270.5 c 128,-1,32
 79 366 79 366 79 487 c 0,33,34
 79 605 79 605 115.5 701 c 128,-1,35
 152 797 152 797 213 865 c 128,-1,36
 274 933 274 933 354 970.5 c 128,-1,37
 434 1008 434 1008 520 1008 c 0,38,39
 557 1008 557 1008 587.5 1000 c 128,-1,40
 618 992 618 992 644 980 c 1,41,-1
 644 886 l 1,42,43
 623 899 623 899 598 904 c 128,-1,44
 573 909 573 909 548 909 c 0,45,46
 495 909 495 909 452.5 884 c 128,-1,47
 410 859 410 859 380 807 c 128,-1,48
 350 755 350 755 334 674 c 128,-1,49
 318 593 318 593 318 481 c 0,50,51
 318 370 318 370 333 290.5 c 128,-1,52
 348 211 348 211 375.5 159.5 c 128,-1,53
 403 108 403 108 443 83.5 c 128,-1,54
 483 59 483 59 534 59 c 0,55,56
 578 59 578 59 603 78 c 128,-1,57
 628 97 628 97 644 120 c 1,58,-1
 644 2 l 1,25,26
EndSplineSet
EndChar

StartChar: r
Encoding: 114 114 82
Width: 812
Flags: W
LayerCount: 2
Fore
SplineSet
406 750 m 1,0,-1
 406 197 l 2,1,2
 406 162 406 162 411.5 141 c 128,-1,3
 417 120 417 120 426.5 107.5 c 128,-1,4
 436 95 436 95 450 89.5 c 128,-1,5
 464 84 464 84 480.5 79.5 c 128,-1,6
 497 75 497 75 516 69.5 c 128,-1,7
 535 64 535 64 555 53 c 1,8,-1
 555 0 l 1,9,-1
 73 0 l 1,10,-1
 73 53 l 1,11,12
 92 65 92 65 113 72.5 c 128,-1,13
 134 80 134 80 152 89.5 c 128,-1,14
 170 99 170 99 181.5 114.5 c 128,-1,15
 193 130 193 130 193 158 c 2,16,-1
 193 737 l 2,17,18
 193 765 193 765 191 789.5 c 128,-1,19
 189 814 189 814 186 836 c 0,20,21
 183 862 183 862 169.5 875 c 128,-1,22
 156 888 156 888 138.5 896 c 128,-1,23
 121 904 121 904 102 909.5 c 128,-1,24
 83 915 83 915 69 926 c 1,25,-1
 69 987 l 1,26,-1
 394 987 l 1,27,-1
 406 750 l 1,0,-1
489 916 m 1,28,29
 521 956 521 956 562 982 c 128,-1,30
 603 1008 603 1008 657 1008 c 0,31,32
 692 1008 692 1008 721 996.5 c 128,-1,33
 750 985 750 985 770.5 964 c 128,-1,34
 791 943 791 943 802.5 914 c 128,-1,35
 814 885 814 885 814 850 c 0,36,37
 814 787 814 787 785 752.5 c 128,-1,38
 756 718 756 718 703 718 c 0,39,40
 668 718 668 718 643 739 c 128,-1,41
 618 760 618 760 618 792 c 0,42,43
 618 806 618 806 624 821 c 128,-1,44
 630 836 630 836 644 852 c 1,45,46
 635 858 635 858 621 858 c 0,47,48
 584 858 584 858 552.5 834 c 128,-1,49
 521 810 521 810 495 771 c 2,50,-1
 489 762 l 1,51,-1
 489 916 l 1,28,29
EndSplineSet
EndChar

StartChar: s
Encoding: 115 115 83
Width: 900
Flags: W
LayerCount: 2
Fore
SplineSet
473 53 m 1,0,1
 548 64 548 64 593.5 108.5 c 128,-1,2
 639 153 639 153 639 225 c 0,3,4
 639 271 639 271 615.5 303.5 c 128,-1,5
 592 336 592 336 553.5 359.5 c 128,-1,6
 515 383 515 383 466 401.5 c 128,-1,7
 417 420 417 420 366 438.5 c 128,-1,8
 315 457 315 457 266 480 c 128,-1,9
 217 503 217 503 178.5 535 c 128,-1,10
 140 567 140 567 116.5 612 c 128,-1,11
 93 657 93 657 93 721 c 0,12,13
 93 767 93 767 112.5 815.5 c 128,-1,14
 132 864 132 864 171 904.5 c 128,-1,15
 210 945 210 945 267.5 973 c 128,-1,16
 325 1001 325 1001 401 1007 c 1,17,-1
 401 928 l 1,18,19
 343 917 343 917 308.5 880 c 128,-1,20
 274 843 274 843 274 786 c 0,21,22
 274 743 274 743 298 713.5 c 128,-1,23
 322 684 322 684 361.5 662.5 c 128,-1,24
 401 641 401 641 451.5 623.5 c 128,-1,25
 502 606 502 606 555 586.5 c 128,-1,26
 608 567 608 567 658.5 543.5 c 128,-1,27
 709 520 709 520 748.5 485 c 128,-1,28
 788 450 788 450 812 401 c 128,-1,29
 836 352 836 352 836 283 c 0,30,31
 836 237 836 237 816.5 185 c 128,-1,32
 797 133 797 133 754 88 c 128,-1,33
 711 43 711 43 641.5 11.5 c 128,-1,34
 572 -20 572 -20 473 -26 c 1,35,-1
 473 53 l 1,0,1
484 1007 m 1,36,37
 550 1002 550 1002 606 983 c 128,-1,38
 662 964 662 964 703.5 934 c 128,-1,39
 745 904 745 904 768 865 c 128,-1,40
 791 826 791 826 791 782 c 0,41,42
 791 728 791 728 757.5 697 c 128,-1,43
 724 666 724 666 665 666 c 0,44,45
 609 666 609 666 575 695 c 128,-1,46
 541 724 541 724 541 772 c 0,47,48
 541 804 541 804 554 830.5 c 128,-1,49
 567 857 567 857 596 868 c 1,50,51
 565 923 565 923 484 931 c 1,52,-1
 484 1007 l 1,36,37
390 -26 m 1,53,54
 324 -22 324 -22 268 -2.5 c 128,-1,55
 212 17 212 17 170.5 47 c 128,-1,56
 129 77 129 77 106 116 c 128,-1,57
 83 155 83 155 83 199 c 0,58,59
 83 253 83 253 116.5 284 c 128,-1,60
 150 315 150 315 209 315 c 0,61,62
 265 315 265 315 299 286 c 128,-1,63
 333 257 333 257 333 209 c 0,64,65
 333 177 333 177 320 150.5 c 128,-1,66
 307 124 307 124 278 113 c 1,67,68
 309 58 309 58 390 50 c 1,69,-1
 390 -26 l 1,53,54
EndSplineSet
EndChar

StartChar: t
Encoding: 116 116 84
Width: 703
Flags: W
LayerCount: 2
Fore
SplineSet
473 969 m 1,0,-1
 637 969 l 1,1,-1
 637 881 l 1,2,-1
 473 881 l 1,3,-1
 473 969 l 1,0,-1
390 -26 m 1,4,5
 328 -23 328 -23 287 -4 c 128,-1,6
 246 15 246 15 221 48 c 128,-1,7
 196 81 196 81 186 127.5 c 128,-1,8
 176 174 176 174 176 231 c 2,9,-1
 176 881 l 1,10,-1
 41 881 l 1,11,-1
 41 942 l 1,12,13
 56 955 56 955 73.5 963.5 c 128,-1,14
 91 972 91 972 108.5 980.5 c 128,-1,15
 126 989 126 989 141.5 999.5 c 128,-1,16
 157 1010 157 1010 168 1028 c 0,17,18
 192 1065 192 1065 205.5 1101.5 c 128,-1,19
 219 1138 219 1138 228.5 1174.5 c 128,-1,20
 238 1211 238 1211 246.5 1246 c 128,-1,21
 255 1281 255 1281 268 1315 c 1,22,-1
 390 1321 l 1,23,-1
 390 -26 l 1,4,5
473 65 m 1,24,25
 503 65 503 65 524 78 c 128,-1,26
 545 91 545 91 561 115 c 128,-1,27
 577 139 577 139 590 172 c 128,-1,28
 603 205 603 205 615 244 c 1,29,-1
 679 229 l 1,30,31
 670 170 670 170 654.5 125.5 c 128,-1,32
 639 81 639 81 614.5 49.5 c 128,-1,33
 590 18 590 18 555.5 0 c 128,-1,34
 521 -18 521 -18 473 -24 c 1,35,-1
 473 65 l 1,24,25
EndSplineSet
EndChar

StartChar: u
Encoding: 117 117 85
Width: 1164
Flags: W
LayerCount: 2
Fore
SplineSet
687 29 m 1,0,1
 647 4 647 4 592 -11.5 c 128,-1,2
 537 -27 537 -27 465 -27 c 0,3,4
 394 -27 394 -27 340 -11.5 c 128,-1,5
 286 4 286 4 249.5 38 c 128,-1,6
 213 72 213 72 194.5 125.5 c 128,-1,7
 176 179 176 179 176 254 c 2,8,-1
 176 821 l 2,9,10
 176 853 176 853 165 869 c 128,-1,11
 154 885 154 885 137 894 c 128,-1,12
 120 903 120 903 99 908.5 c 128,-1,13
 78 914 78 914 59 926 c 1,14,-1
 59 987 l 1,15,-1
 390 987 l 1,16,-1
 390 236 l 2,17,18
 390 192 390 192 401 162 c 128,-1,19
 412 132 412 132 432 114 c 128,-1,20
 452 96 452 96 479.5 88 c 128,-1,21
 507 80 507 80 539 80 c 0,22,23
 582 80 582 80 619.5 97.5 c 128,-1,24
 657 115 657 115 687 144 c 1,25,-1
 687 29 l 1,0,1
770 821 m 2,26,27
 770 853 770 853 759 869 c 128,-1,28
 748 885 748 885 730 894 c 128,-1,29
 712 903 712 903 690 908.5 c 128,-1,30
 668 914 668 914 646 926 c 1,31,-1
 646 987 l 1,32,-1
 983 987 l 1,33,-1
 983 164 l 2,34,35
 983 132 983 132 994.5 116.5 c 128,-1,36
 1006 101 1006 101 1024 92 c 128,-1,37
 1042 83 1042 83 1063 77 c 128,-1,38
 1084 71 1084 71 1103 59 c 1,39,-1
 1103 0 l 1,40,-1
 784 0 l 1,41,-1
 770 106 l 1,42,-1
 770 821 l 2,26,27
EndSplineSet
EndChar

StartChar: v
Encoding: 118 118 86
Width: 924
Flags: W
LayerCount: 2
Fore
SplineSet
552 339 m 1,0,-1
 685 702 l 2,1,2
 707 762 707 762 717 793 c 128,-1,3
 727 824 727 824 727 846 c 0,4,5
 727 870 727 870 713.5 881 c 128,-1,6
 700 892 700 892 680.5 897.5 c 128,-1,7
 661 903 661 903 639.5 906.5 c 128,-1,8
 618 910 618 910 601 918 c 1,9,-1
 601 981 l 1,10,-1
 969 981 l 1,11,-1
 969 918 l 1,12,13
 957 909 957 909 940.5 905 c 128,-1,14
 924 901 924 901 906.5 894 c 128,-1,15
 889 887 889 887 872 872.5 c 128,-1,16
 855 858 855 858 843 829 c 0,17,18
 839 820 839 820 836 810 c 128,-1,19
 833 800 833 800 829 791 c 2,20,-1
 605 203 l 1,21,-1
 552 339 l 1,0,-1
570 108 m 1,22,-1
 521 -20 l 1,23,-1
 406 -20 l 1,24,-1
 74 840 l 2,25,26
 65 864 65 864 50 875 c 128,-1,27
 35 886 35 886 18.5 893 c 128,-1,28
 2 900 2 900 -15 907.5 c 128,-1,29
 -32 915 -32 915 -47 930 c 1,30,-1
 -47 981 l 1,31,-1
 420 981 l 1,32,-1
 420 920 l 1,33,34
 403 911 403 911 382 907 c 128,-1,35
 361 903 361 903 342.5 897.5 c 128,-1,36
 324 892 324 892 311.5 883 c 128,-1,37
 299 874 299 874 299 854 c 256,38,39
 299 834 299 834 307.5 814 c 128,-1,40
 316 794 316 794 327 762 c 0,41,42
 343 716 343 716 362.5 663.5 c 128,-1,43
 382 611 382 611 405 549 c 128,-1,44
 428 487 428 487 455 414 c 128,-1,45
 482 341 482 341 515 254 c 2,46,-1
 570 108 l 1,22,-1
EndSplineSet
EndChar

StartChar: w
Encoding: 119 119 87
Width: 1450
Flags: W
LayerCount: 2
Fore
SplineSet
491 -20 m 1,0,-1
 385 -20 l 1,1,-1
 83 844 l 2,2,3
 74 870 74 870 60 881.5 c 128,-1,4
 46 893 46 893 30 899 c 128,-1,5
 14 905 14 905 -2.5 909 c 128,-1,6
 -19 913 -19 913 -34 924 c 1,7,-1
 -34 981 l 1,8,-1
 427 981 l 1,9,-1
 427 926 l 1,10,11
 412 915 412 915 390.5 910.5 c 128,-1,12
 369 906 369 906 349.5 900.5 c 128,-1,13
 330 895 330 895 316.5 884.5 c 128,-1,14
 303 874 303 874 303 852 c 0,15,16
 303 833 303 833 313.5 802 c 128,-1,17
 324 771 324 771 342 717 c 2,18,-1
 487 285 l 1,19,-1
 540 132 l 1,20,-1
 491 -20 l 1,0,-1
1104 379 m 1,21,-1
 1210 707 l 2,22,23
 1226 756 1226 756 1237.5 787 c 128,-1,24
 1249 818 1249 818 1249 846 c 0,25,26
 1249 868 1249 868 1235.5 879 c 128,-1,27
 1222 890 1222 890 1202.5 896 c 128,-1,28
 1183 902 1183 902 1161 906 c 128,-1,29
 1139 910 1139 910 1121 918 c 1,30,-1
 1121 981 l 1,31,-1
 1488 981 l 1,32,-1
 1488 928 l 1,33,34
 1481 914 1481 914 1469 909 c 128,-1,35
 1457 904 1457 904 1443.5 900.5 c 128,-1,36
 1430 897 1430 897 1417.5 892 c 128,-1,37
 1405 887 1405 887 1396 872 c 0,38,39
 1364 819 1364 819 1333.5 748 c 128,-1,40
 1303 677 1303 677 1273.5 594.5 c 128,-1,41
 1244 512 1244 512 1214 421 c 128,-1,42
 1184 330 1184 330 1154 236 c 1,43,-1
 1104 379 l 1,21,-1
1123 140 m 1,44,45
 1109 96 1109 96 1095.5 56.5 c 128,-1,46
 1082 17 1082 17 1069 -20 c 1,47,-1
 969 -20 l 1,48,-1
 722 678 l 1,49,-1
 716 678 l 1,50,-1
 572 231 l 1,51,-1
 521 379 l 1,52,-1
 659 805 l 1,53,54
 654 835 654 835 645 854.5 c 128,-1,55
 636 874 636 874 627 890 c 128,-1,56
 618 906 618 906 611 922.5 c 128,-1,57
 604 939 604 939 604 963 c 0,58,59
 604 967 604 967 604 971.5 c 128,-1,60
 604 976 604 976 605 981 c 1,61,-1
 921 981 l 1,62,-1
 936 905 l 1,63,64
 900 905 900 905 888.5 898 c 128,-1,65
 877 891 877 891 877 877 c 1,66,67
 887 832 887 832 902 784.5 c 128,-1,68
 917 737 917 737 939.5 672 c 128,-1,69
 962 607 962 607 994 516 c 128,-1,70
 1026 425 1026 425 1071 293 c 2,71,-1
 1123 140 l 1,44,45
EndSplineSet
EndChar

StartChar: x
Encoding: 120 120 88
Width: 1033
Flags: W
LayerCount: 2
Fore
SplineSet
595 667 m 1,0,1
 625 707 625 707 649.5 736.5 c 128,-1,2
 674 766 674 766 690.5 788.5 c 128,-1,3
 707 811 707 811 716 828.5 c 128,-1,4
 725 846 725 846 725 862 c 0,5,6
 725 874 725 874 715 882 c 128,-1,7
 705 890 705 890 689.5 896 c 128,-1,8
 674 902 674 902 656 907 c 128,-1,9
 638 912 638 912 623 918 c 1,10,-1
 623 981 l 1,11,-1
 1026 981 l 1,12,-1
 1026 926 l 1,13,14
 1012 916 1012 916 995.5 911 c 128,-1,15
 979 906 979 906 960.5 900 c 128,-1,16
 942 894 942 894 922.5 884 c 128,-1,17
 903 874 903 874 884 854 c 0,18,19
 873 843 873 843 861 831 c 128,-1,20
 849 819 849 819 839 807 c 2,21,-1
 659 587 l 1,22,-1
 595 667 l 1,0,1
448 335 m 1,23,24
 382 251 382 251 343 199 c 128,-1,25
 304 147 304 147 304 125 c 0,26,27
 304 108 304 108 315 98.5 c 128,-1,28
 326 89 326 89 341.5 82.5 c 128,-1,29
 357 76 357 76 374.5 71 c 128,-1,30
 392 66 392 66 406 57 c 1,31,-1
 406 0 l 1,32,-1
 -9 0 l 1,33,-1
 -9 57 l 1,34,35
 6 66 6 66 25.5 72 c 128,-1,36
 45 78 45 78 67.5 86.5 c 128,-1,37
 90 95 90 95 114.5 109 c 128,-1,38
 139 123 139 123 164 150 c 0,39,40
 176 163 176 163 188.5 176 c 128,-1,41
 201 189 201 189 214 205 c 2,42,-1
 386 416 l 1,43,-1
 448 335 l 1,23,24
425 465 m 1,44,-1
 159 821 l 2,45,46
 136 853 136 853 117 869 c 128,-1,47
 98 885 98 885 81 893.5 c 128,-1,48
 64 902 64 902 47 906.5 c 128,-1,49
 30 911 30 911 12 920 c 1,50,-1
 12 981 l 1,51,-1
 487 981 l 1,52,-1
 487 918 l 1,53,54
 473 911 473 911 455.5 907.5 c 128,-1,55
 438 904 438 904 423 900 c 128,-1,56
 408 896 408 896 398 889 c 128,-1,57
 388 882 388 882 388 868 c 0,58,59
 388 853 388 853 397.5 838.5 c 128,-1,60
 407 824 407 824 430 793 c 2,61,-1
 558 618 l 1,62,-1
 620 539 l 1,63,-1
 904 158 l 2,64,65
 925 129 925 129 946 114 c 128,-1,66
 967 99 967 99 987 90 c 128,-1,67
 1007 81 1007 81 1025.5 75 c 128,-1,68
 1044 69 1044 69 1061 57 c 1,69,-1
 1061 0 l 1,70,-1
 563 0 l 1,71,-1
 563 55 l 1,72,73
 580 64 580 64 599 70 c 128,-1,74
 618 76 618 76 633.5 82 c 128,-1,75
 649 88 649 88 659.5 97 c 128,-1,76
 670 106 670 106 670 121 c 0,77,78
 670 143 670 143 622 207 c 2,79,-1
 487 385 l 1,80,-1
 425 465 l 1,44,-1
EndSplineSet
EndChar

StartChar: y
Encoding: 121 121 89
Width: 924
Flags: W
LayerCount: 2
Fore
SplineSet
561 365 m 1,0,1
 594 459 594 459 622.5 537.5 c 128,-1,2
 651 616 651 616 673 677 c 128,-1,3
 695 738 695 738 707.5 782 c 128,-1,4
 720 826 720 826 720 852 c 0,5,6
 720 872 720 872 709 881.5 c 128,-1,7
 698 891 698 891 681.5 896.5 c 128,-1,8
 665 902 665 902 645 906.5 c 128,-1,9
 625 911 625 911 607 920 c 1,10,-1
 607 981 l 1,11,-1
 961 981 l 1,12,-1
 961 920 l 1,13,14
 945 910 945 910 928.5 905 c 128,-1,15
 912 900 912 900 897 893.5 c 128,-1,16
 882 887 882 887 869 875.5 c 128,-1,17
 856 864 856 864 847 840 c 2,18,-1
 618 235 l 1,19,-1
 561 365 l 1,0,1
580 136 m 1,20,-1
 463 -168 l 2,21,22
 436 -236 436 -236 404.5 -282.5 c 128,-1,23
 373 -329 373 -329 337 -357.5 c 128,-1,24
 301 -386 301 -386 260 -399 c 128,-1,25
 219 -412 219 -412 174 -412 c 0,26,27
 132 -412 132 -412 97.5 -399.5 c 128,-1,28
 63 -387 63 -387 38.5 -364.5 c 128,-1,29
 14 -342 14 -342 0 -309.5 c 128,-1,30
 -14 -277 -14 -277 -14 -236 c 0,31,32
 -14 -177 -14 -177 19.5 -145 c 128,-1,33
 53 -113 53 -113 104 -113 c 0,34,35
 125 -113 125 -113 143 -120.5 c 128,-1,36
 161 -128 161 -128 175 -140.5 c 128,-1,37
 189 -153 189 -153 197 -170.5 c 128,-1,38
 205 -188 205 -188 205 -207 c 0,39,40
 205 -225 205 -225 196.5 -244.5 c 128,-1,41
 188 -264 188 -264 170 -283 c 1,42,43
 185 -303 185 -303 209 -303 c 0,44,45
 269 -303 269 -303 323.5 -225.5 c 128,-1,46
 378 -148 378 -148 420 -6 c 1,47,-1
 77 850 l 2,48,49
 69 871 69 871 55 882 c 128,-1,50
 41 893 41 893 25 899.5 c 128,-1,51
 9 906 9 906 -7.5 910 c 128,-1,52
 -24 914 -24 914 -38 920 c 1,53,-1
 -38 981 l 1,54,-1
 420 981 l 1,55,-1
 420 922 l 1,56,57
 399 914 399 914 378 908.5 c 128,-1,58
 357 903 357 903 340 896.5 c 128,-1,59
 323 890 323 890 312 881.5 c 128,-1,60
 301 873 301 873 301 858 c 0,61,62
 301 844 301 844 311.5 816.5 c 128,-1,63
 322 789 322 789 342 737 c 2,64,-1
 525 273 l 1,65,-1
 580 136 l 1,20,-1
EndSplineSet
EndChar

StartChar: z
Encoding: 122 122 90
Width: 924
Flags: W
LayerCount: 2
Fore
SplineSet
393 82 m 1,0,1
 425 84 425 84 456 85 c 128,-1,2
 487 86 487 86 515 88 c 0,3,4
 572 92 572 92 609.5 108.5 c 128,-1,5
 647 125 647 125 671.5 148.5 c 128,-1,6
 696 172 696 172 711 200.5 c 128,-1,7
 726 229 726 229 738 259 c 128,-1,8
 750 289 750 289 762 318 c 128,-1,9
 774 347 774 347 793 371 c 1,10,-1
 859 371 l 1,11,-1
 859 0 l 1,12,-1
 339 0 l 1,13,-1
 393 82 l 1,0,1
237 0 m 1,14,-1
 61 0 l 1,15,-1
 61 94 l 1,16,-1
 612 899 l 1,17,-1
 671 981 l 1,18,-1
 847 981 l 1,19,-1
 847 897 l 1,20,-1
 294 82 l 1,21,-1
 237 0 l 1,14,-1
517 899 m 1,22,23
 482 899 482 899 451.5 895.5 c 128,-1,24
 421 892 421 892 397 890 c 0,25,26
 349 884 349 884 317 869 c 128,-1,27
 285 854 285 854 264.5 832.5 c 128,-1,28
 244 811 244 811 232 785.5 c 128,-1,29
 220 760 220 760 210.5 734.5 c 128,-1,30
 201 709 201 709 191.5 685.5 c 128,-1,31
 182 662 182 662 168 645 c 1,32,-1
 102 645 l 1,33,-1
 102 981 l 1,34,-1
 577 981 l 1,35,-1
 517 899 l 1,22,23
EndSplineSet
EndChar

StartChar: braceleft
Encoding: 123 123 91
Width: 987
Flags: W
LayerCount: 2
Fore
SplineSet
349 281 m 2,0,1
 349 335 349 335 342 375.5 c 128,-1,2
 335 416 335 416 315 446.5 c 128,-1,3
 295 477 295 477 260 498.5 c 128,-1,4
 225 520 225 520 170 535 c 1,5,6
 225 550 225 550 260 571.5 c 128,-1,7
 295 593 295 593 315 624 c 128,-1,8
 335 655 335 655 342 696 c 128,-1,9
 349 737 349 737 349 791 c 2,10,-1
 349 1167 l 2,11,12
 349 1267 349 1267 373.5 1328.5 c 128,-1,13
 398 1390 398 1390 445 1423.5 c 128,-1,14
 492 1457 492 1457 560 1468 c 128,-1,15
 628 1479 628 1479 716 1479 c 1,16,-1
 716 1425 l 1,17,18
 664 1416 664 1416 630 1395 c 128,-1,19
 596 1374 596 1374 575.5 1341 c 128,-1,20
 555 1308 555 1308 547 1262.5 c 128,-1,21
 539 1217 539 1217 539 1159 c 2,22,-1
 539 821 l 2,23,24
 539 762 539 762 531.5 715.5 c 128,-1,25
 524 669 524 669 503 634 c 128,-1,26
 482 599 482 599 445 575 c 128,-1,27
 408 551 408 551 349 537 c 1,28,-1
 349 532 l 1,29,30
 408 518 408 518 445 494 c 128,-1,31
 482 470 482 470 503 435 c 128,-1,32
 524 400 524 400 531.5 353.5 c 128,-1,33
 539 307 539 307 539 248 c 2,34,-1
 539 -90 l 2,35,36
 539 -148 539 -148 547 -193 c 128,-1,37
 555 -238 555 -238 575.5 -271 c 128,-1,38
 596 -304 596 -304 630 -324.5 c 128,-1,39
 664 -345 664 -345 716 -354 c 1,40,-1
 716 -408 l 1,41,42
 628 -408 628 -408 560 -396.5 c 128,-1,43
 492 -385 492 -385 445 -351.5 c 128,-1,44
 398 -318 398 -318 373.5 -257 c 128,-1,45
 349 -196 349 -196 349 -96 c 2,46,-1
 349 281 l 2,0,1
EndSplineSet
EndChar

StartChar: bar
Encoding: 124 124 92
Width: 527
Flags: W
LayerCount: 2
Fore
SplineSet
183 1421 m 1,0,-1
 342 1421 l 1,1,-1
 342 0 l 1,2,-1
 183 0 l 1,3,-1
 183 1421 l 1,0,-1
EndSplineSet
EndChar

StartChar: braceright
Encoding: 125 125 93
Width: 988
Flags: W
LayerCount: 2
Fore
SplineSet
639 791 m 2,0,1
 639 737 639 737 646 696 c 128,-1,2
 653 655 653 655 673 624 c 128,-1,3
 693 593 693 593 727.5 571.5 c 128,-1,4
 762 550 762 550 818 535 c 1,5,6
 762 520 762 520 727.5 498.5 c 128,-1,7
 693 477 693 477 673 446.5 c 128,-1,8
 653 416 653 416 646 375.5 c 128,-1,9
 639 335 639 335 639 281 c 2,10,-1
 639 -96 l 2,11,12
 639 -196 639 -196 614.5 -257 c 128,-1,13
 590 -318 590 -318 543 -351.5 c 128,-1,14
 496 -385 496 -385 427 -396.5 c 128,-1,15
 358 -408 358 -408 270 -408 c 1,16,-1
 270 -354 l 1,17,18
 322 -345 322 -345 357 -324.5 c 128,-1,19
 392 -304 392 -304 412 -271 c 128,-1,20
 432 -238 432 -238 440.5 -193 c 128,-1,21
 449 -148 449 -148 449 -90 c 2,22,-1
 449 248 l 2,23,24
 449 307 449 307 456.5 353.5 c 128,-1,25
 464 400 464 400 485 435 c 128,-1,26
 506 470 506 470 543 494 c 128,-1,27
 580 518 580 518 639 532 c 1,28,-1
 639 537 l 1,29,30
 580 551 580 551 543 575 c 128,-1,31
 506 599 506 599 485 634 c 128,-1,32
 464 669 464 669 456.5 715.5 c 128,-1,33
 449 762 449 762 449 821 c 2,34,-1
 449 1159 l 2,35,36
 449 1217 449 1217 440.5 1262.5 c 128,-1,37
 432 1308 432 1308 412 1341 c 128,-1,38
 392 1374 392 1374 357 1395 c 128,-1,39
 322 1416 322 1416 270 1425 c 1,40,-1
 270 1479 l 1,41,42
 358 1479 358 1479 427 1468 c 128,-1,43
 496 1457 496 1457 543 1423.5 c 128,-1,44
 590 1390 590 1390 614.5 1328.5 c 128,-1,45
 639 1267 639 1267 639 1167 c 2,46,-1
 639 791 l 2,0,1
EndSplineSet
EndChar

StartChar: asciitilde
Encoding: 126 126 94
Width: 1425
Flags: W
LayerCount: 2
Fore
SplineSet
1256 524 m 1,0,1
 1229 492 1229 492 1200 461 c 128,-1,2
 1171 430 1171 430 1136 405.5 c 128,-1,3
 1101 381 1101 381 1058 365.5 c 128,-1,4
 1015 350 1015 350 961 350 c 0,5,6
 888 350 888 350 829 371.5 c 128,-1,7
 770 393 770 393 712.5 418.5 c 128,-1,8
 655 444 655 444 592.5 465.5 c 128,-1,9
 530 487 530 487 451 487 c 0,10,11
 412 487 412 487 381.5 474.5 c 128,-1,12
 351 462 351 462 327 441.5 c 128,-1,13
 303 421 303 421 284.5 395.5 c 128,-1,14
 266 370 266 370 252 344 c 1,15,-1
 166 455 l 1,16,17
 185 486 185 486 211.5 517.5 c 128,-1,18
 238 549 238 549 274 574.5 c 128,-1,19
 310 600 310 600 356.5 615.5 c 128,-1,20
 403 631 403 631 463 631 c 0,21,22
 529 631 529 631 597 609.5 c 128,-1,23
 665 588 665 588 730.5 562.5 c 128,-1,24
 796 537 796 537 855.5 515.5 c 128,-1,25
 915 494 915 494 963 494 c 0,26,27
 998 494 998 494 1027 506 c 128,-1,28
 1056 518 1056 518 1081 538.5 c 128,-1,29
 1106 559 1106 559 1128 584.5 c 128,-1,30
 1150 610 1150 610 1171 637 c 1,31,-1
 1256 524 l 1,0,1
EndSplineSet
EndChar

StartChar: exclamdown
Encoding: 161 161 95
Width: 593
Flags: W
LayerCount: 2
Fore
SplineSet
344 604 m 1,0,1
 347 539 347 539 354.5 463.5 c 128,-1,2
 362 388 362 388 371 307.5 c 128,-1,3
 380 227 380 227 389.5 145 c 128,-1,4
 399 63 399 63 407 -15.5 c 128,-1,5
 415 -94 415 -94 420 -165 c 128,-1,6
 425 -236 425 -236 425 -293 c 0,7,8
 425 -339 425 -339 416.5 -369.5 c 128,-1,9
 408 -400 408 -400 391.5 -418 c 128,-1,10
 375 -436 375 -436 351 -443.5 c 128,-1,11
 327 -451 327 -451 297 -451 c 256,12,13
 267 -451 267 -451 243 -443.5 c 128,-1,14
 219 -436 219 -436 202.5 -418 c 128,-1,15
 186 -400 186 -400 177 -369.5 c 128,-1,16
 168 -339 168 -339 168 -293 c 0,17,18
 168 -235 168 -235 173 -164 c 128,-1,19
 178 -93 178 -93 185.5 -14.5 c 128,-1,20
 193 64 193 64 202.5 146 c 128,-1,21
 212 228 212 228 220.5 308.5 c 128,-1,22
 229 389 229 389 236 464 c 128,-1,23
 243 539 243 539 247 604 c 1,24,-1
 344 604 l 1,0,1
297 762 m 0,25,26
 270 762 270 762 246 772 c 128,-1,27
 222 782 222 782 203.5 799.5 c 128,-1,28
 185 817 185 817 174 840.5 c 128,-1,29
 163 864 163 864 163 891 c 0,30,31
 163 919 163 919 173.5 943.5 c 128,-1,32
 184 968 184 968 202.5 985 c 128,-1,33
 221 1002 221 1002 245.5 1012 c 128,-1,34
 270 1022 270 1022 297 1022 c 0,35,36
 357 1022 357 1022 392 985 c 128,-1,37
 427 948 427 948 427 891 c 256,38,39
 427 834 427 834 392 798 c 128,-1,40
 357 762 357 762 297 762 c 0,25,26
EndSplineSet
EndChar

StartChar: cent
Encoding: 162 162 96
Width: 1054
Flags: W
LayerCount: 2
Fore
SplineSet
441 252 m 1,0,1
 367 272 367 272 305.5 313 c 128,-1,2
 244 354 244 354 200 413.5 c 128,-1,3
 156 473 156 473 132 549.5 c 128,-1,4
 108 626 108 626 108 717 c 0,5,6
 108 799 108 799 132 873.5 c 128,-1,7
 156 948 156 948 200 1009.5 c 128,-1,8
 244 1071 244 1071 305.5 1117 c 128,-1,9
 367 1163 367 1163 441 1188 c 1,10,-1
 441 1058 l 1,11,12
 390 1007 390 1007 362.5 925 c 128,-1,13
 335 843 335 843 335 725 c 0,14,15
 335 491 335 491 442 393 c 1,16,-1
 441 252 l 1,0,1
620 0 m 1,17,-1
 517 0 l 1,18,-1
 517 1423 l 1,19,-1
 620 1423 l 1,20,-1
 620 0 l 1,17,-1
684 1210 m 1,21,22
 748 1202 748 1202 799.5 1182.5 c 128,-1,23
 851 1163 851 1163 887 1134 c 128,-1,24
 923 1105 923 1105 942.5 1067.5 c 128,-1,25
 962 1030 962 1030 962 987 c 0,26,27
 962 931 962 931 931.5 895.5 c 128,-1,28
 901 860 901 860 844 860 c 0,29,30
 794 860 794 860 764.5 887.5 c 128,-1,31
 735 915 735 915 735 965 c 0,32,33
 735 1000 735 1000 753.5 1017 c 128,-1,34
 772 1034 772 1034 797 1042 c 1,35,36
 790 1075 790 1075 757 1096 c 128,-1,37
 724 1117 724 1117 684 1128 c 1,38,-1
 684 1210 l 1,21,22
684 334 m 1,39,40
 727 346 727 346 758 367.5 c 128,-1,41
 789 389 789 389 812.5 416 c 128,-1,42
 836 443 836 443 853 475 c 128,-1,43
 870 507 870 507 885 541 c 1,44,-1
 961 514 l 1,45,46
 946 466 946 466 923 423.5 c 128,-1,47
 900 381 900 381 866 346.5 c 128,-1,48
 832 312 832 312 787 286.5 c 128,-1,49
 742 261 742 261 684 248 c 1,50,-1
 684 334 l 1,39,40
EndSplineSet
EndChar

StartChar: sterling
Encoding: 163 163 97
Width: 1053
Flags: W
LayerCount: 2
Fore
SplineSet
556 1451 m 1,0,1
 625 1447 625 1447 678 1426 c 128,-1,2
 731 1405 731 1405 767 1372.5 c 128,-1,3
 803 1340 803 1340 821.5 1299 c 128,-1,4
 840 1258 840 1258 840 1214 c 0,5,6
 840 1146 840 1146 804.5 1114.5 c 128,-1,7
 769 1083 769 1083 712 1083 c 0,8,9
 664 1083 664 1083 634 1110 c 128,-1,10
 604 1137 604 1137 604 1180 c 0,11,12
 604 1208 604 1208 614.5 1227 c 128,-1,13
 625 1246 625 1246 638.5 1261 c 128,-1,14
 652 1276 652 1276 663.5 1288 c 128,-1,15
 675 1300 675 1300 677 1313 c 1,16,17
 664 1339 664 1339 631 1354 c 128,-1,18
 598 1369 598 1369 556 1373 c 1,19,-1
 556 1451 l 1,0,1
748 688 m 1,20,-1
 1028 688 l 1,21,-1
 1028 600 l 1,22,-1
 813 600 l 1,23,-1
 748 688 l 1,20,-1
395 600 m 1,24,-1
 100 600 l 1,25,-1
 100 688 l 1,26,-1
 305 688 l 1,27,-1
 395 600 l 1,24,-1
586 232 m 1,28,29
 598 256 598 256 606 283 c 128,-1,30
 614 310 614 310 614 342 c 0,31,32
 614 414 614 414 575.5 474 c 128,-1,33
 537 534 537 534 471 600 c 2,34,-1
 383 688 l 2,35,36
 328 743 328 743 281 790.5 c 128,-1,37
 234 838 234 838 200 886 c 128,-1,38
 166 934 166 934 146.5 986.5 c 128,-1,39
 127 1039 127 1039 127 1104 c 0,40,41
 127 1160 127 1160 147.5 1218 c 128,-1,42
 168 1276 168 1276 211 1325 c 128,-1,43
 254 1374 254 1374 318.5 1408 c 128,-1,44
 383 1442 383 1442 472 1450 c 1,45,-1
 472 1367 l 1,46,47
 407 1352 407 1352 365.5 1306 c 128,-1,48
 324 1260 324 1260 324 1188 c 0,49,50
 324 1139 324 1139 339.5 1097 c 128,-1,51
 355 1055 355 1055 383.5 1015 c 128,-1,52
 412 975 412 975 450.5 933.5 c 128,-1,53
 489 892 489 892 535.5 843 c 128,-1,54
 582 794 582 794 634 734.5 c 128,-1,55
 686 675 686 675 741 600 c 0,56,57
 771 558 771 558 785.5 514.5 c 128,-1,58
 800 471 800 471 800 414 c 0,59,60
 800 345 800 345 772.5 282 c 128,-1,61
 745 219 745 219 700 165 c 1,62,-1
 586 232 l 1,28,29
465 109 m 2,63,64
 435 129 435 129 403.5 148.5 c 128,-1,65
 372 168 372 168 340.5 183 c 128,-1,66
 309 198 309 198 276.5 207.5 c 128,-1,67
 244 217 244 217 211 217 c 0,68,69
 163 217 163 217 137 197 c 128,-1,70
 111 177 111 177 111 145 c 0,71,72
 111 105 111 105 146.5 80 c 128,-1,73
 182 55 182 55 261 55 c 0,74,75
 296 55 296 55 332 57.5 c 128,-1,76
 368 60 368 60 403 73 c 1,77,-1
 501 10 l 1,78,79
 449 -13 449 -13 389.5 -22 c 128,-1,80
 330 -31 330 -31 252 -31 c 0,81,82
 177 -31 177 -31 118.5 -16 c 128,-1,83
 60 -1 60 -1 20.5 25 c 128,-1,84
 -19 51 -19 51 -40 85 c 128,-1,85
 -61 119 -61 119 -61 158 c 0,86,87
 -61 196 -61 196 -45 228.5 c 128,-1,88
 -29 261 -29 261 2.5 284.5 c 128,-1,89
 34 308 34 308 79 321 c 128,-1,90
 124 334 124 334 183 334 c 0,91,92
 246 334 246 334 301 316.5 c 128,-1,93
 356 299 356 299 402.5 274.5 c 128,-1,94
 449 250 449 250 486.5 224 c 128,-1,95
 524 198 524 198 553 180 c 2,96,-1
 657 117 l 1,97,98
 692 98 692 98 729 85 c 128,-1,99
 766 72 766 72 804 72 c 0,100,101
 843 72 843 72 877 86 c 128,-1,102
 911 100 911 100 938.5 122.5 c 128,-1,103
 966 145 966 145 988.5 174 c 128,-1,104
 1011 203 1011 203 1028 233 c 1,105,-1
 1106 174 l 1,106,107
 1079 134 1079 134 1050 97 c 128,-1,108
 1021 60 1021 60 986 31.5 c 128,-1,109
 951 3 951 3 905.5 -14 c 128,-1,110
 860 -31 860 -31 800 -31 c 0,111,112
 727 -31 727 -31 670 -10.5 c 128,-1,113
 613 10 613 10 562 45 c 1,114,-1
 465 109 l 2,63,64
EndSplineSet
EndChar

StartChar: fraction
Encoding: 8260 8260 98
Width: 396
Flags: W
LayerCount: 2
Fore
SplineSet
-247 -31 m 1,0,-1
 -397 -31 l 1,1,-1
 641 1452 l 1,2,-1
 793 1452 l 1,3,-1
 -247 -31 l 1,0,-1
EndSplineSet
EndChar

StartChar: yen
Encoding: 165 165 99
Width: 1053
Flags: W
LayerCount: 2
Fore
SplineSet
254 731 m 1,0,-1
 56 731 l 1,1,-1
 56 819 l 1,2,-1
 208 819 l 1,3,-1
 254 731 l 1,0,-1
71 1257 m 2,4,5
 57 1284 57 1284 38.5 1299.5 c 128,-1,6
 20 1315 20 1315 0 1324.5 c 128,-1,7
 -20 1334 -20 1334 -40.5 1341 c 128,-1,8
 -61 1348 -61 1348 -80 1358 c 1,9,-1
 -80 1421 l 1,10,-1
 445 1421 l 1,11,-1
 445 1358 l 1,12,13
 421 1348 421 1348 396.5 1343 c 128,-1,14
 372 1338 372 1338 352.5 1331.5 c 128,-1,15
 333 1325 333 1325 321 1314 c 128,-1,16
 309 1303 309 1303 309 1282 c 0,17,18
 309 1271 309 1271 312 1260 c 128,-1,19
 315 1249 315 1249 324.5 1228 c 128,-1,20
 334 1207 334 1207 352.5 1171 c 128,-1,21
 371 1135 371 1135 402 1075.5 c 128,-1,22
 433 1016 433 1016 478 928 c 128,-1,23
 523 840 523 840 587 715 c 2,24,-1
 634 622 l 1,25,-1
 634 231 l 2,26,27
 634 187 634 187 641 160.5 c 128,-1,28
 648 134 648 134 660 118.5 c 128,-1,29
 672 103 672 103 688 96.5 c 128,-1,30
 704 90 704 90 722 85.5 c 128,-1,31
 740 81 740 81 759 76 c 128,-1,32
 778 71 778 71 796 59 c 1,33,-1
 796 0 l 1,34,-1
 243 0 l 1,35,-1
 243 59 l 1,36,37
 262 71 262 71 281.5 76 c 128,-1,38
 301 81 301 81 318.5 85 c 128,-1,39
 336 89 336 89 352 95.5 c 128,-1,40
 368 102 368 102 379.5 117.5 c 128,-1,41
 391 133 391 133 397.5 161 c 128,-1,42
 404 189 404 189 404 236 c 2,43,-1
 404 603 l 1,44,-1
 71 1257 l 2,4,5
720 734 m 1,45,-1
 697 685 l 1,46,-1
 637 792 l 1,47,48
 691 897 691 897 728.5 971 c 128,-1,49
 766 1045 766 1045 791 1095.5 c 128,-1,50
 816 1146 816 1146 830.5 1176 c 128,-1,51
 845 1206 845 1206 852 1224.5 c 128,-1,52
 859 1243 859 1243 860.5 1252 c 128,-1,53
 862 1261 862 1261 862 1270 c 0,54,55
 862 1296 862 1296 849 1309.5 c 128,-1,56
 836 1323 836 1323 816.5 1330.5 c 128,-1,57
 797 1338 797 1338 773 1343.5 c 128,-1,58
 749 1349 749 1349 728 1358 c 1,59,-1
 728 1421 l 1,60,-1
 1158 1421 l 1,61,-1
 1158 1358 l 1,62,63
 1143 1347 1143 1347 1122.5 1340.5 c 128,-1,64
 1102 1334 1102 1334 1081.5 1327.5 c 128,-1,65
 1061 1321 1061 1321 1043 1311 c 128,-1,66
 1025 1301 1025 1301 1013 1284 c 0,67,68
 979 1234 979 1234 947.5 1178 c 128,-1,69
 916 1122 916 1122 885.5 1063 c 128,-1,70
 855 1004 855 1004 824.5 942 c 128,-1,71
 794 880 794 880 763 819 c 2,72,-1
 720 734 l 1,45,-1
842 819 m 1,73,-1
 1004 819 l 1,74,-1
 1004 731 l 1,75,-1
 800 731 l 1,76,-1
 842 819 l 1,73,-1
717 559 m 1,77,-1
 1004 559 l 1,78,-1
 1004 471 l 1,79,-1
 717 471 l 1,80,-1
 717 559 l 1,77,-1
321 471 m 1,81,-1
 56 471 l 1,82,-1
 56 559 l 1,83,-1
 321 559 l 1,84,-1
 321 471 l 1,81,-1
EndSplineSet
EndChar

StartChar: florin
Encoding: 402 402 100
Width: 1053
Flags: W
LayerCount: 2
Fore
SplineSet
843 1448 m 1,0,1
 898 1447 898 1447 943.5 1437 c 128,-1,2
 989 1427 989 1427 1020.5 1410 c 128,-1,3
 1052 1393 1052 1393 1069.5 1369 c 128,-1,4
 1087 1345 1087 1345 1087 1317 c 0,5,6
 1087 1280 1087 1280 1064.5 1252.5 c 128,-1,7
 1042 1225 1042 1225 993 1225 c 0,8,9
 968 1225 968 1225 953 1232.5 c 128,-1,10
 938 1240 938 1240 928.5 1252.5 c 128,-1,11
 919 1265 919 1265 912 1280 c 128,-1,12
 905 1295 905 1295 896.5 1310.5 c 128,-1,13
 888 1326 888 1326 875.5 1340.5 c 128,-1,14
 863 1355 863 1355 843 1365 c 1,15,-1
 843 1448 l 1,0,1
68 -419 m 1,16,17
 37 -418 37 -418 -5 -410.5 c 128,-1,18
 -47 -403 -47 -403 -85.5 -387 c 128,-1,19
 -124 -371 -124 -371 -150.5 -346 c 128,-1,20
 -177 -321 -177 -321 -177 -285 c 0,21,22
 -177 -268 -177 -268 -170.5 -251.5 c 128,-1,23
 -164 -235 -164 -235 -152 -222.5 c 128,-1,24
 -140 -210 -140 -210 -122.5 -202.5 c 128,-1,25
 -105 -195 -105 -195 -82 -195 c 0,26,27
 -51 -195 -51 -195 -32 -203.5 c 128,-1,28
 -13 -212 -13 -212 -1.5 -225 c 128,-1,29
 10 -238 10 -238 16.5 -254.5 c 128,-1,30
 23 -271 23 -271 29 -287 c 128,-1,31
 35 -303 35 -303 43.5 -316.5 c 128,-1,32
 52 -330 52 -330 68 -338 c 1,33,-1
 68 -419 l 1,16,17
681 891 m 1,34,-1
 863 891 l 1,35,-1
 843 809 l 1,36,-1
 670 809 l 1,37,-1
 681 891 l 1,34,-1
326 809 m 1,38,-1
 147 809 l 1,39,-1
 170 891 l 1,40,-1
 342 891 l 1,41,-1
 326 809 l 1,38,-1
399 891 m 0,42,43
 438 1150 438 1150 525.5 1284.5 c 128,-1,44
 613 1419 613 1419 760 1443 c 1,45,-1
 760 1353 l 1,46,47
 714 1326 714 1326 681.5 1251 c 128,-1,48
 649 1176 649 1176 633 1059 c 2,49,-1
 523 258 l 2,50,51
 515 201 515 201 504 132.5 c 128,-1,52
 493 64 493 64 474.5 -6 c 128,-1,53
 456 -76 456 -76 429.5 -143.5 c 128,-1,54
 403 -211 403 -211 364 -267 c 128,-1,55
 325 -323 325 -323 272.5 -361.5 c 128,-1,56
 220 -400 220 -400 151 -413 c 1,57,-1
 151 -333 l 1,58,59
 180 -313 180 -313 208 -261 c 128,-1,60
 236 -209 236 -209 250 -117 c 0,61,62
 263 -26 263 -26 280 87 c 128,-1,63
 297 200 297 200 316 329.5 c 128,-1,64
 335 459 335 459 356 601 c 128,-1,65
 377 743 377 743 399 891 c 0,42,43
EndSplineSet
EndChar

StartChar: section
Encoding: 167 167 101
Width: 1188
Flags: W
LayerCount: 2
Fore
SplineSet
627 1451 m 1,0,1
 685 1448 685 1448 734.5 1431 c 128,-1,2
 784 1414 784 1414 820.5 1388 c 128,-1,3
 857 1362 857 1362 877.5 1327 c 128,-1,4
 898 1292 898 1292 898 1253 c 0,5,6
 898 1201 898 1201 865.5 1171 c 128,-1,7
 833 1141 833 1141 779 1141 c 256,8,9
 725 1141 725 1141 694.5 1167 c 128,-1,10
 664 1193 664 1193 664 1231 c 0,11,12
 664 1256 664 1256 677 1273 c 128,-1,13
 690 1290 690 1290 706 1302 c 128,-1,14
 722 1314 722 1314 735 1324 c 128,-1,15
 748 1334 748 1334 748 1346 c 0,16,17
 748 1368 748 1368 713.5 1385.5 c 128,-1,18
 679 1403 679 1403 627 1408 c 1,19,-1
 627 1451 l 1,0,1
544 -237 m 1,20,21
 469 -233 469 -233 413 -213 c 128,-1,22
 357 -193 357 -193 320.5 -164 c 128,-1,23
 284 -135 284 -135 265.5 -100 c 128,-1,24
 247 -65 247 -65 247 -31 c 0,25,26
 247 19 247 19 281.5 49.5 c 128,-1,27
 316 80 316 80 370 80 c 0,28,29
 398 80 398 80 420.5 72 c 128,-1,30
 443 64 443 64 459 51.5 c 128,-1,31
 475 39 475 39 483.5 22.5 c 128,-1,32
 492 6 492 6 492 -12 c 0,33,34
 492 -38 492 -38 479.5 -54 c 128,-1,35
 467 -70 467 -70 451.5 -81 c 128,-1,36
 436 -92 436 -92 423.5 -101.5 c 128,-1,37
 411 -111 411 -111 411 -125 c 0,38,39
 411 -137 411 -137 421 -148 c 128,-1,40
 431 -159 431 -159 449 -168 c 128,-1,41
 467 -177 467 -177 491.5 -183.5 c 128,-1,42
 516 -190 516 -190 544 -193 c 1,43,-1
 544 -237 l 1,20,21
494 899 m 2,44,45
 447 934 447 934 405.5 966.5 c 128,-1,46
 364 999 364 999 332.5 1035 c 128,-1,47
 301 1071 301 1071 282.5 1112 c 128,-1,48
 264 1153 264 1153 264 1204 c 0,49,50
 264 1258 264 1258 285 1300.5 c 128,-1,51
 306 1343 306 1343 343.5 1374 c 128,-1,52
 381 1405 381 1405 432.5 1424 c 128,-1,53
 484 1443 484 1443 544 1449 c 1,54,-1
 544 1405 l 1,55,56
 473 1394 473 1394 432.5 1355.5 c 128,-1,57
 392 1317 392 1317 392 1257 c 0,58,59
 392 1221 392 1221 411 1190 c 128,-1,60
 430 1159 430 1159 464.5 1128 c 128,-1,61
 499 1097 499 1097 548 1063 c 128,-1,62
 597 1029 597 1029 657 987 c 0,63,64
 738 931 738 931 804 881 c 128,-1,65
 870 831 870 831 916.5 782 c 128,-1,66
 963 733 963 733 988.5 682 c 128,-1,67
 1014 631 1014 631 1014 573 c 0,68,69
 1014 529 1014 529 998.5 489.5 c 128,-1,70
 983 450 983 450 955 419 c 128,-1,71
 927 388 927 388 888.5 366.5 c 128,-1,72
 850 345 850 345 804 338 c 1,73,-1
 734 387 l 1,74,75
 768 387 768 387 796.5 396 c 128,-1,76
 825 405 825 405 846 421 c 128,-1,77
 867 437 867 437 879 458.5 c 128,-1,78
 891 480 891 480 891 506 c 0,79,80
 891 555 891 555 851.5 608.5 c 128,-1,81
 812 662 812 662 717 733 c 2,82,-1
 494 899 l 2,44,45
465 843 m 1,83,84
 459 844 459 844 452.5 844.5 c 128,-1,85
 446 845 446 845 439 845 c 0,86,87
 412 845 412 845 386 836 c 128,-1,88
 360 827 360 827 339 810.5 c 128,-1,89
 318 794 318 794 305 770.5 c 128,-1,90
 292 747 292 747 292 717 c 0,91,92
 292 688 292 688 301.5 660 c 128,-1,93
 311 632 311 632 332.5 603 c 128,-1,94
 354 574 354 574 388.5 542.5 c 128,-1,95
 423 511 423 511 473 477 c 2,96,-1
 703 319 l 2,97,98
 753 284 753 284 793.5 250.5 c 128,-1,99
 834 217 834 217 862.5 181 c 128,-1,100
 891 145 891 145 906.5 106 c 128,-1,101
 922 67 922 67 922 23 c 0,102,103
 922 -26 922 -26 901.5 -70.5 c 128,-1,104
 881 -115 881 -115 842.5 -149.5 c 128,-1,105
 804 -184 804 -184 749.5 -207 c 128,-1,106
 695 -230 695 -230 627 -236 c 1,107,-1
 627 -192 l 1,108,109
 697 -182 697 -182 741.5 -141.5 c 128,-1,110
 786 -101 786 -101 786 -41 c 0,111,112
 786 4 786 4 759.5 43.5 c 128,-1,113
 733 83 733 83 689.5 119.5 c 128,-1,114
 646 156 646 156 590.5 192 c 128,-1,115
 535 228 535 228 477 265 c 128,-1,116
 419 302 419 302 363.5 342.5 c 128,-1,117
 308 383 308 383 264.5 429 c 128,-1,118
 221 475 221 475 194.5 529 c 128,-1,119
 168 583 168 583 168 647 c 0,120,121
 168 699 168 699 186.5 741.5 c 128,-1,122
 205 784 205 784 237.5 814.5 c 128,-1,123
 270 845 270 845 314 863 c 128,-1,124
 358 881 358 881 410 886 c 1,125,-1
 465 843 l 1,83,84
EndSplineSet
EndChar

StartChar: currency
Encoding: 164 164 102
Width: 1054
Flags: W
LayerCount: 2
Fore
SplineSet
36 369 m 1,0,-1
 145 463 l 1,1,2
 98 511 98 511 71.5 574.5 c 128,-1,3
 45 638 45 638 45 711 c 0,4,5
 45 782 45 782 71 846 c 128,-1,6
 97 910 97 910 145 956 c 1,7,-1
 36 1053 l 1,8,-1
 133 1139 l 1,9,-1
 242 1042 l 1,10,11
 297 1081 297 1081 370.5 1103.5 c 128,-1,12
 444 1126 444 1126 527 1126 c 0,13,14
 609 1126 609 1126 682.5 1103.5 c 128,-1,15
 756 1081 756 1081 812 1042 c 1,16,-1
 921 1139 l 1,17,-1
 1017 1053 l 1,18,-1
 909 956 l 1,19,20
 958 910 958 910 983.5 846 c 128,-1,21
 1009 782 1009 782 1009 711 c 0,22,23
 1009 638 1009 638 982.5 574.5 c 128,-1,24
 956 511 956 511 909 463 c 1,25,-1
 1017 369 l 1,26,-1
 921 283 l 1,27,-1
 814 381 l 1,28,29
 757 339 757 339 684.5 317 c 128,-1,30
 612 295 612 295 527 295 c 256,31,32
 442 295 442 295 369.5 317 c 128,-1,33
 297 339 297 339 240 381 c 1,34,-1
 133 283 l 1,35,-1
 36 369 l 1,0,-1
527 1008 m 256,36,37
 458 1008 458 1008 397.5 984.5 c 128,-1,38
 337 961 337 961 292 920.5 c 128,-1,39
 247 880 247 880 221 826 c 128,-1,40
 195 772 195 772 195 711 c 0,41,42
 195 648 195 648 221 593.5 c 128,-1,43
 247 539 247 539 292 499.5 c 128,-1,44
 337 460 337 460 397.5 437 c 128,-1,45
 458 414 458 414 527 414 c 256,46,47
 596 414 596 414 656.5 437 c 128,-1,48
 717 460 717 460 762 499.5 c 128,-1,49
 807 539 807 539 833 593.5 c 128,-1,50
 859 648 859 648 859 711 c 0,51,52
 859 772 859 772 833 826 c 128,-1,53
 807 880 807 880 762 920.5 c 128,-1,54
 717 961 717 961 656.5 984.5 c 128,-1,55
 596 1008 596 1008 527 1008 c 256,36,37
EndSplineSet
EndChar

StartChar: quotesingle
Encoding: 39 39 103
Width: 528
Flags: W
LayerCount: 2
Fore
SplineSet
186 1223 m 2,0,1
 182 1261 182 1261 179 1292 c 128,-1,2
 176 1323 176 1323 176 1348 c 0,3,4
 176 1399 176 1399 196.5 1425.5 c 128,-1,5
 217 1452 217 1452 264 1452 c 0,6,7
 309 1452 309 1452 330 1425.5 c 128,-1,8
 351 1399 351 1399 351 1348 c 0,9,10
 351 1323 351 1323 348 1292 c 128,-1,11
 345 1261 345 1261 341 1223 c 2,12,-1
 308 911 l 2,13,14
 305 880 305 880 294.5 867 c 128,-1,15
 284 854 284 854 264 854 c 0,16,17
 242 854 242 854 230.5 867 c 128,-1,18
 219 880 219 880 216 911 c 2,19,-1
 186 1223 l 2,0,1
EndSplineSet
EndChar

StartChar: quotedblleft
Encoding: 8220 8220 104
Width: 879
Flags: W
LayerCount: 2
Fore
SplineSet
724 1421 m 1,0,1
 697 1397 697 1397 674.5 1366 c 128,-1,2
 652 1335 652 1335 635 1300.5 c 128,-1,3
 618 1266 618 1266 607.5 1229 c 128,-1,4
 597 1192 597 1192 596 1155 c 1,5,6
 634 1155 634 1155 666.5 1148 c 128,-1,7
 699 1141 699 1141 723 1125.5 c 128,-1,8
 747 1110 747 1110 760.5 1083.5 c 128,-1,9
 774 1057 774 1057 774 1018 c 0,10,11
 774 992 774 992 766 968.5 c 128,-1,12
 758 945 758 945 741.5 927.5 c 128,-1,13
 725 910 725 910 700.5 899.5 c 128,-1,14
 676 889 676 889 643 889 c 0,15,16
 573 889 573 889 528.5 939.5 c 128,-1,17
 484 990 484 990 484 1087 c 0,18,19
 484 1140 484 1140 496.5 1193 c 128,-1,20
 509 1246 509 1246 531.5 1295.5 c 128,-1,21
 554 1345 554 1345 586 1390.5 c 128,-1,22
 618 1436 618 1436 657 1475 c 1,23,-1
 724 1421 l 1,0,1
306 1421 m 1,24,25
 252 1372 252 1372 217 1300.5 c 128,-1,26
 182 1229 182 1229 178 1155 c 1,27,28
 215 1155 215 1155 247.5 1148 c 128,-1,29
 280 1141 280 1141 304 1125.5 c 128,-1,30
 328 1110 328 1110 342 1083.5 c 128,-1,31
 356 1057 356 1057 356 1018 c 0,32,33
 356 992 356 992 348 968.5 c 128,-1,34
 340 945 340 945 323.5 927.5 c 128,-1,35
 307 910 307 910 283 899.5 c 128,-1,36
 259 889 259 889 226 889 c 0,37,38
 156 889 156 889 111 939.5 c 128,-1,39
 66 990 66 990 66 1087 c 0,40,41
 66 1140 66 1140 78.5 1193 c 128,-1,42
 91 1246 91 1246 114 1295.5 c 128,-1,43
 137 1345 137 1345 169 1390.5 c 128,-1,44
 201 1436 201 1436 240 1475 c 1,45,-1
 306 1421 l 1,24,25
EndSplineSet
EndChar

StartChar: guillemotleft
Encoding: 171 171 105
Width: 1053
Flags: W
LayerCount: 2
Fore
SplineSet
467 850 m 1,0,-1
 532 838 l 1,1,-1
 328 487 l 1,2,-1
 532 136 l 1,3,-1
 467 124 l 1,4,-1
 113 488 l 1,5,-1
 467 850 l 1,0,-1
848 850 m 1,6,-1
 913 838 l 1,7,-1
 709 487 l 1,8,-1
 913 136 l 1,9,-1
 848 124 l 1,10,-1
 494 488 l 1,11,-1
 848 850 l 1,6,-1
EndSplineSet
EndChar

StartChar: guilsinglleft
Encoding: 8249 8249 106
Width: 703
Flags: W
LayerCount: 2
Fore
SplineSet
467 850 m 1,0,-1
 532 838 l 1,1,-1
 328 487 l 1,2,-1
 532 136 l 1,3,-1
 467 124 l 1,4,-1
 113 488 l 1,5,-1
 467 850 l 1,0,-1
EndSplineSet
EndChar

StartChar: guilsinglright
Encoding: 8250 8250 107
Width: 703
Flags: W
LayerCount: 2
Fore
SplineSet
564 488 m 1,0,-1
 210 124 l 1,1,-1
 145 136 l 1,2,-1
 349 487 l 1,3,-1
 145 838 l 1,4,-1
 210 850 l 1,5,-1
 564 488 l 1,0,-1
EndSplineSet
EndChar

StartChar: endash
Encoding: 8211 8211 110
Width: 1187
Flags: W
LayerCount: 2
Fore
SplineSet
1187 549 m 1,0,-1
 1187 432 l 1,1,-1
 0 432 l 1,2,-1
 0 549 l 1,3,-1
 1187 549 l 1,0,-1
EndSplineSet
EndChar

StartChar: dagger
Encoding: 8224 8224 111
Width: 1120
Flags: W
LayerCount: 2
Fore
SplineSet
534 -238 m 1,0,1
 534 -81 534 -81 530 40 c 128,-1,2
 526 161 526 161 515.5 258 c 128,-1,3
 505 355 505 355 486 434.5 c 128,-1,4
 467 514 467 514 437 588 c 1,5,6
 460 614 460 614 477.5 645 c 128,-1,7
 495 676 495 676 507.5 719.5 c 128,-1,8
 520 763 520 763 526.5 822.5 c 128,-1,9
 533 882 533 882 534 965 c 1,10,11
 465 964 465 964 418.5 952.5 c 128,-1,12
 372 941 372 941 336 927.5 c 128,-1,13
 300 914 300 914 270 902.5 c 128,-1,14
 240 891 240 891 204 891 c 0,15,16
 158 891 158 891 130 917 c 128,-1,17
 102 943 102 943 102 983 c 0,18,19
 102 1021 102 1021 130 1048 c 128,-1,20
 158 1075 158 1075 204 1075 c 0,21,22
 240 1075 240 1075 270 1064 c 128,-1,23
 300 1053 300 1053 336 1039.5 c 128,-1,24
 372 1026 372 1026 418.5 1014 c 128,-1,25
 465 1002 465 1002 534 1001 c 1,26,27
 533 1081 533 1081 519.5 1135.5 c 128,-1,28
 506 1190 506 1190 490.5 1229 c 128,-1,29
 475 1268 475 1268 462 1297.5 c 128,-1,30
 449 1327 449 1327 449 1356 c 0,31,32
 449 1399 449 1399 477.5 1425.5 c 128,-1,33
 506 1452 506 1452 560 1452 c 0,34,35
 613 1452 613 1452 641.5 1425 c 128,-1,36
 670 1398 670 1398 670 1356 c 0,37,38
 670 1324 670 1324 657 1295.5 c 128,-1,39
 644 1267 644 1267 628 1228.5 c 128,-1,40
 612 1190 612 1190 598.5 1136.5 c 128,-1,41
 585 1083 585 1083 584 1001 c 1,42,43
 654 1002 654 1002 701 1014 c 128,-1,44
 748 1026 748 1026 784 1039.5 c 128,-1,45
 820 1053 820 1053 850.5 1064 c 128,-1,46
 881 1075 881 1075 917 1075 c 0,47,48
 961 1075 961 1075 990 1048 c 128,-1,49
 1019 1021 1019 1021 1019 983 c 0,50,51
 1019 943 1019 943 990.5 917 c 128,-1,52
 962 891 962 891 917 891 c 0,53,54
 881 891 881 891 850.5 902.5 c 128,-1,55
 820 914 820 914 784 927.5 c 128,-1,56
 748 941 748 941 701 952.5 c 128,-1,57
 654 964 654 964 584 965 c 1,58,59
 585 882 585 882 591.5 822.5 c 128,-1,60
 598 763 598 763 610.5 719.5 c 128,-1,61
 623 676 623 676 640.5 645 c 128,-1,62
 658 614 658 614 681 588 c 1,63,64
 651 514 651 514 632 434.5 c 128,-1,65
 613 355 613 355 602.5 258 c 128,-1,66
 592 161 592 161 588 40 c 128,-1,67
 584 -81 584 -81 584 -238 c 1,68,-1
 534 -238 l 1,0,1
EndSplineSet
EndChar

StartChar: daggerdbl
Encoding: 8225 8225 112
Width: 1120
Flags: W
LayerCount: 2
Fore
SplineSet
670 1356 m 0,0,1
 670 1324 670 1324 657 1295.5 c 128,-1,2
 644 1267 644 1267 628 1228.5 c 128,-1,3
 612 1190 612 1190 598.5 1136.5 c 128,-1,4
 585 1083 585 1083 584 1001 c 1,5,6
 654 1002 654 1002 701 1014 c 128,-1,7
 748 1026 748 1026 784 1039.5 c 128,-1,8
 820 1053 820 1053 850.5 1064 c 128,-1,9
 881 1075 881 1075 917 1075 c 0,10,11
 961 1075 961 1075 990 1048 c 128,-1,12
 1019 1021 1019 1021 1019 983 c 0,13,14
 1019 943 1019 943 990.5 917 c 128,-1,15
 962 891 962 891 917 891 c 0,16,17
 881 891 881 891 850.5 902.5 c 128,-1,18
 820 914 820 914 784 927.5 c 128,-1,19
 748 941 748 941 701 952.5 c 128,-1,20
 654 964 654 964 584 965 c 1,21,22
 585 896 585 896 590.5 840.5 c 128,-1,23
 596 785 596 785 607.5 741.5 c 128,-1,24
 619 698 619 698 637 664 c 128,-1,25
 655 630 655 630 681 604 c 1,26,27
 655 578 655 578 637 544 c 128,-1,28
 619 510 619 510 607.5 466 c 128,-1,29
 596 422 596 422 590.5 367 c 128,-1,30
 585 312 585 312 584 244 c 1,31,32
 654 245 654 245 701 256.5 c 128,-1,33
 748 268 748 268 784 281.5 c 128,-1,34
 820 295 820 295 850.5 306 c 128,-1,35
 881 317 881 317 917 317 c 0,36,37
 961 317 961 317 990 290 c 128,-1,38
 1019 263 1019 263 1019 225 c 0,39,40
 1019 185 1019 185 990.5 159 c 128,-1,41
 962 133 962 133 917 133 c 0,42,43
 881 133 881 133 850.5 144.5 c 128,-1,44
 820 156 820 156 784 169.5 c 128,-1,45
 748 183 748 183 701 194.5 c 128,-1,46
 654 206 654 206 584 207 c 1,47,48
 585 126 585 126 598.5 72 c 128,-1,49
 612 18 612 18 628 -20.5 c 128,-1,50
 644 -59 644 -59 657 -88 c 128,-1,51
 670 -117 670 -117 670 -150 c 0,52,53
 670 -192 670 -192 641.5 -218 c 128,-1,54
 613 -244 613 -244 560 -244 c 0,55,56
 506 -244 506 -244 477.5 -218 c 128,-1,57
 449 -192 449 -192 449 -147 c 0,58,59
 449 -119 449 -119 462 -90 c 128,-1,60
 475 -61 475 -61 490.5 -21.5 c 128,-1,61
 506 18 506 18 519.5 72.5 c 128,-1,62
 533 127 533 127 534 207 c 1,63,64
 465 206 465 206 418.5 194.5 c 128,-1,65
 372 183 372 183 336 169.5 c 128,-1,66
 300 156 300 156 270 144.5 c 128,-1,67
 240 133 240 133 204 133 c 0,68,69
 158 133 158 133 130 159 c 128,-1,70
 102 185 102 185 102 225 c 0,71,72
 102 263 102 263 130 290 c 128,-1,73
 158 317 158 317 204 317 c 0,74,75
 240 317 240 317 270 306 c 128,-1,76
 300 295 300 295 336 281.5 c 128,-1,77
 372 268 372 268 418.5 256.5 c 128,-1,78
 465 245 465 245 534 244 c 1,79,80
 532 380 532 380 510 466 c 128,-1,81
 488 552 488 552 437 604 c 1,82,83
 462 630 462 630 480.5 664 c 128,-1,84
 499 698 499 698 510.5 741.5 c 128,-1,85
 522 785 522 785 527.5 840.5 c 128,-1,86
 533 896 533 896 534 965 c 1,87,88
 465 964 465 964 418.5 952.5 c 128,-1,89
 372 941 372 941 336 927.5 c 128,-1,90
 300 914 300 914 270 902.5 c 128,-1,91
 240 891 240 891 204 891 c 0,92,93
 158 891 158 891 130 917 c 128,-1,94
 102 943 102 943 102 983 c 0,95,96
 102 1021 102 1021 130 1048 c 128,-1,97
 158 1075 158 1075 204 1075 c 0,98,99
 240 1075 240 1075 270 1064 c 128,-1,100
 300 1053 300 1053 336 1039.5 c 128,-1,101
 372 1026 372 1026 418.5 1014 c 128,-1,102
 465 1002 465 1002 534 1001 c 1,103,104
 533 1081 533 1081 519.5 1135.5 c 128,-1,105
 506 1190 506 1190 490.5 1229 c 128,-1,106
 475 1268 475 1268 462 1297.5 c 128,-1,107
 449 1327 449 1327 449 1356 c 0,108,109
 449 1399 449 1399 477.5 1425.5 c 128,-1,110
 506 1452 506 1452 560 1452 c 0,111,112
 613 1452 613 1452 641.5 1425 c 128,-1,113
 670 1398 670 1398 670 1356 c 0,0,1
EndSplineSet
EndChar

StartChar: periodcentered
Encoding: 183 183 113
Width: 528
Flags: W
LayerCount: 2
Fore
SplineSet
264 614 m 0,0,1
 293 614 293 614 319.5 604.5 c 128,-1,2
 346 595 346 595 365.5 578 c 128,-1,3
 385 561 385 561 396.5 538 c 128,-1,4
 408 515 408 515 408 489 c 256,5,6
 408 463 408 463 396.5 440.5 c 128,-1,7
 385 418 385 418 365.5 401 c 128,-1,8
 346 384 346 384 319.5 374.5 c 128,-1,9
 293 365 293 365 264 365 c 0,10,11
 234 365 234 365 207 374.5 c 128,-1,12
 180 384 180 384 160.5 401 c 128,-1,13
 141 418 141 418 129.5 440.5 c 128,-1,14
 118 463 118 463 118 489 c 256,15,16
 118 515 118 515 129.5 538 c 128,-1,17
 141 561 141 561 160.5 578 c 128,-1,18
 180 595 180 595 207 604.5 c 128,-1,19
 234 614 234 614 264 614 c 0,0,1
EndSplineSet
EndChar

StartChar: paragraph
Encoding: 182 182 114
Width: 1425
Flags: W
LayerCount: 2
Fore
SplineSet
140 1010 m 0,0,1
 140 1108 140 1108 165.5 1184.5 c 128,-1,2
 191 1261 191 1261 244.5 1313.5 c 128,-1,3
 298 1366 298 1366 379.5 1393.5 c 128,-1,4
 461 1421 461 1421 573 1421 c 2,5,-1
 705 1421 l 1,6,-1
 705 -240 l 1,7,-1
 560 -240 l 1,8,-1
 560 586 l 1,9,10
 453 586 453 586 374.5 617.5 c 128,-1,11
 296 649 296 649 243.5 705.5 c 128,-1,12
 191 762 191 762 165.5 840 c 128,-1,13
 140 918 140 918 140 1010 c 0,0,1
845 1421 m 1,14,-1
 1166 1421 l 1,15,-1
 1166 1374 l 1,16,17
 1119 1372 1119 1372 1085.5 1365.5 c 128,-1,18
 1052 1359 1052 1359 1031 1345.5 c 128,-1,19
 1010 1332 1010 1332 1000 1310 c 128,-1,20
 990 1288 990 1288 990 1255 c 2,21,-1
 990 -240 l 1,22,-1
 845 -240 l 1,23,-1
 845 1421 l 1,14,-1
EndSplineSet
EndChar

StartChar: bullet
Encoding: 8226 8226 115
Width: 1187
Flags: W
LayerCount: 2
Fore
SplineSet
181 711 m 0,0,1
 181 784 181 784 213.5 848.5 c 128,-1,2
 246 913 246 913 302 961 c 128,-1,3
 358 1009 358 1009 433 1037 c 128,-1,4
 508 1065 508 1065 594 1065 c 0,5,6
 679 1065 679 1065 754 1037 c 128,-1,7
 829 1009 829 1009 884.5 961 c 128,-1,8
 940 913 940 913 972 848.5 c 128,-1,9
 1004 784 1004 784 1004 711 c 0,10,11
 1004 637 1004 637 972 572 c 128,-1,12
 940 507 940 507 884.5 458.5 c 128,-1,13
 829 410 829 410 754 382 c 128,-1,14
 679 354 679 354 594 354 c 0,15,16
 508 354 508 354 433 382 c 128,-1,17
 358 410 358 410 302 458.5 c 128,-1,18
 246 507 246 507 213.5 572 c 128,-1,19
 181 637 181 637 181 711 c 0,0,1
EndSplineSet
EndChar

StartChar: quotesinglbase
Encoding: 8218 8218 116
Width: 506
Flags: W
LayerCount: 2
Fore
SplineSet
185 -299 m 1,0,1
 212 -274 212 -274 234.5 -243.5 c 128,-1,2
 257 -213 257 -213 274 -178.5 c 128,-1,3
 291 -144 291 -144 301 -107.5 c 128,-1,4
 311 -71 311 -71 313 -33 c 1,5,6
 307 -34 307 -34 301 -34 c 128,-1,7
 295 -34 295 -34 289 -34 c 0,8,9
 257 -34 257 -34 229 -25.5 c 128,-1,10
 201 -17 201 -17 180.5 0.5 c 128,-1,11
 160 18 160 18 148 43.5 c 128,-1,12
 136 69 136 69 136 104 c 0,13,14
 136 130 136 130 144 153.5 c 128,-1,15
 152 177 152 177 168 194.5 c 128,-1,16
 184 212 184 212 208.5 222.5 c 128,-1,17
 233 233 233 233 266 233 c 0,18,19
 335 233 335 233 380 182.5 c 128,-1,20
 425 132 425 132 425 35 c 0,21,22
 425 -18 425 -18 412 -70.5 c 128,-1,23
 399 -123 399 -123 376 -173 c 128,-1,24
 353 -223 353 -223 321.5 -268.5 c 128,-1,25
 290 -314 290 -314 252 -352 c 1,26,-1
 185 -299 l 1,0,1
EndSplineSet
EndChar

StartChar: quotedblbase
Encoding: 8222 8222 117
Width: 879
Flags: W
LayerCount: 2
Fore
SplineSet
154 -299 m 1,0,1
 208 -249 208 -249 243.5 -178.5 c 128,-1,2
 279 -108 279 -108 283 -33 c 1,3,4
 276 -34 276 -34 270 -34 c 128,-1,5
 264 -34 264 -34 258 -34 c 0,6,7
 226 -34 226 -34 198 -25 c 128,-1,8
 170 -16 170 -16 149 1.5 c 128,-1,9
 128 19 128 19 116 44.5 c 128,-1,10
 104 70 104 70 104 104 c 0,11,12
 104 130 104 130 112 153.5 c 128,-1,13
 120 177 120 177 136.5 194.5 c 128,-1,14
 153 212 153 212 177.5 222.5 c 128,-1,15
 202 233 202 233 235 233 c 0,16,17
 305 233 305 233 349.5 182.5 c 128,-1,18
 394 132 394 132 394 35 c 0,19,20
 394 -18 394 -18 381.5 -70.5 c 128,-1,21
 369 -123 369 -123 346.5 -173 c 128,-1,22
 324 -223 324 -223 292 -268.5 c 128,-1,23
 260 -314 260 -314 220 -352 c 1,24,-1
 154 -299 l 1,0,1
573 -299 m 1,25,26
 600 -274 600 -274 622.5 -243.5 c 128,-1,27
 645 -213 645 -213 661.5 -178.5 c 128,-1,28
 678 -144 678 -144 688 -107.5 c 128,-1,29
 698 -71 698 -71 700 -33 c 1,30,31
 694 -34 694 -34 688 -34 c 128,-1,32
 682 -34 682 -34 676 -34 c 0,33,34
 644 -34 644 -34 616 -25 c 128,-1,35
 588 -16 588 -16 567.5 1.5 c 128,-1,36
 547 19 547 19 535 45 c 128,-1,37
 523 71 523 71 523 104 c 0,38,39
 523 130 523 130 531 153.5 c 128,-1,40
 539 177 539 177 555 194.5 c 128,-1,41
 571 212 571 212 595.5 222.5 c 128,-1,42
 620 233 620 233 653 233 c 0,43,44
 722 233 722 233 767 182.5 c 128,-1,45
 812 132 812 132 812 35 c 0,46,47
 812 -18 812 -18 799.5 -70.5 c 128,-1,48
 787 -123 787 -123 764.5 -173 c 128,-1,49
 742 -223 742 -223 710 -268.5 c 128,-1,50
 678 -314 678 -314 639 -352 c 1,51,-1
 573 -299 l 1,25,26
EndSplineSet
EndChar

StartChar: quotedblright
Encoding: 8221 8221 118
Width: 879
Flags: W
LayerCount: 2
Fore
SplineSet
154 920 m 1,0,1
 208 969 208 969 243.5 1039.5 c 128,-1,2
 279 1110 279 1110 283 1186 c 1,3,4
 276 1185 276 1185 270 1185 c 128,-1,5
 264 1185 264 1185 258 1185 c 0,6,7
 226 1185 226 1185 198 1194 c 128,-1,8
 170 1203 170 1203 149 1220 c 128,-1,9
 128 1237 128 1237 116 1263 c 128,-1,10
 104 1289 104 1289 104 1323 c 0,11,12
 104 1349 104 1349 112 1372.5 c 128,-1,13
 120 1396 120 1396 136.5 1413.5 c 128,-1,14
 153 1431 153 1431 177.5 1441.5 c 128,-1,15
 202 1452 202 1452 235 1452 c 0,16,17
 305 1452 305 1452 349.5 1401 c 128,-1,18
 394 1350 394 1350 394 1253 c 0,19,20
 394 1200 394 1200 381.5 1147.5 c 128,-1,21
 369 1095 369 1095 346.5 1045.5 c 128,-1,22
 324 996 324 996 292 950.5 c 128,-1,23
 260 905 260 905 220 866 c 1,24,-1
 154 920 l 1,0,1
573 920 m 1,25,26
 600 944 600 944 622.5 974.5 c 128,-1,27
 645 1005 645 1005 661.5 1039.5 c 128,-1,28
 678 1074 678 1074 688 1111 c 128,-1,29
 698 1148 698 1148 700 1186 c 1,30,31
 694 1185 694 1185 688 1185 c 128,-1,32
 682 1185 682 1185 676 1185 c 0,33,34
 644 1185 644 1185 616 1194 c 128,-1,35
 588 1203 588 1203 567.5 1220 c 128,-1,36
 547 1237 547 1237 535 1263 c 128,-1,37
 523 1289 523 1289 523 1323 c 0,38,39
 523 1349 523 1349 531 1372.5 c 128,-1,40
 539 1396 539 1396 555 1413.5 c 128,-1,41
 571 1431 571 1431 595.5 1441.5 c 128,-1,42
 620 1452 620 1452 653 1452 c 0,43,44
 722 1452 722 1452 767 1401 c 128,-1,45
 812 1350 812 1350 812 1253 c 0,46,47
 812 1200 812 1200 799.5 1147.5 c 128,-1,48
 787 1095 787 1095 764.5 1045.5 c 128,-1,49
 742 996 742 996 710 950.5 c 128,-1,50
 678 905 678 905 639 866 c 1,51,-1
 573 920 l 1,25,26
EndSplineSet
EndChar

StartChar: guillemotright
Encoding: 187 187 119
Width: 1054
Flags: W
LayerCount: 2
Fore
SplineSet
913 488 m 1,0,-1
 559 124 l 1,1,-1
 494 136 l 1,2,-1
 698 487 l 1,3,-1
 494 838 l 1,4,-1
 559 850 l 1,5,-1
 913 488 l 1,0,-1
532 488 m 1,6,-1
 178 124 l 1,7,-1
 113 136 l 1,8,-1
 317 487 l 1,9,-1
 113 838 l 1,10,-1
 178 850 l 1,11,-1
 532 488 l 1,6,-1
EndSplineSet
EndChar

StartChar: ellipsis
Encoding: 8230 8230 120
Width: 2375
Flags: W
LayerCount: 2
Fore
SplineSet
397 248 m 0,0,1
 458 248 458 248 495 214.5 c 128,-1,2
 532 181 532 181 532 113 c 0,3,4
 532 47 532 47 495 13.5 c 128,-1,5
 458 -20 458 -20 397 -20 c 0,6,7
 334 -20 334 -20 296.5 13.5 c 128,-1,8
 259 47 259 47 259 113 c 0,9,10
 259 181 259 181 296.5 214.5 c 128,-1,11
 334 248 334 248 397 248 c 0,0,1
1187 248 m 0,12,13
 1248 248 1248 248 1285.5 214.5 c 128,-1,14
 1323 181 1323 181 1323 113 c 0,15,16
 1323 47 1323 47 1285.5 13.5 c 128,-1,17
 1248 -20 1248 -20 1187 -20 c 0,18,19
 1124 -20 1124 -20 1086.5 13.5 c 128,-1,20
 1049 47 1049 47 1049 113 c 0,21,22
 1049 181 1049 181 1086.5 214.5 c 128,-1,23
 1124 248 1124 248 1187 248 c 0,12,13
1978 248 m 0,24,25
 2039 248 2039 248 2076 214.5 c 128,-1,26
 2113 181 2113 181 2113 113 c 0,27,28
 2113 47 2113 47 2076 13.5 c 128,-1,29
 2039 -20 2039 -20 1978 -20 c 0,30,31
 1915 -20 1915 -20 1877.5 13.5 c 128,-1,32
 1840 47 1840 47 1840 113 c 0,33,34
 1840 181 1840 181 1877.5 214.5 c 128,-1,35
 1915 248 1915 248 1978 248 c 0,24,25
EndSplineSet
EndChar

StartChar: perthousand
Encoding: 8240 8240 121
Width: 2154
Flags: W
LayerCount: 2
Fore
SplineSet
1148 29 m 1,0,1
 1169 38 1169 38 1186.5 59.5 c 128,-1,2
 1204 81 1204 81 1217 120 c 128,-1,3
 1230 159 1230 159 1237 218 c 128,-1,4
 1244 277 1244 277 1244 360 c 0,5,6
 1244 442 1244 442 1236.5 500.5 c 128,-1,7
 1229 559 1229 559 1216.5 598 c 128,-1,8
 1204 637 1204 637 1186.5 659 c 128,-1,9
 1169 681 1169 681 1148 690 c 1,10,-1
 1148 748 l 1,11,12
 1202 740 1202 740 1250 710.5 c 128,-1,13
 1298 681 1298 681 1334.5 632 c 128,-1,14
 1371 583 1371 583 1392.5 514.5 c 128,-1,15
 1414 446 1414 446 1414 360 c 0,16,17
 1414 273 1414 273 1392.5 204.5 c 128,-1,18
 1371 136 1371 136 1335 86.5 c 128,-1,19
 1299 37 1299 37 1250.5 8 c 128,-1,20
 1202 -21 1202 -21 1148 -28 c 1,21,-1
 1148 29 l 1,0,1
1065 -28 m 1,22,23
 1011 -20 1011 -20 963.5 9.5 c 128,-1,24
 916 39 916 39 880 88 c 128,-1,25
 844 137 844 137 823 205.5 c 128,-1,26
 802 274 802 274 802 360 c 0,27,28
 802 447 802 447 823 515.5 c 128,-1,29
 844 584 844 584 880 633 c 128,-1,30
 916 682 916 682 963.5 711 c 128,-1,31
 1011 740 1011 740 1065 748 c 1,32,-1
 1065 690 l 1,33,34
 1044 681 1044 681 1027 659 c 128,-1,35
 1010 637 1010 637 998 598 c 128,-1,36
 986 559 986 559 979.5 500.5 c 128,-1,37
 973 442 973 442 973 360 c 0,38,39
 973 277 973 277 979.5 218.5 c 128,-1,40
 986 160 986 160 998 121 c 128,-1,41
 1010 82 1010 82 1027 60 c 128,-1,42
 1044 38 1044 38 1065 29 c 1,43,-1
 1065 -28 l 1,22,23
176 -31 m 1,44,-1
 1211 1452 l 1,45,-1
 1330 1452 l 1,46,-1
 295 -31 l 1,47,-1
 176 -31 l 1,44,-1
441 730 m 1,48,49
 462 739 462 739 479.5 760.5 c 128,-1,50
 497 782 497 782 510 821 c 128,-1,51
 523 860 523 860 530 919 c 128,-1,52
 537 978 537 978 537 1061 c 0,53,54
 537 1143 537 1143 529.5 1201.5 c 128,-1,55
 522 1260 522 1260 509.5 1299 c 128,-1,56
 497 1338 497 1338 479.5 1360 c 128,-1,57
 462 1382 462 1382 441 1391 c 1,58,-1
 441 1449 l 1,59,60
 495 1441 495 1441 543 1411.5 c 128,-1,61
 591 1382 591 1382 627.5 1333 c 128,-1,62
 664 1284 664 1284 685.5 1215.5 c 128,-1,63
 707 1147 707 1147 707 1061 c 0,64,65
 707 974 707 974 685.5 905.5 c 128,-1,66
 664 837 664 837 628 787.5 c 128,-1,67
 592 738 592 738 543.5 709 c 128,-1,68
 495 680 495 680 441 673 c 1,69,-1
 441 730 l 1,48,49
358 673 m 1,70,71
 304 681 304 681 256.5 710.5 c 128,-1,72
 209 740 209 740 173 789 c 128,-1,73
 137 838 137 838 116 906.5 c 128,-1,74
 95 975 95 975 95 1061 c 0,75,76
 95 1148 95 1148 116 1216.5 c 128,-1,77
 137 1285 137 1285 173 1334 c 128,-1,78
 209 1383 209 1383 256.5 1412 c 128,-1,79
 304 1441 304 1441 358 1449 c 1,80,-1
 358 1391 l 1,81,82
 337 1382 337 1382 320 1360 c 128,-1,83
 303 1338 303 1338 291 1299 c 128,-1,84
 279 1260 279 1260 272.5 1201.5 c 128,-1,85
 266 1143 266 1143 266 1061 c 0,86,87
 266 978 266 978 272.5 919.5 c 128,-1,88
 279 861 279 861 291 822 c 128,-1,89
 303 783 303 783 320 761 c 128,-1,90
 337 739 337 739 358 730 c 1,91,-1
 358 673 l 1,70,71
1852 29 m 1,92,93
 1873 38 1873 38 1890.5 59.5 c 128,-1,94
 1908 81 1908 81 1921 120 c 128,-1,95
 1934 159 1934 159 1941 218 c 128,-1,96
 1948 277 1948 277 1948 360 c 0,97,98
 1948 442 1948 442 1940.5 500.5 c 128,-1,99
 1933 559 1933 559 1920.5 598 c 128,-1,100
 1908 637 1908 637 1890.5 659 c 128,-1,101
 1873 681 1873 681 1852 690 c 1,102,-1
 1852 748 l 1,103,104
 1906 740 1906 740 1954 710.5 c 128,-1,105
 2002 681 2002 681 2038.5 632 c 128,-1,106
 2075 583 2075 583 2096.5 514.5 c 128,-1,107
 2118 446 2118 446 2118 360 c 0,108,109
 2118 273 2118 273 2096.5 204.5 c 128,-1,110
 2075 136 2075 136 2039 86.5 c 128,-1,111
 2003 37 2003 37 1954.5 8 c 128,-1,112
 1906 -21 1906 -21 1852 -28 c 1,113,-1
 1852 29 l 1,92,93
1769 -28 m 1,114,115
 1715 -20 1715 -20 1667.5 9.5 c 128,-1,116
 1620 39 1620 39 1584 88 c 128,-1,117
 1548 137 1548 137 1527 205.5 c 128,-1,118
 1506 274 1506 274 1506 360 c 0,119,120
 1506 447 1506 447 1527 515.5 c 128,-1,121
 1548 584 1548 584 1584 633 c 128,-1,122
 1620 682 1620 682 1667.5 711 c 128,-1,123
 1715 740 1715 740 1769 748 c 1,124,-1
 1769 690 l 1,125,126
 1748 681 1748 681 1731 659 c 128,-1,127
 1714 637 1714 637 1702 598 c 128,-1,128
 1690 559 1690 559 1683.5 500.5 c 128,-1,129
 1677 442 1677 442 1677 360 c 0,130,131
 1677 277 1677 277 1683.5 218.5 c 128,-1,132
 1690 160 1690 160 1702 121 c 128,-1,133
 1714 82 1714 82 1731 60 c 128,-1,134
 1748 38 1748 38 1769 29 c 1,135,-1
 1769 -28 l 1,114,115
EndSplineSet
Ligature2: "Ligature Substitution lookup 6 subtable" zero fraction zero zero
Ligature2: "Ligature Substitution lookup 6 subtable" zero slash zero zero
EndChar

StartChar: questiondown
Encoding: 191 191 122
Width: 924
Flags: W
LayerCount: 2
Fore
SplineSet
525 -364 m 1,0,1
 563 -364 563 -364 594 -353.5 c 128,-1,2
 625 -343 625 -343 647 -325.5 c 128,-1,3
 669 -308 669 -308 681 -285.5 c 128,-1,4
 693 -263 693 -263 694 -238 c 1,5,6
 632 -225 632 -225 597 -190 c 128,-1,7
 562 -155 562 -155 562 -109 c 0,8,9
 562 -55 562 -55 594 -23.5 c 128,-1,10
 626 8 626 8 683 8 c 0,11,12
 749 8 749 8 788.5 -32 c 128,-1,13
 828 -72 828 -72 828 -152 c 0,14,15
 828 -209 828 -209 807 -259 c 128,-1,16
 786 -309 786 -309 747 -348.5 c 128,-1,17
 708 -388 708 -388 652 -414 c 128,-1,18
 596 -440 596 -440 525 -448 c 1,19,-1
 525 -364 l 1,0,1
442 -451 m 1,20,21
 353 -448 353 -448 284.5 -418.5 c 128,-1,22
 216 -389 216 -389 169 -342.5 c 128,-1,23
 122 -296 122 -296 97.5 -237.5 c 128,-1,24
 73 -179 73 -179 73 -117 c 0,25,26
 73 -39 73 -39 101.5 15.5 c 128,-1,27
 130 70 130 70 173 113 c 128,-1,28
 216 156 216 156 266.5 194 c 128,-1,29
 317 232 317 232 360 276 c 128,-1,30
 403 320 403 320 431.5 376 c 128,-1,31
 460 432 460 432 460 512 c 2,32,-1
 460 598 l 1,33,-1
 555 598 l 1,34,-1
 555 491 l 2,35,36
 555 418 555 418 537 367 c 128,-1,37
 519 316 519 316 492.5 275.5 c 128,-1,38
 466 235 466 235 435 198.5 c 128,-1,39
 404 162 404 162 377.5 118.5 c 128,-1,40
 351 75 351 75 333 19 c 128,-1,41
 315 -37 315 -37 315 -117 c 0,42,43
 315 -212 315 -212 350 -269.5 c 128,-1,44
 385 -327 385 -327 442 -350 c 1,45,-1
 442 -451 l 1,20,21
495 761 m 0,46,47
 469 761 469 761 445.5 771.5 c 128,-1,48
 422 782 422 782 404 800 c 128,-1,49
 386 818 386 818 375.5 841.5 c 128,-1,50
 365 865 365 865 365 892 c 0,51,52
 365 920 365 920 375 943.5 c 128,-1,53
 385 967 385 967 402.5 984 c 128,-1,54
 420 1001 420 1001 444 1011 c 128,-1,55
 468 1021 468 1021 495 1021 c 0,56,57
 525 1021 525 1021 549.5 1011.5 c 128,-1,58
 574 1002 574 1002 591.5 985 c 128,-1,59
 609 968 609 968 618.5 944 c 128,-1,60
 628 920 628 920 628 892 c 0,61,62
 628 835 628 835 591.5 798 c 128,-1,63
 555 761 555 761 495 761 c 0,46,47
EndSplineSet
EndChar

StartChar: grave
Encoding: 96 96 123
Width: 637
Flags: W
LayerCount: 2
Fore
SplineSet
394 1096 m 1,0,-1
 55 1296 l 2,1,2
 24 1314 24 1314 7.5 1332 c 128,-1,3
 -9 1350 -9 1350 -9 1376 c 0,4,5
 -9 1388 -9 1388 -4 1400 c 128,-1,6
 1 1412 1 1412 11.5 1422.5 c 128,-1,7
 22 1433 22 1433 36.5 1439.5 c 128,-1,8
 51 1446 51 1446 71 1446 c 0,9,10
 106 1446 106 1446 138 1423 c 128,-1,11
 170 1400 170 1400 202 1370 c 2,12,-1
 489 1096 l 1,13,-1
 394 1096 l 1,0,-1
EndSplineSet
EndChar

StartChar: acute
Encoding: 180 180 124
Width: 637
Flags: W
LayerCount: 2
Fore
SplineSet
147 1096 m 1,0,-1
 434 1370 l 2,1,2
 466 1400 466 1400 497.5 1423 c 128,-1,3
 529 1446 529 1446 565 1446 c 0,4,5
 584 1446 584 1446 599.5 1439.5 c 128,-1,6
 615 1433 615 1433 625 1422.5 c 128,-1,7
 635 1412 635 1412 640.5 1400 c 128,-1,8
 646 1388 646 1388 646 1376 c 0,9,10
 646 1350 646 1350 629 1332 c 128,-1,11
 612 1314 612 1314 582 1296 c 2,12,-1
 242 1096 l 1,13,-1
 147 1096 l 1,0,-1
EndSplineSet
EndChar

StartChar: circumflex
Encoding: 710 710 125
Width: 637
Flags: W
LayerCount: 2
Fore
SplineSet
392 1440 m 1,0,-1
 658 1096 l 1,1,-1
 571 1096 l 1,2,-1
 318 1323 l 1,3,-1
 64 1096 l 1,4,-1
 -21 1096 l 1,5,-1
 242 1440 l 1,6,-1
 392 1440 l 1,0,-1
EndSplineSet
EndChar

StartChar: tilde
Encoding: 732 732 126
Width: 637
Flags: W
LayerCount: 2
Fore
SplineSet
675 1366 m 1,0,1
 666 1334 666 1334 650 1296 c 128,-1,2
 634 1258 634 1258 607.5 1225.5 c 128,-1,3
 581 1193 581 1193 542 1171 c 128,-1,4
 503 1149 503 1149 449 1149 c 0,5,6
 405 1149 405 1149 365.5 1164.5 c 128,-1,7
 326 1180 326 1180 288.5 1198 c 128,-1,8
 251 1216 251 1216 215.5 1231.5 c 128,-1,9
 180 1247 180 1247 145 1247 c 0,10,11
 118 1247 118 1247 98.5 1238 c 128,-1,12
 79 1229 79 1229 65.5 1214.5 c 128,-1,13
 52 1200 52 1200 43.5 1181.5 c 128,-1,14
 35 1163 35 1163 29 1145 c 1,15,-1
 -36 1145 l 1,16,17
 -13 1251 -13 1251 46.5 1303.5 c 128,-1,18
 106 1356 106 1356 188 1356 c 0,19,20
 228 1356 228 1356 269 1340.5 c 128,-1,21
 310 1325 310 1325 348.5 1306.5 c 128,-1,22
 387 1288 387 1288 421.5 1272.5 c 128,-1,23
 456 1257 456 1257 485 1257 c 0,24,25
 513 1257 513 1257 532 1265.5 c 128,-1,26
 551 1274 551 1274 565 1288.5 c 128,-1,27
 579 1303 579 1303 589 1323 c 128,-1,28
 599 1343 599 1343 610 1366 c 1,29,-1
 675 1366 l 1,0,1
EndSplineSet
EndChar

StartChar: macron
Encoding: 175 175 127
Width: 637
Flags: W
LayerCount: 2
Fore
SplineSet
644 1286 m 1,0,-1
 644 1178 l 1,1,-1
 -5 1178 l 1,2,-1
 -5 1286 l 1,3,-1
 644 1286 l 1,0,-1
EndSplineSet
EndChar

StartChar: breve
Encoding: 728 728 128
Width: 637
Flags: W
LayerCount: 2
Fore
SplineSet
614 1401 m 1,0,1
 613 1342 613 1342 593 1287.5 c 128,-1,2
 573 1233 573 1233 534 1190 c 128,-1,3
 495 1147 495 1147 438.5 1121.5 c 128,-1,4
 382 1096 382 1096 308 1096 c 0,5,6
 180 1096 180 1096 104.5 1172 c 128,-1,7
 29 1248 29 1248 21 1401 c 1,8,-1
 88 1401 l 1,9,10
 100 1316 100 1316 156 1266.5 c 128,-1,11
 212 1217 212 1217 315 1217 c 0,12,13
 369 1217 369 1217 409 1230.5 c 128,-1,14
 449 1244 449 1244 476.5 1268 c 128,-1,15
 504 1292 504 1292 521.5 1326 c 128,-1,16
 539 1360 539 1360 548 1401 c 1,17,-1
 614 1401 l 1,0,1
EndSplineSet
EndChar

StartChar: dotaccent
Encoding: 729 729 129
Width: 637
Flags: W
LayerCount: 2
Fore
SplineSet
318 1335 m 0,0,1
 343 1335 343 1335 365 1327.5 c 128,-1,2
 387 1320 387 1320 403 1306.5 c 128,-1,3
 419 1293 419 1293 428.5 1274 c 128,-1,4
 438 1255 438 1255 438 1233 c 0,5,6
 438 1210 438 1210 428.5 1191 c 128,-1,7
 419 1172 419 1172 403 1158.5 c 128,-1,8
 387 1145 387 1145 365 1137.5 c 128,-1,9
 343 1130 343 1130 318 1130 c 0,10,11
 268 1130 268 1130 234 1158 c 128,-1,12
 200 1186 200 1186 200 1233 c 0,13,14
 200 1278 200 1278 234 1306.5 c 128,-1,15
 268 1335 268 1335 318 1335 c 0,0,1
EndSplineSet
EndChar

StartChar: dieresis
Encoding: 168 168 130
Width: 637
Flags: W
LayerCount: 2
Fore
SplineSet
109 1335 m 0,0,1
 134 1335 134 1335 156 1327.5 c 128,-1,2
 178 1320 178 1320 194 1306.5 c 128,-1,3
 210 1293 210 1293 219.5 1274 c 128,-1,4
 229 1255 229 1255 229 1233 c 0,5,6
 229 1210 229 1210 219.5 1191 c 128,-1,7
 210 1172 210 1172 194 1158.5 c 128,-1,8
 178 1145 178 1145 156 1137.5 c 128,-1,9
 134 1130 134 1130 109 1130 c 0,10,11
 59 1130 59 1130 25 1158 c 128,-1,12
 -9 1186 -9 1186 -9 1233 c 0,13,14
 -9 1278 -9 1278 25 1306.5 c 128,-1,15
 59 1335 59 1335 109 1335 c 0,0,1
530 1335 m 0,16,17
 580 1335 580 1335 614 1306.5 c 128,-1,18
 648 1278 648 1278 648 1233 c 0,19,20
 648 1186 648 1186 614 1158 c 128,-1,21
 580 1130 580 1130 530 1130 c 0,22,23
 479 1130 479 1130 445 1158 c 128,-1,24
 411 1186 411 1186 411 1233 c 0,25,26
 411 1278 411 1278 445 1306.5 c 128,-1,27
 479 1335 479 1335 530 1335 c 0,16,17
EndSplineSet
EndChar

StartChar: ring
Encoding: 730 730 131
Width: 637
Flags: W
LayerCount: 2
Fore
SplineSet
77 1317 m 256,0,1
 77 1362 77 1362 96 1399.5 c 128,-1,2
 115 1437 115 1437 147.5 1465 c 128,-1,3
 180 1493 180 1493 224 1508.5 c 128,-1,4
 268 1524 268 1524 318 1524 c 256,5,6
 368 1524 368 1524 411.5 1508.5 c 128,-1,7
 455 1493 455 1493 487.5 1465 c 128,-1,8
 520 1437 520 1437 539 1399.5 c 128,-1,9
 558 1362 558 1362 558 1317 c 256,10,11
 558 1272 558 1272 539 1234 c 128,-1,12
 520 1196 520 1196 487.5 1168 c 128,-1,13
 455 1140 455 1140 411.5 1124 c 128,-1,14
 368 1108 368 1108 318 1108 c 256,15,16
 268 1108 268 1108 224 1124 c 128,-1,17
 180 1140 180 1140 147.5 1168 c 128,-1,18
 115 1196 115 1196 96 1234 c 128,-1,19
 77 1272 77 1272 77 1317 c 256,0,1
164 1317 m 0,20,21
 164 1288 164 1288 176 1263.5 c 128,-1,22
 188 1239 188 1239 208.5 1220 c 128,-1,23
 229 1201 229 1201 257 1190.5 c 128,-1,24
 285 1180 285 1180 318 1180 c 256,25,26
 351 1180 351 1180 379 1190.5 c 128,-1,27
 407 1201 407 1201 427.5 1220 c 128,-1,28
 448 1239 448 1239 459.5 1263.5 c 128,-1,29
 471 1288 471 1288 471 1317 c 0,30,31
 471 1345 471 1345 459.5 1370 c 128,-1,32
 448 1395 448 1395 427.5 1413 c 128,-1,33
 407 1431 407 1431 379 1441.5 c 128,-1,34
 351 1452 351 1452 318 1452 c 256,35,36
 285 1452 285 1452 257 1441.5 c 128,-1,37
 229 1431 229 1431 208.5 1413 c 128,-1,38
 188 1395 188 1395 176 1370 c 128,-1,39
 164 1345 164 1345 164 1317 c 0,20,21
EndSplineSet
EndChar

StartChar: cedilla
Encoding: 184 184 132
Width: 637
Flags: W
LayerCount: 2
Fore
SplineSet
349 0 m 1,0,-1
 281 -137 l 1,1,2
 298 -132 298 -132 319.5 -129.5 c 128,-1,3
 341 -127 341 -127 367 -127 c 0,4,5
 406 -127 406 -127 440 -137 c 128,-1,6
 474 -147 474 -147 499 -165.5 c 128,-1,7
 524 -184 524 -184 538.5 -210.5 c 128,-1,8
 553 -237 553 -237 553 -270 c 0,9,10
 553 -308 553 -308 534 -340 c 128,-1,11
 515 -372 515 -372 479 -395 c 128,-1,12
 443 -418 443 -418 391.5 -431 c 128,-1,13
 340 -444 340 -444 274 -444 c 0,14,15
 216 -444 216 -444 164 -436 c 128,-1,16
 112 -428 112 -428 61 -410 c 1,17,-1
 97 -348 l 1,18,19
 128 -361 128 -361 164.5 -368 c 128,-1,20
 201 -375 201 -375 252 -375 c 0,21,22
 315 -375 315 -375 351 -349.5 c 128,-1,23
 387 -324 387 -324 387 -287 c 0,24,25
 387 -246 387 -246 357 -224.5 c 128,-1,26
 327 -203 327 -203 274 -203 c 0,27,28
 251 -203 251 -203 232.5 -207 c 128,-1,29
 214 -211 214 -211 202 -217 c 1,30,-1
 166 -205 l 1,31,-1
 270 0 l 1,32,-1
 349 0 l 1,0,-1
EndSplineSet
EndChar

StartChar: hungarumlaut
Encoding: 733 733 133
Width: 637
Flags: W
LayerCount: 2
Fore
SplineSet
143 1096 m 1,0,-1
 423 1371 l 2,1,2
 452 1400 452 1400 483.5 1423 c 128,-1,3
 515 1446 515 1446 551 1446 c 0,4,5
 555 1446 555 1446 559 1446 c 128,-1,6
 563 1446 563 1446 567 1445 c 1,7,8
 572 1446 572 1446 575.5 1446 c 128,-1,9
 579 1446 579 1446 584 1446 c 0,10,11
 622 1446 622 1446 643 1424 c 128,-1,12
 664 1402 664 1402 664 1376 c 0,13,14
 664 1353 664 1353 649 1334.5 c 128,-1,15
 634 1316 634 1316 603 1297 c 2,16,-1
 276 1096 l 1,17,-1
 143 1096 l 1,0,-1
EndSplineSet
EndChar

